<?xml version="1.0" encoding="UTF-8"?>
<svg xmlns="http://www.w3.org/2000/svg" version="1.1" viewBox="0 0 250 250">
  <defs>
    <style>
      .cls-1 {
        fill: #0a0a0a;
      }
    </style>
  </defs>
  <!-- Generator: Adobe Illustrator 28.7.1, SVG Export Plug-In . SVG Version: 1.2.0 Build 142)  -->
  <g>
    <g id="Layer_1">
      <g>
        <g>
          <path class="cls-1" d="M103,131.5c.2,1.5-1.1,2.7-2.5,2.3-.8-.2-1.6-.5-2.6-.7-1.7-.4-3.7-.6-5.8-.5-.4,0-.7,0-1,0-.4,0-.7,0-1.1.1-.3,0-.7,0-1,.2h0c-6.3,1.4-14,6.8-19.6,16.3-.6,1-1.6,1.5-2.5,1.3,0,0-.2,0-.2,0-.9-.3-1.4-1.1-1.3-2,3.2-33.8,19.1-37.4,19.7-37.5.5,0,1-.1,1.4-.1,0,0,.3,0,.8,0,.7,0,1.8.2,3.2.8.2,0,.3.1.5.2,4.1,1.7,9.9,6.5,12.2,19.7Z"/>
          <path class="cls-1" d="M87.1,110.9c.3,0,.6,0,1.1.2-.3,0-.7-.1-1.1-.2Z"/>
          <path class="cls-1" d="M89.2,111.3c-.4-.1-.7-.2-1-.2.3,0,.7.1,1,.2Z"/>
          <path class="cls-1" d="M90.3,111.7c-.4-.2-.7-.3-1.1-.4.4,0,.7.2,1.1.4Z"/>
        </g>
        <path class="cls-1" d="M186.2,118.4c4.6,3.4,9.6,6.3,16.4,6.3h.4c9.2,0,16.8-7.1,18.4-16.4,2.1-15.9-1.3-39-15.1-55.3-9.6-11.3-23.1-18-39-18.4h-2.1c-11.7,0-22.6,2.9-32.7,8l-19.7-26.4c-2.1-2.5-5-3.8-8-2.5-2.9.8-5,3.4-5.4,6.7l-5.5,44-14.3-33.5-.4-.4c-3.4-6.7-8-10.5-14.3-10.5s-13,1.3-15.1,15.5l-4.6,28.5c-8.8,52.8-17.2,105.2-17.2,118.2-.4,8.8,4.2,18,12.2,26.4,17.2,17.2,49,28.5,80.9,28.5s57.4-8.8,82.6-25.6c7.5-5,12.6-13.4,13-22.2,1.3-13,.8-30.2-5.9-37.3-2.5-2.9-6.3-4.6-10.5-4.6s-9.2.8-13.4,8.4c-1.3,2.1-2.1,3.4-2.9,5-.8,0-1.7.4-2.9-.4-1.7-1.7-4.6-6.3-2.9-21.8,1.7-17.2,5.9-19.7,8-20.1ZM199.6,162.8q.4-.4.4-.8c1.7,1.3,3.4,11.7,2.1,26.4,0,4.6-2.5,8.4-6.3,10.9-22.6,15.1-48.6,23.1-74.6,23.1s-59.1-13-70.4-24.3c-5.5-5.5-8-10.9-8-15.9,0-12.6,10.5-75,17.2-116.1,1.7-12.2,3.4-22.2,4.6-28.5,0-2.1.4-2.5.4-2.5,0,0,.4.4,1.3,2.1l28.1,65c.4.8.8,1.3,1.7,1.3s1.7-.4,2.1-1.3c1.7-1.7,3.4-4.6,5.5-8,10.5-16.8,28.1-44.9,61.2-44.9h1.7c11.7.4,21.4,5,28.5,13.4,10.5,12.6,13.4,31.9,11.7,44-.4,1.7-1.7,2.9-3.4,3.4h-.4c-3.8,0-7.5-2.9-14.3-8.4-2.9-2.1-6.7-5.5-11.7-8.8-2.1-1.3-3.4-2.1-5-2.1s-3.4.8-4.2,5c0,1.3-.4,2.5-.4,3.8-1.3,7.5-2.9,18.4-10.5,31-2.9,4.6-6.3,7.5-9.6,7.5s-.8-.4-1.7-.4c-5-2.5-9.2-7.1-20.1-21.4-.8-1.3-1.7-1.7-2.5-1.7-1.3,0-2.5,1.3-3.4,2.1-5,5.5-6.7,25.2-3.4,42.8,1.3,9.2,5.9,25.2,16.4,31,4.6,2.1,8,3.4,10.9,3.4,4.2,0,7.5-1.7,10.9-5.5,3.4-2.9,5-6.3,6.7-9.2,1.3-2.1,2.5-4.2,4.2-6.3,1.3-1.3,2.5-2.9,3.4-2.9,0,0,.8,0,1.7,1.7.8,1.3,2.1,3.4,3.4,5.9.8,1.7,2.1,3.4,2.9,5,1.3,2.1,3.4,3.4,5.5,3.4s3.8-.8,5-2.5c4.6-5,6.3-8.8,8.8-13.8,1.3-1.7,2.5-4.2,3.8-6.7Z"/>
      </g>
    </g>
  </g>
</svg>