<?xml version="1.0" encoding="UTF-8"?>
<svg xmlns="http://www.w3.org/2000/svg" version="1.1" viewBox="0 0 9 9">
  <defs>
    <style>
      .cls-1 {
        fill: #0a0a0a;
      }
    </style>
  </defs>
  <!-- Generator: Adobe Illustrator 28.7.1, SVG Export Plug-In . SVG Version: 1.2.0 Build 142)  -->
  <g>
    <g id="Layer_1">
      <g>
        <g>
          <path class="cls-1" d="M3.9,4.7s0,0,0,0,0,0,0,0c0,0,0,0-.1,0,0,0,0,0,0,0,0,0,0,0,0,0,0,0,0,0,0,0h0c-.2,0-.3.2-.5.4,0,0,0,0,0,0,0,0,0,0,0,0,0,0,0,0,0,0,0-.8.5-.9.5-.9,0,0,0,0,0,0,0,0,0,0,0,0,0,0,0,0,0,0,0,0,0,0,0,0,0,0,.2.2.3.5Z"/>
          <path class="cls-1" d="M3.5,4.2s0,0,0,0c0,0,0,0,0,0Z"/>
          <path class="cls-1" d="M3.5,4.2s0,0,0,0c0,0,0,0,0,0Z"/>
          <path class="cls-1" d="M3.6,4.2s0,0,0,0c0,0,0,0,0,0Z"/>
        </g>
        <path class="cls-1" d="M5.8,4.3c.1,0,.2.2.4.2h0c.2,0,.4-.2.4-.4,0-.4,0-.9-.4-1.3-.2-.3-.5-.4-.9-.4h0c-.3,0-.5,0-.8.2l-.5-.6c0,0-.1,0-.2,0,0,0-.1,0-.1.2v1c-.1,0-.5-.8-.5-.8h0c0-.2-.2-.3-.3-.3s-.3,0-.4.4v.7c-.3,1.3-.5,2.5-.5,2.8,0,.2,0,.4.3.6.4.4,1.2.7,1.9.7s1.4-.2,2-.6c.2-.1.3-.3.3-.5,0-.3,0-.7-.1-.9,0,0-.2-.1-.2-.1s-.2,0-.3.2c0,0,0,0,0,.1,0,0,0,0,0,0,0,0-.1-.1,0-.5,0-.4.1-.5.2-.5ZM6.2,5.4s0,0,0,0c0,0,0,.3,0,.6,0,.1,0,.2-.1.3-.5.4-1.2.6-1.8.6s-1.4-.3-1.7-.6-.2-.3-.2-.4c0-.3.2-1.8.4-2.8,0-.3,0-.5.1-.7,0,0,0,0,0,0,0,0,0,0,0,0l.7,1.6s0,0,0,0,0,0,0,0c0,0,0-.1.1-.2.2-.4.7-1.1,1.5-1.1h0c.3,0,.5.1.7.3.2.3.3.8.3,1,0,0,0,0,0,0h0c0,0-.2,0-.3-.2,0,0-.2-.1-.3-.2,0,0,0,0-.1,0s0,0-.1.1c0,0,0,0,0,0,0,.2,0,.4-.2.7,0,.1-.2.2-.2.2s0,0,0,0c-.1,0-.2-.2-.5-.5,0,0,0,0,0,0,0,0,0,0,0,0-.1.1-.2.6,0,1,0,.2.1.6.4.7.1,0,.2,0,.3,0,0,0,.2,0,.3-.1,0,0,.1-.2.2-.2,0,0,0,0,0-.1,0,0,0,0,0,0,0,0,0,0,0,0,0,0,0,0,0,.1,0,0,0,0,0,.1,0,0,0,0,.1,0s0,0,.1,0c.1-.1.2-.2.2-.3,0,0,0-.1,0-.2Z"/>
      </g>
    </g>
  </g>
</svg>