<?xml version="1.0" encoding="UTF-8"?>
<svg xmlns="http://www.w3.org/2000/svg" version="1.1" viewBox="0 0 250 250">
  <defs>
    <style>
      .cls-1 {
        fill: #fff;
      }
    </style>
  </defs>
  <!-- Generator: Adobe Illustrator 28.7.1, SVG Export Plug-In . SVG Version: 1.2.0 Build 142)  -->
  <g>
    <g id="Layer_1">
      <g>
        <path class="cls-1" d="M407.3,91.4c-3.8-4.5-9-6.9-15.2-7.2h-.9c-17.7,0-27.1,15-32.7,24-1.1,1.8-2,3.4-2.9,4.3-.2.4-.7.7-1.1.7s-.7-.2-.9-.7l-15-34.7c-.4-.9-.7-1.1-.7-1.1,0,0-.2.2-.2,1.3-.7,3.4-1.6,8.7-2.5,15.2-3.6,22-9.2,55.4-9.2,62.1s1.3,5.6,4.3,8.5c6.1,6.1,19.5,13,37.6,13s27.8-4.3,39.9-12.3c2-1.3,3.4-3.4,3.4-5.8.7-7.8-.2-13.4-1.1-14.1q0,.2-.2.4c-.7,1.3-1.3,2.7-2,3.6-1.3,2.7-2.2,4.7-4.7,7.4-.7.9-1.6,1.3-2.7,1.3s-2.2-.7-2.9-1.8c-.4-.9-1.1-1.8-1.6-2.7-.7-1.3-1.3-2.5-1.8-3.1-.4-.9-.9-.9-.9-.9-.4,0-1.1.9-1.8,1.6-.9,1.1-1.6,2.2-2.2,3.4-.9,1.6-1.8,3.4-3.6,4.9-1.8,2-3.6,2.9-5.8,2.9s-3.4-.7-5.8-1.8c-5.6-3.1-8.1-11.7-8.7-16.6-1.8-9.4-.9-19.9,1.8-22.9.4-.4,1.1-1.1,1.8-1.1s.9.2,1.3.9c5.8,7.6,8.1,10.1,10.8,11.4.4,0,.7.2.9.2,1.8,0,3.6-1.6,5.2-4,4-6.7,4.9-12.6,5.6-16.6,0-.7.2-1.3.2-2,.4-2.2,1.6-2.7,2.2-2.7s1.6.4,2.7,1.1c2.7,1.8,4.7,3.6,6.3,4.7,3.6,2.9,5.6,4.5,7.6,4.5h.2c.9-.2,1.6-.9,1.8-1.8.9-6.5-.7-16.8-6.3-23.5ZM356.7,129.4c-.4-.1-.9-.3-1.4-.4-.9-.2-2-.3-3.1-.2-.2,0-.4,0-.6,0-.2,0-.4,0-.6,0-.2,0-.3,0-.5.1h0c-3.4.7-7.5,3.6-10.5,8.7-.3.5-.8.8-1.4.7,0,0,0,0-.1,0-.5-.1-.7-.6-.7-1.1,1.7-18.1,10.2-20,10.6-20.1.2,0,.5,0,.7,0,0,0,.2,0,.4,0,0,0,0,0,.1,0,0,0,0,0,.1,0,0,0,0,0,.1,0,0,0,0,0,.1,0,0,0,.2,0,.3,0h0c0,0,.2,0,.3,0s.2,0,.3,0h0c0,0,.2,0,.3.1,0,0,.2,0,.3.1,2.2.9,5.3,3.5,6.5,10.5.1.8-.6,1.4-1.4,1.2Z"/>
        <path class="cls-1" d="M369.7,42.5c-45.6,0-82.5,37-82.5,82.5s37,82.5,82.5,82.5,82.5-37,82.5-82.5-37-82.5-82.5-82.5ZM421.4,115.8c-.9,4.9-4.9,8.7-9.9,8.7h-.2c-3.6,0-6.3-1.6-8.7-3.4-1.1.2-3.4,1.6-4.3,10.8-.9,8.3.7,10.8,1.6,11.7.7.4,1.1.2,1.6.2.4-.9.9-1.6,1.6-2.7,2.2-4,5.8-4.5,7.2-4.5,2.2,0,4.3.9,5.6,2.5,3.6,3.8,3.8,13,3.1,19.9-.2,4.7-2.9,9.2-6.9,11.9-13.4,9-28.7,13.7-44.1,13.7s-34.1-6.1-43.2-15.2c-4.3-4.5-6.7-9.4-6.5-14.1,0-6.9,4.5-35,9.2-63.2l2.5-15.2c1.1-7.6,6.5-8.3,8.1-8.3,3.4,0,5.8,2,7.6,5.6l.2.2,7.6,17.9,2.9-23.5c.2-1.8,1.3-3.1,2.9-3.6,1.6-.7,3.1,0,4.3,1.3l10.5,14.1c5.4-2.7,11.2-4.3,17.5-4.3h1.1c8.5.2,15.7,3.8,20.8,9.9,7.4,8.7,9.2,21.1,8.1,29.6Z"/>
        <g>
          <g>
            <path class="cls-1" d="M350,117.2c0,0,.1,0,.2,0,0,0,0,0-.1,0,0,0-.1,0-.1,0,0,0,0,0-.1,0,0,0,.1,0,.2,0,0,0,0,0,0,0Z"/>
            <path class="cls-1" d="M350.5,117.4c-.1,0-.2,0-.3,0,0,0,0,0,0,0,0,0,.2,0,.3,0Z"/>
          </g>
          <path class="cls-1" d="M350,117.3c0,0-.1,0-.1,0h0s0,0,0,0c0,0,0,0,0,0Z"/>
        </g>
      </g>
    </g>
  </g>
</svg>