<?xml version="1.0" encoding="UTF-8"?>
<svg xmlns="http://www.w3.org/2000/svg" version="1.1" viewBox="0 0 250 250">
  <defs>
    <style>
      .cls-1 {
        fill: #fff;
      }
    </style>
  </defs>
  <!-- Generator: Adobe Illustrator 28.7.1, SVG Export Plug-In . SVG Version: 1.2.0 Build 142)  -->
  <g>
    <g id="Layer_1">
      <g>
        <path class="cls-1" d="M80,102.9c3.5-2.5,5.4-6.4,5.7-11.7.5-8.3-3.6-13.8-11.5-13.8h-8.2c-.2,0-.3.2-.3.3l-2.3,42.9c0,.1.1.3.3.3h7.2c.2,0,.3-.1.3-.3l.8-14.9c0-.1.2-.3.3-.3h.2c.1,0,.3,0,.3.3l3.9,15c0,.1.1.2.3.2h8c.1,0,.3-.1.2-.3l-5.1-17.1c0-.2,0-.4.1-.5ZM77.8,91.2c-.3,5.3-1.3,6.8-4.8,6.8h-.5c-.2,0-.3-.1-.3-.3l.6-12.4c0-.1.2-.3.3-.3h.6c3.5,0,4.3,1.3,4.1,6.2Z"/>
        <path class="cls-1" d="M107.6,77.4h-16c-.1,0-.3.2-.3.3l-2.2,42.9c0,.1.1.3.3.3h16.5c.1,0,.3-.1.3-.3l.4-7.1c0-.1-.1-.3-.3-.3h-8.9c-.1,0-.3-.1-.3-.3l.6-11.2c0-.1.1-.3.3-.3h6.8c.1,0,.3-.1.3-.3l.4-7.1c0-.1-.1-.3-.2-.3h-6.8c-.1,0-.3-.2-.3-.3l.4-8.3c0-.1.2-.3.3-.3h8.3c.1,0,.3-.1.3-.3l.4-7.1c0-.1-.1-.3-.3-.3Z"/>
        <path class="cls-1" d="M128.1,77.7c0-.1-.1-.3-.3-.3h-8.8c-.1,0-.3.2-.3.3l-8.8,42.9c0,.2,0,.3.2.3h7.2c.2,0,.4-.1.4-.3l1.3-7.4h0c0-.1,1.3-9.1,1.3-9.1h0c0,0,0-.6,0-.6l2.2-13.2c0-.2.3-.2.3,0l.8,13v.8q0,0,0,0h0c0,0,.4,9.4.4,9.4l.5,7.1c0,.2.2.3.3.3h7.2c.1,0,.3-.1.3-.3l-4.3-42.9Z"/>
        <path class="cls-1" d="M155.8,77.4h-19.8c-.1,0-.3.2-.3.3l-.4,7.1c0,.2.1.3.3.3h5.8c.1,0,.3.1.3.3l-1.9,35.3c0,.1.1.3.3.3h7.2c.1,0,.3-.1.3-.3l1.9-35.3c0-.1.2-.3.3-.3h5.8c.1,0,.3-.1.3-.3l.4-7.1c0-.1-.1-.3-.3-.3Z"/>
        <path class="cls-1" d="M168.4,77.4h-7.2c-.1,0-.3.2-.3.3l-2.2,42.9c0,.1.1.3.3.3h7.2c.1,0,.3-.1.3-.3l2.2-42.9c0-.1-.1-.3-.3-.3Z"/>
        <path class="cls-1" d="M197.4,77.4h-7.4c-.1,0-.3.2-.3.3l-5.5,26.9c0,.2-.3.2-.3,0l-2.8-26.9c0-.1-.1-.3-.2-.3h-7.3c-.1,0-.3,0-.3.3l5.6,42.9c0,.1.1.2.3.2h8.1c.1,0,.3,0,.3-.2l10-42.9c0-.3,0-.3-.2-.3Z"/>
        <path class="cls-1" d="M217.6,77.4h-16c-.2,0-.3.2-.3.3l-2.3,42.9c0,.1.1.3.3.3h16.5c.1,0,.3-.1.3-.3l.4-7.1c0-.1-.1-.3-.3-.3h-8.9c-.1,0-.3-.1-.3-.3l.6-11.2c0-.1.1-.3.3-.3h6.7c.1,0,.3-.1.3-.3l.4-7.1c0-.1-.1-.3-.3-.3h-6.8c-.1,0-.3-.2-.2-.3l.4-8.3c0-.1.2-.3.3-.3h8.3c.1,0,.3-.1.3-.3l.4-7.1c0-.1-.1-.3-.3-.3Z"/>
      </g>
      <g>
        <path class="cls-1" d="M73.9,172.9l-3.9-15c0-.2-.2-.3-.3-.3h-.2c-.1,0-.3.1-.3.3l-.8,14.9-.3.3h-7.2c0-.1-.1-.2-.2-.3l2.2-42.9.3-.3h8.2c7.9,0,12,5.4,11.6,13.8-.3,5.2-2.1,9.1-5.6,11.6,0,.2-.1.4-.2.6l5.1,17.1c0,.2,0,.3-.2.3h-8c-.1,0-.3,0-.3-.2ZM69.8,150.3h.5c3.5,0,4.5-1.4,4.8-6.8.3-4.9-.6-6.2-4.1-6.2h-.6c-.1,0-.3.1-.3.3l-.7,12.4c0,.1.1.3.3.3Z"/>
        <path class="cls-1" d="M85.2,172.9l2.2-42.9.3-.3h16l.2.3-.4,7.1-.3.3h-8.3l-.3.3-.4,8.3.2.3h6.8l.3.3-.4,7.1-.3.3h-6.8l-.3.3-.6,11.2.2.3h8.9l.2.3-.4,7.1-.3.3h-16.5l-.2-.3Z"/>
        <path class="cls-1" d="M126.6,172.8c0,.2-.1.3-.3.3h-7.2c-.1,0-.3-.1-.3-.3l-.6-8.6c0,0-.2-.1-.2-.2h-4.3c-.1,0-.2.2-.3.3l-1.5,8.5c0,.2-.2.3-.4.3h-7.1c-.2,0-.3-.1-.2-.3l8.8-42.9c.1,0,.2-.2.3-.3h8.7c.1,0,.2.2.3.3l4.3,42.9Z"/>
        <path class="cls-1" d="M130.6,172.9l1.9-35.3c0-.1-.2-.2-.2-.3h-5.8l-.2-.3.4-7.1.3-.3h19.8l.2.3-.4,7.1-.3.3h-5.8l-.3.3-1.9,35.3-.3.3h-7.2l-.2-.3Z"/>
        <path class="cls-1" d="M185.2,172.9l-3.9-15c0-.2-.2-.3-.3-.3h-.2c-.1,0-.3.1-.3.3l-.8,14.9-.3.3h-7.2c0-.1-.1-.2-.2-.3l2.2-42.9.3-.3h8.2c7.9,0,12,5.4,11.6,13.8-.3,5.2-2.1,9.1-5.6,11.6,0,.2-.1.4-.2.6l5.1,17.1c0,.2,0,.3-.2.3h-8c-.1,0-.3,0-.3-.2ZM181.1,150.3h.5c3.5,0,4.5-1.4,4.8-6.8.3-4.9-.6-6.2-4.1-6.2h-.6c-.1,0-.3.1-.3.3l-.7,12.4c0,.1.1.3.3.3Z"/>
        <path class="cls-1" d="M196.4,172.9l2.2-42.9.3-.3h16l.2.3-.4,7.1-.3.3h-8.3l-.3.3-.4,8.3.2.3h6.8l.2.3-.4,7.1-.3.3h-6.8l-.3.3-.6,11.2.2.3h8.9l.2.3-.4,7.1-.3.3h-16.5l-.2-.3Z"/>
      </g>
      <path class="cls-1" d="M55.1,113.3c1.4,0,2.5-1.1,2.6-2.5l1.1-21.2c.2-3.7-1.1-7.1-3.6-9.8-2.5-2.6-5.8-4-9.5-4-7.1,0-13.6,6.5-14,13.9l-3.7,70.7c-.2,3.9,1,7.5,3.5,10.1,2.4,2.5,5.6,3.8,9.4,3.8,7.7,0,13.8-6,14.2-14.1l1.4-27.1c0-1-.7-1.8-1.7-1.8h-2.1c-3.2,0-5.9,2.5-6,5.7l-1.3,23.9c-.1,2.2-1.9,4-4,4s-2-.4-2.6-1.1c-.7-.7-1.1-1.8-1.1-2.9l3.8-71.7c.1-2.2,1.9-4,4-4s1.9.4,2.6,1.2c.8.8,1.2,1.9,1.1,2.9l-.9,16.8c-.2,3.9,2.9,7.2,6.8,7.2h0Z"/>
      <path class="cls-1" d="M147.7,163.5l1.8-33.5c0-.1.1-.3.3-.3h7.2c.1,0,.3.1.3.3l-1.7,33.3c0,1.4.8,2.9,2.7,2.9s2.8-1.6,2.8-2.8l1.8-33.4c0-.1.1-.3.3-.3h7.2c.1,0,.3.1.2.3l-1.7,33.3c-.3,6.6-5.1,10.6-10.9,10.6s-10.3-4.5-10-10.4Z"/>
    </g>
  </g>
</svg>