<?xml version="1.0" encoding="UTF-8"?>
<svg xmlns="http://www.w3.org/2000/svg" version="1.1" viewBox="0 0 42.6 42.6">
  <defs>
    <style>
      .cls-1 {
        fill: #0a0a0a;
      }
    </style>
  </defs>
  <!-- Generator: Adobe Illustrator 28.6.0, SVG Export Plug-In . SVG Version: 1.2.0 Build 709)  -->
  <g>
    <g id="Layer_1">
      <g>
        <g>
          <path class="cls-1" d="M19.5,21.8c0,.1,0,.2-.2.2s-.1,0-.2,0c-.1,0-.3,0-.4,0,0,0,0,0,0,0,0,0,0,0,0,0,0,0,0,0,0,0h0c-.5.1-1.1.5-1.5,1.2,0,0-.1.1-.2,0,0,0,0,0,0,0,0,0-.1,0,0-.2.2-2.5,1.4-2.8,1.5-2.8,0,0,0,0,.1,0,0,0,0,0,0,0,0,0,.1,0,.2,0,0,0,0,0,0,0,.3.1.7.5.9,1.5Z"/>
          <path class="cls-1" d="M18.3,20.2s0,0,0,0c0,0,0,0,0,0Z"/>
          <path class="cls-1" d="M18.5,20.3s0,0,0,0c0,0,0,0,0,0Z"/>
          <path class="cls-1" d="M18.6,20.3s0,0,0,0c0,0,0,0,0,0Z"/>
        </g>
        <path class="cls-1" d="M25.8,20.8c.4.3.8.4,1.2.4h0s0,0,0,0c.7,0,1.3-.5,1.4-1.2.2-1.2,0-2.9-1.1-4.1-.7-.8-1.7-1.3-2.9-1.4h-.2c-.9,0-1.8.2-2.5.6l-1.5-2c-.2-.2-.4-.2-.6-.2-.3,0-.4.3-.4.5l-.4,3.3-1.1-2.5h0c0-.3-.4-.8-1.1-.8s-.9,0-1.1,1.1c-.1.6-.3,1.4-.3,2.1-.7,4.1-1.3,7.9-1.3,8.9,0,.7.3,1.4.9,2,1.3,1.3,3.7,2.1,6.1,2.1s4.3-.7,6.2-1.9c.5-.3.9-1,1-1.7,0-1,0-2.3-.4-2.8-.2-.2-.5-.3-.8-.3s-.7,0-1,.6c0,0-.2.2-.2.3,0,0-.1,0-.2,0-.1,0-.3-.4-.2-1.7,0-.9.3-1.4.6-1.5ZM24.4,19.1h0c0,0,0,.2,0,.3,0,.5-.2,1.4-.8,2.3-.2.3-.5.6-.7.6s0,0-.1,0c-.4-.2-.7-.6-1.5-1.6,0,0-.1,0-.2,0,0,0-.2,0-.3.1-.3.4-.5,1.9-.3,3.2.2,1.2.7,2,1.3,2.3.3.2.6.2.8.2.3,0,.6,0,.8-.4.2-.3.3-.5.5-.7,0-.2.2-.3.3-.4h0c0-.2.2-.3.2-.3,0,0,0,0,.1.2,0,0,.1.2.2.4,0,.1.2.3.3.4.1.2.3.3.4.3s.3,0,.4-.2c.3-.4.5-.8.8-1.2,0,0,.1-.2.2-.4h0c0,0,.3.7.2,1.9,0,.3-.2.7-.5.8-1.8,1.1-3.7,1.8-5.6,1.8-3.4,0-5.9-1.8-5.9-3,0-.9.8-5.7,1.3-8.8.1-.8.3-1.6.3-2,0-.1,0-.1,0-.2,0,0,0,0,0,.2l2.1,4.9c0,0,0,0,.1,0s0,0,.2,0c.1-.1.3-.3.4-.6.8-1.3,2.1-3.4,4.6-3.4h.1c.9,0,1.6.4,2.2,1,.8.9,1,2.4.8,3.3,0,.2-.1.3-.3.3h0c-.3,0-.5-.2-1.1-.6-.2-.2-.5-.4-.9-.7-.1,0-.2-.1-.3-.1-.2,0-.3.2-.3.3Z"/>
      </g>
    </g>
  </g>
</svg>