<?xml version="1.0" encoding="UTF-8"?>
<svg xmlns="http://www.w3.org/2000/svg" version="1.1" viewBox="0 0 62.3 38">
  <defs>
    <style>
      .cls-1 {
        fill: #0a0a0a;
      }
    </style>
  </defs>
  <!-- Generator: Adobe Illustrator 28.7.5, SVG Export Plug-In . SVG Version: 1.2.0 Build 176)  -->
  <g>
    <g id="Layer_1">
      <path class="cls-1" d="M9.1,17.4l-1.6-9.1c0,0,0,0-.1,0l-1.1,9.1s0,.1-.1.1h-2.7s0,0,0-.1L5.5,0c0,0,0-.1.1-.1h2.9s0,0,0,0l1.5,9.3c0,0,0,0,.1,0L11.4,0c0,0,0-.1.1-.1h2.7c0,0,0,0,0,.1l-2.1,17.3s0,.1-.1.1h-2.8s0,0-.1-.1h0Z"/>
      <path class="cls-1" d="M21.8,0s0-.1,0-.1h-3.6c0,0-.1,0-.1.1l-4.8,17.3c0,0,0,.1,0,.1h2.9c0,0,.1,0,.2-.1l.6-2.3,1-4.4,1.3-5.5c0,0,.1,0,0,0v5.5s-.1,4.4-.1,4.4v2.3c0,0,0,.1.1.1h2.9c0,0,.1,0,.1-.1L21.8,0h0Z"/>
      <path class="cls-1" d="M8.9,20.3s0-.1,0-.1h-3.5s-.1,0-.1.1L.4,37.5c0,0,0,.1,0,.1h2.9c0,0,.1,0,.2-.1l.6-2.3,1-4.4,1.3-5.5c0,0,.1,0,0,0v5.5s-.1,4.4-.1,4.4v2.3c0,0,0,.1.1.1h2.9c0,0,.1,0,.1-.1,0,0-.5-17.3-.5-17.3Z"/>
      <path class="cls-1" d="M48.7,0s0-.1,0-.1h-3.6c0,0-.1,0-.1.1l-4.8,17.3c0,0,0,.1,0,.1h2.9c0,0,.1,0,.2-.1l.6-2.3,1-4.4,1.3-5.5c0,0,.1,0,0,0v5.5s-.1,4.4-.1,4.4v2.3c0,0,0,.1.1.1h2.9c0,0,.1,0,.1-.1L48.7,0h0Z"/>
      <path class="cls-1" d="M50.4,20.3s0-.1,0-.1h-3.6c0,0-.1,0-.1.1l-4.8,17.3c0,0,0,.1,0,.1h2.9c0,0,.1,0,.2-.1l.6-2.3,1-4.4,1.3-5.5c0,0,.1,0,0,0v5.5s-.1,4.4-.1,4.4v2.3c0,0,0,.1.1.1h2.9c0,0,.1,0,.1-.1l-.5-17.3h0Z"/>
      <path class="cls-1" d="M23.9,17.4l1.7-14.2c0,0,0-.1,0-.1h-2.3c0,0,0,0,0-.1l.3-2.9c0,0,0-.1.1-.1h8c0,0,0,0,0,.1l-.3,2.9c0,0,0,.1-.1.1h-2.3c0,0-.1,0-.1.1l-1.7,14.2s0,.1-.1.1h-2.9c0,0,0,0,0-.1Z"/>
      <path class="cls-1" d="M36,17.4l.9-7.6s0-.1,0-.1h-2.1c0,0-.1,0-.1.1l-.9,7.6s0,.1-.1.1h-2.9c0,0,0,0,0-.1L32.7,0c0,0,0-.1.1-.1h2.9c0,0,0,0,0,.1l-.8,6.4s0,.1,0,.1h2.1c0,0,.1,0,.1-.1l.8-6.4c0,0,0-.1.1-.1h2.9c0,0,0,0,0,.1l-2.1,17.3s0,.1-.1.1h-2.9c0,0,0,0,0-.1Z"/>
      <path class="cls-1" d="M56,17.4l-1.6-9.1c0,0,0,0-.1,0l-1.1,9.1s0,.1-.1.1h-2.7c0,0,0,0,0-.1L52.4,0c0,0,0-.1.1-.1h2.9c0,0,0,0,0,0l1.5,9.3c0,0,0,0,.1,0L58.2,0c0,0,0-.1.1-.1h2.7c0,0,0,0,0,.1l-2.1,17.3s0,.1-.1.1h-2.8c0,0,0,0-.1-.1h0Z"/>
      <path class="cls-1" d="M13.6,38c-2.2,0-3.3-1.6-3-4.5l1.2-9.6c.3-2.2,2.4-4.2,4.7-4.2s4,1.9,3.7,4.2l-.3,2.6s0,.1-.1.1h-2.9c0,0,0,0,0-.1l.3-2.5c0-.4-.2-1.2-1-1.2s-1.2.6-1.3,1.2l-1.2,9.6c0,.5.1,1.2,1,1.2s1.2-.7,1.3-1.2l.3-2.4s0-.1,0-.1h-1.2c0,0,0,0,0-.1l.3-2.7s0-.1.1-.1h4.3c0,0,0,0,0,.1l-1.1,9.1s0,.1-.1.1h-1.8c0,0,0,0-.1,0l-.2-1c0,0-.1,0-.2,0-.4.7-1.1,1.4-2.6,1.4h0Z"/>
      <path class="cls-1" d="M20.6,33.8l1.7-13.5s0-.1.1-.1h2.9c0,0,0,0,0,.1l-1.6,13.4c0,.6.2,1.2,1,1.2s1.2-.6,1.2-1.1l1.7-13.5s0-.1.1-.1h2.9c0,0,0,0,0,.1l-1.7,13.5c-.3,2.7-2.4,4.3-4.7,4.3s-4-1.8-3.7-4.2h0Z"/>
      <path class="cls-1" d="M30.2,37.6l2.1-17.3s0-.1.1-.1h2.9c0,0,0,0,0,.1l-2.1,17.3s0,.1-.1.1h-2.9c0,0,0,0,0-.1Z"/>
      <path class="cls-1" d="M34.9,37.6l2.1-17.3s0-.1.1-.1h2.9c0,0,0,0,0,.1l-1.7,14.3s0,.1,0,.1h3.2c0,0,0,0,0,.1l-.3,2.9s0,.1-.1.1h-6.3c0,0,0,0,0-.1Z"/>
      <path class="cls-1" d="M57.3,37.6l-1.1-6c0,0,0-.1-.1-.1h0c0,0-.1,0-.1.1l-.7,6s0,.1-.1.1h-2.9c0,0,0,0,0-.1l2.1-17.3s0-.1.1-.1h3.3c3.2,0,4.7,2.2,4.3,5.6-.3,2.1-1.1,3.7-2.6,4.7,0,0,0,.1,0,.2l1.6,6.9c0,0,0,.1,0,.1h-3.2c0,0,0,0,0,0h0ZM56.3,28.5h.2c1.4,0,1.9-.6,2.1-2.7.2-2,0-2.5-1.5-2.5h-.2c0,0-.1,0-.1.1l-.6,5s0,.1,0,.1h0Z"/>
    </g>
  </g>
</svg>