<?xml version="1.0" encoding="UTF-8"?>
<svg xmlns="http://www.w3.org/2000/svg" version="1.1" viewBox="0 0 62.3 38">
  <defs>
    <style>
      .cls-1 {
        fill: #171717;
      }
    </style>
  </defs>
  <!-- Generator: Adobe Illustrator 28.7.2, SVG Export Plug-In . SVG Version: 1.2.0 Build 154)  -->
  <g>
    <g id="Layer_1">
      <path class="cls-1" d="M8.6,17.4l-1.6-9.1h0l-1.1,9.1s0,.1,0,.1h-2.7C3,17.4,5.1.1,5.1.1,5.1.1,5.1,0,5.2,0h2.9l1.5,9.3h0L10.8,0s0-.1,0-.1h2.7C13.6,0,11.5,17.3,11.5,17.3c0,0,0,.1,0,.1h-2.9c0-.1,0,0,0,0Z"/>
      <path class="cls-1" d="M21.2,0h0c0-.1-3.6-.1-3.6-.1,0,0,0,0,0,.1l-4.8,17.3h0c0,.1,2.9.1,2.9.1,0,0,0,0,.2-.1l.6-2.3,1-4.4,1.3-5.5s0,0,0,0v9.9c0,0,0,2.3,0,2.3,0,0,0,.1,0,.1h2.9s0,0,0-.1L21.2,0h0Z"/>
      <path class="cls-1" d="M23.4,17.4l1.7-14.2h0c0-.1-2.3-.1-2.3-.1h0c0-.1.3-3,.3-3,0,0,0-.1,0-.1h8c0,.1-.3,3-.3,3,0,0,0,.1,0,.1h-2.3s0,0,0,.1l-1.7,14.2s0,.1,0,.1h-2.9c0-.1-.3-.1-.3-.1Z"/>
      <path class="cls-1" d="M35.5,17.4l.9-7.6h0c0-.1-2.1-.1-2.1-.1,0,0,0,0,0,.1l-.9,7.6s0,.1,0,.1h-2.9c0-.1,2.1-17.4,2.1-17.4C32.4.1,32.4,0,32.5,0h2.9c0,.1-.8,6.5-.8,6.5h0c0,.1,2.1.1,2.1.1,0,0,0,0,0-.1l.8-6.4S37.6,0,37.7,0h2.9c0,.1-2.1,17.4-2.1,17.4,0,0,0,.1,0,.1h-2.9Z"/>
      <path class="cls-1" d="M48.7,17.3s0,.1,0,.1h-2.9s0,0,0-.1v-3.4h0c0-.1-1.8-.1-1.8-.1,0,0,0,0,0,.1l-.8,3.4s0,.1-.2.1h-2.9C39.8,17.3,44.6,0,44.6,0c0,0,0-.1,0-.1h3.6c0,.1.5,17.4.5,17.4h0Z"/>
      <path class="cls-1" d="M55.4,17.4l-1.6-9.1h0l-1.1,9.1s0,.1,0,.1h-2.7c0-.1,2.1-17.4,2.1-17.4C51.9.1,51.9,0,52,0h2.9l1.5,9.3h0L57.6,0s0-.1,0-.1h2.7C60.4,0,58.3,17.3,58.3,17.3c0,0,0,.1,0,.1h-2.9c0-.1,0,0,0,0Z"/>
      <path class="cls-1" d="M5.8,37.5v-3.4h0c0,0-1.8,0-1.8,0,0,0,0,0,0,0l-.8,3.4s0,0-.2,0H0c0,0,4.8-17.4,4.8-17.4,0,0,0-.1,0-.1h3.5c0,.1.5,17.4.5,17.4,0,0,0,0,0,0h-2.9s0,0,0,0ZM4.5,30.8h0c0,0,1.2,0,1.2,0,0,0,0,0,0,0v-5.5h0l-1.3,5.5Z"/>
      <path class="cls-1" d="M13,38c-2.2,0-3.3-1.6-3-4.5l1.2-9.6c.3-2.2,2.4-4.2,4.7-4.2s4,1.9,3.7,4.2l-.3,2.6s0,0,0,0h-2.9c0,0,.3-2.6.3-2.6,0-.4-.2-1.2-1-1.2s-1.2.6-1.3,1.2l-1.2,9.6c0,.5,0,1.2,1,1.2s1.2-.7,1.3-1.2l.3-2.4h0c0,0-1.2,0-1.2,0h0c0,0,.3-2.8.3-2.8,0,0,0,0,0,0h4.3c0,0-1.1,9.2-1.1,9.2,0,0,0,0,0,0h-1.9l-.2-1h-.2c-.4.7-1.1,1.4-2.6,1.4h-.1Z"/>
      <path class="cls-1" d="M20.1,33.7l1.7-13.5s0-.1,0-.1h2.9c0,.1-1.6,13.5-1.6,13.5,0,.6.2,1.2,1,1.2s1.2-.6,1.2-1.1l1.7-13.5s0-.1,0-.1h2.9c0,.1-1.7,13.6-1.7,13.6-.3,2.7-2.4,4.3-4.7,4.3s-4-1.8-3.7-4.2h0Z"/>
      <path class="cls-1" d="M29.6,37.5l2.1-17.3s0-.1,0-.1h2.9c0,.1-2.1,17.4-2.1,17.4,0,0,0,0,0,0h-2.9Z"/>
      <path class="cls-1" d="M34.3,37.5l2.1-17.3s0-.1,0-.1h2.9c0,.1-1.7,14.4-1.7,14.4h0c0,0,3.2,0,3.2,0h0c0,0-.3,3-.3,3,0,0,0,0,0,0h-6.3c0,0,.1-.2.1-.2Z"/>
      <path class="cls-1" d="M47.2,37.5v-3.4h0c0,0-1.8,0-1.8,0,0,0,0,0,0,0l-.8,3.4s0,0-.2,0h-2.9c0,0,4.8-17.4,4.8-17.4,0,0,0-.1,0-.1h3.6c0,.1.5,17.4.5,17.4,0,0,0,0,0,0h-2.9s0,0,0,0h0ZM46,30.8h0c0,0,1.2,0,1.2,0,0,0,0,0,0,0v-5.5h0s-1.3,5.5-1.3,5.5Z"/>
      <path class="cls-1" d="M56.7,37.6l-1.1-6s0,0,0,0h0s0,0,0,0l-.7,6s0,0,0,0h-2.9c0,0,2.1-17.4,2.1-17.4,0,0,0-.1,0-.1h3.3c3.2,0,4.7,2.2,4.3,5.6-.3,2.1-1.1,3.7-2.6,4.7v.2l1.6,6.9h0c0,0-3.2,0-3.2,0h-.6ZM55.7,28.4h.2c1.4,0,1.9-.6,2.1-2.7.2-2,0-2.5-1.5-2.5h-.2s0,0,0,0l-.6,5h0c0,0,0,.1,0,.1Z"/>
    </g>
  </g>
</svg>