<?xml version="1.0" encoding="UTF-8"?>
<svg xmlns="http://www.w3.org/2000/svg" version="1.1" viewBox="0 0 114.2 53.6">
  <defs>
    <style>
      .cls-1, .cls-2 {
        fill: #d9d9d9;
      }

      .cls-2 {
        stroke: #d9d9d9;
        stroke-miterlimit: 10;
        stroke-width: .5px;
      }
    </style>
  </defs>
  <!-- Generator: Adobe Illustrator 28.7.5, SVG Export Plug-In . SVG Version: 1.2.0 Build 176)  -->
  <g>
    <g id="Layer_2">
      <path class="cls-1" d="M61.4,26.7l-1.6-9.1c0,0,0,0-.1,0l-1.1,9.1s0,.1-.1.1h-2.7s0,0,0-.1l2.1-17.3c0,0,0-.1.1-.1h2.9s0,0,0,0l1.5,9.3c0,0,0,0,.1,0l1.1-9.3c0,0,0-.1.1-.1h2.7c0,0,0,0,0,.1l-2.1,17.3s0,.1-.1.1h-2.8s0,0-.1-.1h0Z"/>
      <path class="cls-1" d="M74,9.4s0-.1,0-.1h-3.6c0,0-.1,0-.1.1l-4.8,17.3c0,0,0,.1,0,.1h2.9c0,0,.1,0,.2-.1l.6-2.3,1-4.4,1.3-5.5c0,0,.1,0,0,0v5.5s-.1,4.4-.1,4.4v2.3c0,0,0,.1.1.1h2.9c0,0,.1,0,.1-.1l-.5-17.3h0Z"/>
      <path class="cls-2" d="M61.2,29.6s0-.1,0-.1h-3.5s-.1,0-.1.1l-4.8,17.3c0,0,0,.1,0,.1h2.9c0,0,.1,0,.2-.1l.6-2.3,1-4.4,1.3-5.5c0,0,.1,0,0,0v5.5s-.1,4.4-.1,4.4v2.3c0,0,0,.1.1.1h2.9c0,0,.1,0,.1-.1,0,0-.5-17.3-.5-17.3Z"/>
      <path class="cls-1" d="M100.9,9.4s0-.1,0-.1h-3.6c0,0-.1,0-.1.1l-4.8,17.3c0,0,0,.1,0,.1h2.9c0,0,.1,0,.2-.1l.6-2.3,1-4.4,1.3-5.5c0,0,.1,0,0,0v5.5s-.1,4.4-.1,4.4v2.3c0,0,0,.1.1.1h2.9c0,0,.1,0,.1-.1l-.5-17.3h0Z"/>
      <path class="cls-1" d="M102.6,29.6s0-.1,0-.1h-3.6c0,0-.1,0-.1.1l-4.8,17.3c0,0,0,.1,0,.1h2.9c0,0,.1,0,.2-.1l.6-2.3,1-4.4,1.3-5.5c0,0,.1,0,0,0v5.5s-.1,4.4-.1,4.4v2.3c0,0,0,.1.1.1h2.9c0,0,.1,0,.1-.1l-.5-17.3h0Z"/>
      <path class="cls-1" d="M76.1,26.7l1.7-14.2c0,0,0-.1,0-.1h-2.3c0,0,0,0,0-.1l.3-2.9c0,0,0-.1.1-.1h8c0,0,0,0,0,.1l-.3,2.9c0,0,0,.1-.1.1h-2.3c0,0-.1,0-.1.1l-1.7,14.2s0,.1-.1.1h-2.9c0,0,0,0,0-.1Z"/>
      <path class="cls-1" d="M88.2,26.7l.9-7.6s0-.1,0-.1h-2.1c0,0-.1,0-.1.1l-.9,7.6s0,.1-.1.1h-2.9c0,0,0,0,0-.1l2.1-17.3c0,0,0-.1.1-.1h2.9c0,0,0,0,0,.1l-.8,6.4s0,.1,0,.1h2.1c0,0,.1,0,.1-.1l.8-6.4c0,0,0-.1.1-.1h2.9c0,0,0,0,0,.1l-2.1,17.3s0,.1-.1.1h-2.9c0,0,0,0,0-.1Z"/>
      <path class="cls-1" d="M108.2,26.7l-1.6-9.1c0,0,0,0-.1,0l-1.1,9.1s0,.1-.1.1h-2.7c0,0,0,0,0-.1l2.1-17.3c0,0,0-.1.1-.1h2.9c0,0,0,0,0,0l1.5,9.3c0,0,0,0,.1,0l1.1-9.3c0,0,0-.1.1-.1h2.7c0,0,0,0,0,.1l-2.1,17.3s0,.1-.1.1h-2.8c0,0,0,0-.1-.1h0Z"/>
      <path class="cls-1" d="M65.8,47.3c-2.2,0-3.3-1.6-3-4.5l1.2-9.6c.3-2.2,2.4-4.2,4.7-4.2s4,1.9,3.7,4.2l-.3,2.6s0,.1-.1.1h-2.9c0,0,0,0,0-.1l.3-2.5c0-.4-.2-1.2-1-1.2s-1.2.6-1.3,1.2l-1.2,9.6c0,.5.1,1.2,1,1.2s1.2-.7,1.3-1.2l.3-2.4s0-.1,0-.1h-1.2c0,0,0,0,0-.1l.3-2.7s0-.1.1-.1h4.3c0,0,0,0,0,.1l-1.1,9.1s0,.1-.1.1h-1.8c0,0,0,0-.1,0l-.2-1c0,0-.1,0-.2,0-.4.7-1.1,1.4-2.6,1.4h0Z"/>
      <path class="cls-1" d="M72.8,43.1l1.7-13.5s0-.1.1-.1h2.9c0,0,0,0,0,.1l-1.6,13.4c0,.6.2,1.2,1,1.2s1.2-.6,1.2-1.1l1.7-13.5s0-.1.1-.1h2.9c0,0,0,0,0,.1l-1.7,13.5c-.3,2.7-2.4,4.3-4.7,4.3s-4-1.8-3.7-4.2h0Z"/>
      <path class="cls-1" d="M82.4,46.9l2.1-17.3s0-.1.1-.1h2.9c0,0,0,0,0,.1l-2.1,17.3s0,.1-.1.1h-2.9c0,0,0,0,0-.1Z"/>
      <path class="cls-1" d="M87.1,46.9l2.1-17.3s0-.1.1-.1h2.9c0,0,0,0,0,.1l-1.7,14.3s0,.1,0,.1h3.2c0,0,0,0,0,.1l-.3,2.9s0,.1-.1.1h-6.3c0,0,0,0,0-.1Z"/>
      <path class="cls-1" d="M109.5,46.9l-1.1-6c0,0,0-.1-.1-.1h0c0,0-.1,0-.1.1l-.7,6s0,.1-.1.1h-2.9c0,0,0,0,0-.1l2.1-17.3s0-.1.1-.1h3.3c3.2,0,4.7,2.2,4.3,5.6-.3,2.1-1.1,3.7-2.6,4.7,0,0,0,.1,0,.2l1.6,6.9c0,0,0,.1,0,.1h-3.2c0,0,0,0,0,0h0ZM108.5,37.8h.2c1.4,0,1.9-.6,2.1-2.7.2-2,0-2.5-1.5-2.5h-.2c0,0-.1,0-.1.1l-.6,5s0,.1,0,.1h0Z"/>
      <path class="cls-2" d="M17.8,28.1c0,.4-.3.6-.6.5-.2,0-.4-.1-.6-.2-.4,0-.9-.1-1.4-.1,0,0-.2,0-.2,0,0,0-.2,0-.2,0,0,0-.2,0-.2,0h0c-1.5.3-3.4,1.6-4.7,3.9-.1.2-.4.3-.6.3,0,0,0,0,0,0-.2,0-.3-.3-.3-.5.8-8.1,4.6-8.9,4.7-9,.1,0,.2,0,.3,0h.2c.2,0,.4,0,.8.2,0,0,0,0,.1,0,1,.4,2.4,1.6,2.9,4.7h0Z"/>
      <path class="cls-2" d="M14,23.2c0,0,.2,0,.2,0,0,0-.2,0-.2,0Z"/>
      <path class="cls-2" d="M14.5,23.2c0,0-.2,0-.2,0,0,0,.2,0,.2,0Z"/>
      <path class="cls-2" d="M14.8,23.3c0,0-.2,0-.3,0,0,0,.2,0,.3,0Z"/>
      <path class="cls-2" d="M37.8,24.7c1.2.9,2.4,1.5,3.8,1.5h0c2,0,3.8-1.6,4.1-3.7.5-3.7-.3-9.2-3.5-13-2.3-2.7-5.5-4.2-9.2-4.3h-.5c-3,0-5.6.8-7.9,2L20,.6c-.9-1.2-2.6-.6-2.8.9l-1.4,11.4-3.8-8.8h0c0,0,0-.1,0-.1-.3-.6-1.2-2.3-3.2-2.3s-2.9.2-3.4,3.5c-.2,1.6-.7,4-1.1,6.8C2.1,25.1.2,37.2.1,40.2c0,6.8,10.4,12.9,22,12.9s13.7-2.1,19.7-6.1c1.7-1.2,2.8-3.1,3-5.2.2-3.1.2-7.1-1.3-8.7-.6-.7-1.5-1-2.4-1s-2.1.2-3,1.9c-.3.5-.5.9-.7,1.2-.5.2-2.4.5-1.8-5.6.4-4.1,1.5-5,2.2-5h0ZM25,42c.9.5,1.7.8,2.5.8s1.6-.3,2.4-1.2c1.2-1.2,1.6-2.4,2.6-3.7.4-.5.7-.8,1-.8s.4.2.7.6c.3.4.8,1.4,1.5,2.6.3.5.7.7,1.1.7s.7-.2,1-.5c1.4-1.7,1.7-2.7,3-4.9.1-.2.2-.3.3-.3.6,0,1,3.2.7,6.5,0,1.1-.7,2.2-1.6,2.8-6.1,4-12.4,5.6-18,5.6-10.8,0-19.1-5.6-19.1-9.9,0-3.9,4.1-27.6,5.2-34.6,0-.5.2-.8.4-.8s.3.1.5.6l6.7,15.6c0,.1.1.1.2.1s.2,0,.3-.2c2.2-3,6.5-12.8,16.1-12.8h.4c8.7.3,10.5,9.6,9.9,14,0,.5-.5,1-1.1,1s-.4,0,0,0c-1.5,0-2.7-1.5-6.4-4.1-.4-.3-.7-.4-1-.4-.6,0-.7.6-.8,1-.3,1.7-.5,4.8-2.7,8.4-.8,1.3-1.7,1.9-2.5,1.9s-.4,0-.5-.1c-1.3-.6-2.4-1.9-4.9-5.2-.1-.2-.3-.3-.4-.3-.2,0-.4.2-.6.4-2,2.1-1.8,14.7,3.1,17.2h0Z"/>
    </g>
  </g>
</svg>