<?xml version="1.0" encoding="UTF-8"?><svg id="Layer_1" xmlns="http://www.w3.org/2000/svg" viewBox="0 0 114.21 53.58"><defs><style>.cls-1,.cls-2{fill:#0a0a0a;}.cls-2{stroke:#0a0a0a;stroke-miterlimit:10;stroke-width:.49px;}</style></defs><path class="cls-1" d="M61.48,26.95l-1.57-9.06c0-.08-.1-.08-.11,0l-1.11,9.06c0,.05-.07.11-.12.11h-2.73c-.05,0-.1-.05-.09-.11l2.12-17.33c0-.05.07-.11.12-.11h2.86c.05,0,.07.05.07.08l1.54,9.3c0,.08.1.08.11,0l1.13-9.27c0-.05.07-.11.12-.11h2.73c.05,0,.1.05.09.11l-2.12,17.33c0,.05-.07.11-.12.11h-2.81c-.05,0-.1-.03-.12-.11Z"/><path class="cls-1" d="M74.11,9.62s-.04-.1-.09-.1h-3.55c-.05,0-.11.05-.12.1l-4.76,17.3c-.01.08,0,.13.09.13h2.88c.06,0,.14-.05.15-.13l.56-2.29.97-4.38,1.32-5.54c.01-.08.11-.08.1,0l-.04,5.54-.1,4.38v2.29c-.01.08.06.13.12.13h2.88c.06,0,.12-.05.13-.13l-.54-17.3Z"/><path class="cls-1" d="M61.28,29.79s-.04-.1-.09-.1h-3.55c-.05,0-.11.05-.12.1l-4.76,17.3c-.01.08,0,.13.09.13h2.88c.06,0,.14-.05.15-.13l.56-2.29.97-4.38,1.32-5.54c.01-.08.11-.08.1,0l-.04,5.54-.1,4.38v2.29c-.01.08.06.13.12.13h2.88c.06,0,.12-.05.13-.13l-.54-17.3Z"/><path class="cls-1" d="M101.01,9.62s-.04-.1-.09-.1h-3.55c-.05,0-.11.05-.12.1l-4.76,17.3c-.01.08,0,.13.09.13h2.88c.06,0,.14-.05.15-.13l.56-2.29.97-4.38,1.32-5.54c.01-.08.11-.08.1,0l-.04,5.54-.1,4.38v2.29c-.01.08.06.13.12.13h2.88c.06,0,.12-.05.13-.13l-.54-17.3Z"/><path class="cls-1" d="M102.73,29.79s-.04-.1-.09-.1h-3.55c-.05,0-.11.05-.12.1l-4.76,17.3c-.01.08,0,.13.09.13h2.88c.06,0,.14-.05.15-.13l.56-2.29.97-4.38,1.32-5.54c.01-.08.11-.08.1,0l-.04,5.54-.1,4.38v2.29c-.01.08.06.13.12.13h2.88c.06,0,.12-.05.13-.13l-.54-17.3Z"/><path class="cls-1" d="M76.26,26.95l1.74-14.25c0-.05-.04-.11-.09-.11h-2.33c-.05,0-.1-.05-.09-.11l.35-2.86c0-.05.07-.11.12-.11h7.97c.05,0,.1.05.09.11l-.35,2.86c0,.05-.07.11-.12.11h-2.33c-.05,0-.11.05-.12.11l-1.74,14.25c0,.05-.07.11-.12.11h-2.89c-.05,0-.1-.05-.09-.11Z"/><path class="cls-1" d="M88.36,26.95l.93-7.6c0-.05-.04-.11-.09-.11h-2.09c-.05,0-.11.05-.12.11l-.93,7.6c0,.05-.07.11-.12.11h-2.89c-.05,0-.1-.05-.09-.11l2.12-17.33c0-.05.07-.11.12-.11h2.89c.05,0,.1.05.09.11l-.79,6.44c0,.05.04.11.09.11h2.09c.05,0,.11-.05.12-.11l.79-6.44c0-.05.07-.11.12-.11h2.86c.05,0,.1.05.09.11l-2.12,17.33c0,.05-.07.11-.12.11h-2.86c-.05,0-.1-.05-.09-.11Z"/><path class="cls-1" d="M108.33,26.95l-1.57-9.06c0-.08-.1-.08-.11,0l-1.11,9.06c0,.05-.07.11-.12.11h-2.73c-.05,0-.1-.05-.09-.11l2.12-17.33c0-.05.07-.11.12-.11h2.86c.05,0,.07.05.07.08l1.54,9.3c0,.08.1.08.11,0l1.13-9.27c0-.05.07-.11.12-.11h2.73c.05,0,.1.05.09.11l-2.12,17.33c0,.05-.07.11-.12.11h-2.81c-.05,0-.1-.03-.12-.11Z"/><path class="cls-1" d="M65.95,47.57c-2.2,0-3.32-1.64-2.98-4.45l1.17-9.56c.28-2.25,2.37-4.19,4.72-4.19,2.78,0,3.98,1.91,3.7,4.16l-.32,2.62c0,.05-.07.11-.12.11h-2.89c-.05,0-.1-.05-.09-.11l.3-2.46c.05-.42-.15-1.17-.97-1.17s-1.22.64-1.28,1.17l-1.17,9.56c-.06.48.12,1.17.97,1.17.79,0,1.22-.69,1.28-1.17l.29-2.36c0-.05-.04-.11-.09-.11h-1.17c-.05,0-.1-.05-.09-.11l.33-2.68c0-.05.07-.11.12-.11h4.26c.05,0,.1.05.09.11l-1.12,9.11c0,.05-.07.11-.12.11h-1.77c-.05,0-.1-.03-.12-.08l-.2-.95c-.02-.08-.12-.08-.16,0-.43.69-1.07,1.38-2.58,1.38Z"/><path class="cls-1" d="M72.96,43.33l1.66-13.54c0-.05.07-.11.12-.11h2.89c.05,0,.1.05.09.11l-1.64,13.43c-.07.58.23,1.17,1,1.17s1.16-.64,1.22-1.11l1.65-13.48c0-.05.07-.11.12-.11h2.89c.05,0,.1.05.09.11l-1.65,13.46c-.32,2.65-2.38,4.29-4.71,4.29s-4.01-1.83-3.72-4.21Z"/><path class="cls-1" d="M82.5,47.12l2.12-17.33c0-.05.07-.11.12-.11h2.89c.05,0,.1.05.09.11l-2.12,17.33c0,.05-.07.11-.12.11h-2.89c-.05,0-.1-.05-.09-.11Z"/><path class="cls-1" d="M87.19,47.12l2.12-17.33c0-.05.07-.11.12-.11h2.89c.05,0,.1.05.09.11l-1.74,14.25c0,.05.04.11.09.11h3.18c.05,0,.1.05.09.11l-.35,2.86c0,.05-.07.11-.12.11h-6.28c-.05,0-.1-.05-.09-.11Z"/><path class="cls-1" d="M109.62,47.15l-1.14-6.04c-.02-.08-.07-.11-.12-.11h-.08c-.05,0-.11.05-.12.11l-.74,6.01c0,.05-.07.11-.12.11h-2.89c-.05,0-.1-.05-.09-.11l2.12-17.33c0-.05.07-.11.12-.11h3.31c3.21,0,4.68,2.2,4.27,5.56-.26,2.12-1.14,3.71-2.64,4.71-.06.05-.07.13-.05.21l1.59,6.91c.02.08-.04.13-.1.13h-3.23c-.05,0-.1-.03-.1-.08ZM108.59,38.01h.21c1.43,0,1.87-.58,2.13-2.73.24-1.99-.07-2.49-1.47-2.49h-.24c-.05,0-.11.05-.12.11l-.61,5.01c0,.05.04.11.09.11Z"/><path class="cls-1" d="M17.93,28.33c.06.35-.27.65-.61.54-.18-.06-.39-.12-.63-.16-.4-.08-.87-.14-1.38-.11-.08,0-.16,0-.25.01-.08,0-.17.01-.25.03-.08,0-.16.02-.24.05h-.02c-1.52.32-3.36,1.62-4.68,3.89-.14.23-.38.35-.61.31-.02,0-.04,0-.06-.01-.21-.06-.33-.26-.31-.49.76-8.09,4.56-8.94,4.72-8.98.11-.01.23-.03.33-.03,0,0,.07,0,.19,0,.17.02.44.06.76.18.04.01.08.03.12.05.99.41,2.38,1.56,2.91,4.7Z"/><path class="cls-1" d="M14.15,23.39c.07,0,.16.02.25.04-.08-.02-.17-.03-.25-.04Z"/><path class="cls-1" d="M14.64,23.48c-.09-.02-.17-.04-.24-.06.08.01.16.03.24.06Z"/><path class="cls-1" d="M14.9,23.57c-.09-.04-.18-.06-.27-.09.08.02.17.05.27.09Z"/><path class="cls-2" d="M37.94,24.92c1.25.91,2.4,1.49,3.85,1.51h.03s.04,0,.04,0c2.05,0,3.83-1.57,4.14-3.66.55-3.74-.31-9.23-3.49-13.04-2.29-2.73-5.47-4.24-9.22-4.34-.17,0-.33,0-.5,0-3.05,0-5.65.79-7.85,1.99L20.08.86c-.86-1.17-2.64-.56-2.76.94l-1.39,11.39-3.78-8.81-.04-.07-.03-.07c-.28-.58-1.16-2.34-3.2-2.34-.67,0-2.88.25-3.38,3.45-.25,1.57-.65,3.99-1.11,6.82C2.23,25.34.29,37.41.25,40.41c-.08,6.75,10.43,12.92,22.03,12.92,6.89,0,13.69-2.1,19.68-6.07,1.73-1.15,2.85-3.08,3-5.16.22-3.06.15-7.06-1.35-8.68-.63-.67-1.46-1.04-2.36-1.04-.59,0-2.06.19-3.02,1.88-.26.45-.49.86-.69,1.25-.48.18-2.44.54-1.83-5.59.42-4.11,1.47-4.97,2.23-5.01ZM25.16,42.19c.92.48,1.73.78,2.49.78.83,0,1.62-.35,2.43-1.2,1.19-1.25,1.62-2.44,2.58-3.68.39-.5.67-.84.97-.84.21,0,.41.18.66.59.27.43.8,1.38,1.51,2.6.27.46.67.7,1.08.7.36,0,.73-.18,1.03-.54,1.39-1.68,1.74-2.71,2.96-4.87.12-.22.23-.31.34-.31.62,0,.99,3.18.74,6.54-.08,1.13-.67,2.18-1.62,2.81-6.07,4.03-12.36,5.56-17.98,5.56-10.75,0-19.11-5.57-19.06-9.92.05-3.89,4.12-27.6,5.23-34.62.08-.53.16-.77.37-.77.13,0,.26.14.49.62l6.69,15.56c.06.1.15.15.25.15s.22-.06.29-.16c2.21-2.95,6.51-12.75,16.14-12.75h.41c8.66.26,10.5,9.59,9.86,13.98-.08.55-.53,1.02-1.09,1.02t-.02,0c-1.46-.02-2.68-1.48-6.42-4.15-.42-.3-.74-.42-.99-.42-.56,0-.74.61-.8.98-.3,1.72-.46,4.84-2.66,8.38-.81,1.3-1.7,1.92-2.46,1.92-.19,0-.36-.04-.53-.12-1.28-.61-2.41-1.87-4.9-5.2-.14-.19-.28-.27-.42-.27-.2,0-.4.16-.62.41-1.95,2.11-1.8,14.71,3.06,17.24Z"/></svg>