<?xml version="1.0" standalone="no"?>
<!DOCTYPE svg PUBLIC "-//W3C//DTD SVG 1.1//EN" "http://www.w3.org/Graphics/SVG/1.1/DTD/svg11.dtd" >
<svg xmlns="http://www.w3.org/2000/svg" xmlns:xlink="http://www.w3.org/1999/xlink" version="1.1">
<metadata>
Created by FontForge 20201107 at Sun May 12 23:41:59 2024
 By 
Copyright (c) 2024 by Zelow Type.
</metadata>
<defs>
<font id="ZTTalk-SemiBold" horiz-adv-x="484" >
  <font-face 
    font-family="ZT Talk SemBd"
    font-weight="600"
    font-stretch="normal"
    units-per-em="1000"
    panose-1="0 0 0 0 0 0 0 0 0 0"
    ascent="800"
    descent="-200"
    x-height="510"
    cap-height="700"
    bbox="-37 -277 1247 1118"
    underline-thickness="50"
    underline-position="-125"
    unicode-range="U+000D-FB05"
  />
<missing-glyph horiz-adv-x="515" 
d="M57 0v700h401v-700h-401zM127 57h261v586h-261v-586z" />
    <glyph glyph-name="f_f" unicode="ff" horiz-adv-x="668" 
d="M195 511h133v-84h-132v-427h-113v427h-68v84h68v35q0 43 10.5 81t32.5 66.5t56 45.5t80 17q37 0 66 -8v-92q-10 4 -22.5 6.5t-29.5 2.5q-23 0 -38.5 -9t-25 -25t-13.5 -37t-4 -44v-39zM503 511h133v-84h-132v-427h-113v427h-68v84h68v35q0 43 10.5 81t32.5 66.5t56 45.5
t80 17q37 0 66 -8v-92q-10 4 -22.5 6.5t-29.5 2.5q-23 0 -38.5 -9t-25 -25t-13.5 -37t-4 -44v-39z" />
    <glyph glyph-name="fi" unicode="fi" horiz-adv-x="571" 
d="M195 511h133v-84h-132v-427h-113v427h-68v84h68v35q0 43 10.5 81t32.5 66.5t56 45.5t80 17q37 0 66 -8v-92q-10 4 -22.5 6.5t-29.5 2.5q-23 0 -38.5 -9t-25 -25t-13.5 -37t-4 -44v-39zM402 511h113v-511h-113v511zM397 696h123v-103h-123v103z" />
    <glyph glyph-name="fl" unicode="fl" horiz-adv-x="560" 
d="M195 511h133v-84h-132v-427h-113v427h-68v84h68v35q0 43 10.5 81t32.5 66.5t56 45.5t80 17q37 0 66 -8v-92q-10 4 -22.5 6.5t-29.5 2.5q-23 0 -38.5 -9t-25 -25t-13.5 -37t-4 -44v-39zM396 744h113v-744h-113v744z" />
    <glyph glyph-name="f_f_i" unicode="ffi" horiz-adv-x="879" 
d="M195 511h133v-84h-132v-427h-113v427h-68v84h68v35q0 43 10.5 81t32.5 66.5t56 45.5t80 17q37 0 66 -8v-92q-10 4 -22.5 6.5t-29.5 2.5q-23 0 -38.5 -9t-25 -25t-13.5 -37t-4 -44v-39zM503 511h133v-84h-132v-427h-113v427h-68v84h68v35q0 43 10.5 81t32.5 66.5t56 45.5
t80 17q37 0 66 -8v-92q-10 4 -22.5 6.5t-29.5 2.5q-23 0 -38.5 -9t-25 -25t-13.5 -37t-4 -44v-39zM711 511h113v-511h-113v511zM706 696h123v-103h-123v103z" />
    <glyph glyph-name="f_f_l" unicode="ffl" horiz-adv-x="868" 
d="M195 511h133v-84h-132v-427h-113v427h-68v84h68v35q0 43 10.5 81t32.5 66.5t56 45.5t80 17q37 0 66 -8v-92q-10 4 -22.5 6.5t-29.5 2.5q-23 0 -38.5 -9t-25 -25t-13.5 -37t-4 -44v-39zM503 511h133v-84h-132v-427h-113v427h-68v84h68v35q0 43 10.5 81t32.5 66.5t56 45.5
t80 17q37 0 66 -8v-92q-10 4 -22.5 6.5t-29.5 2.5q-23 0 -38.5 -9t-25 -25t-13.5 -37t-4 -44v-39zM704 744h113v-744h-113v744z" />
    <glyph glyph-name="longs_t" unicode="&#x17f;t" horiz-adv-x="602" 
d="M226 665q-23 0 -38.5 -9t-25 -25t-13.5 -37t-4 -44l1 -550h-113v546q0 44 10.5 82t32 66.5t55.5 45t81 16.5q37 0 66 -8v-92q-10 4 -22.5 6.5t-29.5 2.5zM517 81q13 0 25.5 2t21.5 5v-88q-14 -5 -35.5 -8.5t-47.5 -3.5q-42 0 -69 13.5t-42.5 37.5t-21.5 56t-6 69v263h-70
v84h70v119h112v-119h113v-84h-113v-256q0 -47 15.5 -68.5t47.5 -21.5z" />
    <glyph glyph-name=".notdef" horiz-adv-x="515" 
d="M57 0v700h401v-700h-401zM127 57h261v586h-261v-586z" />
    <glyph glyph-name=".null" horiz-adv-x="0" 
 />
    <glyph glyph-name=".null" horiz-adv-x="0" 
 />
    <glyph glyph-name="uni000D" unicode="&#xd;" horiz-adv-x="600" 
 />
    <glyph glyph-name="space" unicode=" " horiz-adv-x="272" 
 />
    <glyph glyph-name="exclam" unicode="!" horiz-adv-x="252" 
d="M76 700h101v-492h-101v492zM76 121h101v-121h-101v121z" />
    <glyph glyph-name="quotedbl" unicode="&#x22;" horiz-adv-x="342" 
d="M50 755h84v-253h-84v253zM208 755h83v-253h-83v253z" />
    <glyph glyph-name="numbersign" unicode="#" horiz-adv-x="505" 
d="M215 422l-18 -139h95l17 139h-94zM348 700h70l-28 -207h80v-71h-90l-18 -139h83v-71h-94l-28 -212h-71l28 212h-94l-28 -212h-71l29 212h-80v71h91l18 139h-84v71h94l28 207h70l-28 -207h95z" />
    <glyph glyph-name="dollar" unicode="$" horiz-adv-x="526" 
d="M494 186q0 -39 -12.5 -72.5t-37.5 -59t-61 -42t-83 -20.5v-62h-76v64q-89 12 -137.5 68t-51.5 147h110q3 -60 37 -92.5t88 -32.5q50 0 80 24.5t30 71.5q0 25 -9 43.5t-26.5 34t-43 28t-59.5 25.5q-95 31 -147 81t-52 130q0 81 50 128t132 55v65h75v-67q44 -6 77 -24.5
t55.5 -46.5t34 -63t11.5 -75h-109q-2 49 -29.5 84t-82.5 35q-53 0 -77 -25.5t-24 -58.5q0 -45 36 -73.5t96 -51.5q55 -21 94 -42.5t64 -47t36.5 -56.5t11.5 -72z" />
    <glyph glyph-name="percent" unicode="%" horiz-adv-x="799" 
d="M549 199q0 -65 16.5 -104t49.5 -39t49 39t16 104q0 64 -16 103.5t-49 39.5q-34 0 -50 -39.5t-16 -103.5zM766 199q0 -46 -9.5 -84t-28.5 -65.5t-47 -42.5t-66 -15q-37 0 -65.5 15t-47.5 42.5t-28.5 65.5t-9.5 84t9.5 84t28.5 65.5t47.5 42.5t65.5 15q38 0 66 -15
t47 -42.5t28.5 -65.5t9.5 -84zM119 501q0 -64 16 -103.5t49 -39.5q34 0 50 39.5t16 103.5t-16 104t-50 40q-33 0 -49 -40t-16 -104zM335 501q0 -46 -9.5 -84t-28.5 -65.5t-47 -42.5t-66 -15q-37 0 -65.5 15t-47.5 42.5t-28.5 65.5t-9.5 84t9.5 84.5t28.5 66t47.5 42.5
t65.5 15q38 0 66 -15t47 -42.5t28.5 -66t9.5 -84.5zM175 0l383 700h66l-383 -700h-66z" />
    <glyph glyph-name="ampersand" unicode="&#x26;" horiz-adv-x="654" 
d="M263 76q29 0 56 12.5t49 38.5q-40 48 -82.5 101.5t-75.5 98.5q-24 -18 -46 -48t-22 -75q0 -26 8.5 -49.5t24.5 -41t38 -27.5t50 -10zM278 634q-34 0 -52 -27t-18 -63q0 -33 12 -60.5t34 -54.5q44 28 67.5 56.5t23.5 66.5q0 15 -3.5 29.5t-12 26t-21 19t-30.5 7.5z
M285 709q33 0 61.5 -10.5t50 -30t33.5 -48t12 -63.5q0 -54 -31.5 -98t-107.5 -87v-4q9 -12 24.5 -32t33 -42.5t36.5 -46t36 -43.5q57 92 103 238h99q-22 -70 -54 -150t-86 -159q14 -16 29.5 -34.5t31 -36.5t29.5 -34t25 -28h-131q-11 11 -25.5 26.5t-31.5 35.5
q-36 -38 -79.5 -54t-94.5 -16q-52 0 -92 16.5t-67 43.5t-40.5 62t-13.5 73q0 67 34 116t91 84l1 3q-26 32 -40.5 69.5t-14.5 75.5q0 33 11.5 64t34.5 55.5t56.5 39.5t76.5 15z" />
    <glyph glyph-name="quotesingle" unicode="'" horiz-adv-x="185" 
d="M50 755h84v-253h-84v253z" />
    <glyph glyph-name="parenleft" unicode="(" horiz-adv-x="335" 
d="M254 759q-25 -37 -46 -81t-37 -96.5t-25 -113.5t-9 -132q0 -139 34 -242.5t83 -177.5h-84q-22 31 -44.5 72t-40.5 93t-29 116t-11 140q0 77 11.5 140.5t29 116t40 93.5t44.5 72h84z" />
    <glyph glyph-name="parenright" unicode=")" horiz-adv-x="335" 
d="M80 -72q49 75 83 178t34 243q0 141 -33.5 245t-83.5 177h84q23 -31 45 -72t40 -93t29 -116t11 -141q0 -76 -11.5 -140t-29 -116t-39.5 -93t-45 -72h-84z" />
    <glyph glyph-name="asterisk" unicode="*" horiz-adv-x="471" 
d="M361 695l-95 -123l1 -3l142 22v-76l-142 21l-1 -3l96 -118l-70 -40l-58 142h-3l-61 -144l-63 40l94 124l-1 2l-140 -24v76l139 -21l1 3l-93 120l67 38l59 -138h3l57 140z" />
    <glyph glyph-name="plus" unicode="+" horiz-adv-x="657" 
d="M368 565v-237h229v-76h-229v-239h-78v239h-229v76h229v237h78z" />
    <glyph glyph-name="comma" unicode="," horiz-adv-x="245" 
d="M209 134l-109 -258h-70l66 258h113z" />
    <glyph glyph-name="hyphen" unicode="-" horiz-adv-x="363" 
d="M60 328h242v-76h-242v76z" />
    <glyph glyph-name="period" unicode="." horiz-adv-x="222" 
d="M50 133h121v-133h-121v133z" />
    <glyph glyph-name="slash" unicode="/" horiz-adv-x="421" 
d="M390 710l-280 -750h-80l279 750h81z" />
    <glyph glyph-name="zero" unicode="0" horiz-adv-x="504" 
d="M251 78q52 0 81 67.5t28 192.5q1 125 -28 192t-81 67q-51 0 -80 -67t-28 -192q-1 -125 28 -192.5t80 -67.5zM251 688q56 0 97.5 -25t69 -71t41.5 -110.5t14 -143.5t-14 -143.5t-41.5 -110.5t-69 -71t-97.5 -25q-55 0 -96.5 25t-69 71t-41.5 110.5t-14 143.5t14 143.5
t41.5 110.5t69 71t96.5 25z" />
    <glyph glyph-name="one" unicode="1" horiz-adv-x="423" 
d="M291 96h107v-96h-332v96h115v389h-141v96h65q30 0 47 5.5t25.5 16.5t10.5 29t2 43h101v-579z" />
    <glyph glyph-name="two" unicode="2" horiz-adv-x="480" 
d="M35 0v71l72 76q51 52 92 97t69.5 86.5t44 80.5t15.5 78q0 21 -5 40.5t-16.5 34t-28.5 23.5t-41 9q-42 0 -66 -32.5t-24 -83.5h-107q0 44 12.5 81.5t37.5 65.5t62 44t86 16q52 0 90 -15.5t63 -41.5t37 -61.5t12 -75.5q0 -45 -15 -88.5t-41.5 -86t-62.5 -84t-77 -83.5
l-53 -53v-2h259v-96h-415z" />
    <glyph glyph-name="three" unicode="3" horiz-adv-x="475" 
d="M39 495q0 41 12.5 76.5t37 61t61 40t84.5 14.5q90 0 138.5 -45t48.5 -118q0 -60 -34.5 -100.5t-82.5 -57.5v-3q26 -6 51.5 -18.5t45 -34t31.5 -52t12 -72.5q0 -41 -13.5 -77.5t-40 -63.5t-65.5 -42.5t-91 -15.5q-54 0 -93.5 18t-65 47t-38 66.5t-12.5 76.5h105
q0 -51 28 -83.5t75 -32.5q41 0 69 27t28 86q0 64 -43 95t-109 31h-28v84h24q27 0 51.5 7.5t43.5 21.5t30 34.5t11 46.5q0 39 -20 61t-61 22q-45 0 -66.5 -28.5t-21.5 -71.5h-102z" />
    <glyph glyph-name="four" unicode="4" horiz-adv-x="520" 
d="M306 263v186q0 29 1.5 58t3.5 58l-4 1q-16 -33 -29 -58.5t-28 -53.5l-118 -189v-2h174zM306 0v175h-281v75l259 425h127v-412h83v-88h-83v-175h-105z" />
    <glyph glyph-name="five" unicode="5" horiz-adv-x="490" 
d="M157 347q19 41 52.5 62.5t78.5 21.5q79 0 123 -54.5t44 -151.5q0 -117 -58 -177.5t-156 -60.5q-46 0 -83 15t-63 41.5t-40.5 63.5t-14.5 80h103q2 -54 30 -82t66 -28q52 0 78 38.5t26 107.5q0 70 -25.5 107t-72.5 37q-38 0 -59 -20.5t-29 -47.5h-105v372h360v-95h-255
v-229z" />
    <glyph glyph-name="six" unicode="6" horiz-adv-x="512" 
d="M363 227q-1 66 -29.5 104.5t-76.5 38.5q-25 0 -45.5 -11.5t-35.5 -29.5t-23.5 -41.5t-8.5 -47.5q0 -72 29 -119t85 -47q48 0 76.5 40.5t28.5 112.5zM415 596q-64 0 -114.5 -20.5t-85.5 -58t-54 -90t-21 -116.5q15 60 57.5 96.5t105.5 36.5q35 0 66.5 -14t55.5 -41.5
t38 -67.5t14 -92q0 -48 -14.5 -91.5t-42.5 -77t-68.5 -53t-91.5 -19.5q-55 0 -98 21.5t-72.5 59.5t-44.5 90.5t-15 115.5q0 87 26.5 162.5t76 131t120.5 87t161 31.5z" />
    <glyph glyph-name="seven" unicode="7" horiz-adv-x="463" 
d="M437 675v-75l-264 -600h-116l260 577v2h-292v96h412z" />
    <glyph glyph-name="eight" unicode="8" horiz-adv-x="501" 
d="M160 510q0 -45 28.5 -71.5t73.5 -42.5q34 14 56.5 42.5t22.5 66.5q0 20 -5 38t-16 31.5t-28 22t-41 8.5q-44 0 -67.5 -28t-23.5 -67zM357 176q0 55 -33 86.5t-84 49.5q-46 -17 -71 -50.5t-25 -77.5q0 -24 7 -45t20.5 -36.5t34 -25t45.5 -9.5q48 0 77 30t29 78zM30 170
q0 65 33.5 109.5t87.5 71.5v2q-51 27 -74.5 67t-23.5 84q0 41 16 74t43.5 56.5t64.5 36.5t80 13q48 0 83.5 -14t59.5 -37.5t36 -53.5t12 -62q0 -42 -23 -83.5t-77 -70.5v-3q54 -25 88 -68.5t34 -106.5q0 -44 -16.5 -80.5t-46 -62.5t-70.5 -40t-90 -14q-52 0 -92.5 15
t-68.5 40.5t-42 58t-14 68.5z" />
    <glyph glyph-name="nine" unicode="9" horiz-adv-x="512" 
d="M149 448q0 -66 29 -104.5t77 -38.5q25 0 45.5 11t35.5 28.5t23.5 40.5t8.5 47q0 37 -7.5 68t-22 53.5t-35.5 35t-49 12.5q-48 0 -76.5 -40.5t-28.5 -112.5zM97 79q64 0 114 21t85 58.5t54.5 90t21.5 115.5q-14 -56 -55.5 -94.5t-103.5 -39.5q-36 0 -68 14t-56.5 41.5
t-39 68t-14.5 92.5q0 48 14.5 91.5t42.5 77t68 53t91 19.5q56 0 99 -21.5t72 -59.5t44.5 -90.5t15.5 -115.5q0 -90 -26 -165.5t-75 -130t-120.5 -85.5t-163.5 -31v91z" />
    <glyph glyph-name="colon" unicode=":" horiz-adv-x="222" 
d="M50 133h121v-133h-121v133zM50 509h121v-133h-121v133z" />
    <glyph glyph-name="semicolon" unicode=";" horiz-adv-x="257" 
d="M209 146l-109 -258h-70l66 258h113zM90 510h122v-133h-122v133z" />
    <glyph glyph-name="less" unicode="&#x3c;" horiz-adv-x="600" 
d="M544 541l-393 -190v-2l393 -189v-86l-489 243v66l489 243v-85z" />
    <glyph glyph-name="equal" unicode="=" horiz-adv-x="657" 
d="M60 489h536v-74h-536v74zM60 285h536v-74h-536v74z" />
    <glyph glyph-name="greater" unicode="&#x3e;" horiz-adv-x="600" 
d="M544 387v-74l-489 -239v86l403 189v2l-403 190v85z" />
    <glyph glyph-name="question" unicode="?" horiz-adv-x="485" 
d="M245 708q51 0 87.5 -13t60.5 -34.5t35 -49.5t11 -58q0 -28 -8.5 -52t-22 -46t-30.5 -42t-33 -40q-15 -19 -25 -37t-16 -37.5t-8.5 -43t-2.5 -54.5h-101q0 60 12.5 109t47.5 96q14 19 27.5 35.5t23.5 32t16 32t6 35.5q0 38 -24 56.5t-61 18.5q-41 0 -67 -28.5t-26 -80.5
h-102q0 50 15.5 87.5t42.5 63t63.5 38t78.5 12.5zM293 0h-100v121h100v-121z" />
    <glyph glyph-name="at" unicode="@" horiz-adv-x="728" 
d="M322 133q18 0 34.5 10t30.5 27t24 39.5t14 46.5l22 120q-7 2 -16 3.5t-22 1.5q-30 0 -55.5 -14.5t-44.5 -39.5t-30 -57.5t-11 -67.5q0 -32 14 -50.5t40 -18.5zM506 62q-21 0 -38.5 8t-29 25t-15.5 44t2 65q-22 -63 -55 -100t-80 -37q-44 0 -73 34t-29 94q0 47 16.5 91.5
t47.5 79.5t75 56.5t98 21.5q29 0 57.5 -6t46.5 -15l-35 -195q-20 -100 27 -100q19 0 36.5 13t31 38t22 60t8.5 80q0 53 -15 96t-43.5 73t-69.5 46.5t-94 16.5q-56 0 -108 -23t-91.5 -66t-63.5 -105t-24 -141q0 -61 17 -109t48.5 -81.5t76 -51.5t98.5 -18q83 0 146 34l17 -55
q-42 -22 -84.5 -31t-92.5 -9q-63 0 -117 21.5t-93.5 62.5t-62.5 99.5t-23 132.5q0 80 26 153t74 128t115.5 87.5t149.5 32.5q64 0 116 -21.5t89 -59.5t57 -90t20 -113q0 -63 -14 -112.5t-38.5 -83.5t-57.5 -52t-71 -18z" />
    <glyph glyph-name="A" unicode="A" horiz-adv-x="586" 
d="M373 286l-49 175q-9 34 -17 71t-16 69h-2q-8 -33 -16 -70.5t-16 -69.5l-49 -175h165zM190 199l-55 -199h-115l204 700h139l203 -700h-118l-58 199h-200z" />
    <glyph glyph-name="B" unicode="B" horiz-adv-x="518" 
d="M157 84h66q30 0 57 6.5t46.5 20.5t31 37t11.5 56q0 32 -11.5 55t-32 38t-47.5 22.5t-58 7.5h-63v-243zM157 410h67q59 0 92.5 29.5t33.5 77.5q0 51 -32.5 75t-93.5 24h-67v-206zM45 700h169q63 0 108 -8t79 -34q29 -21 45.5 -53.5t16.5 -74.5q0 -49 -28.5 -90.5
t-84.5 -61.5v-3q28 -7 53 -22t43.5 -37t29.5 -50.5t11 -64.5q0 -45 -16 -80t-44 -61q-35 -33 -93 -46.5t-145 -13.5h-144v700z" />
    <glyph glyph-name="C" unicode="C" horiz-adv-x="639" 
d="M594 278q-14 -139 -85 -214.5t-189 -75.5q-66 0 -119 26.5t-90 73.5t-56.5 113.5t-19.5 145.5q0 82 20.5 149.5t58 115.5t91.5 74.5t120 26.5q61 0 108.5 -20.5t81.5 -58t54 -90.5t26 -118h-117q-4 41 -15.5 76.5t-31 61.5t-46.5 41t-62 15q-42 0 -73.5 -21.5t-53 -58.5
t-32 -86.5t-10.5 -105.5q0 -55 11 -103.5t32.5 -85t53 -57.5t72.5 -21q66 0 105.5 53t49.5 144h116z" />
    <glyph glyph-name="D" unicode="D" horiz-adv-x="603" 
d="M158 86h61q107 0 169.5 66.5t62.5 211.5q1 120 -54.5 185t-165.5 65h-73v-528zM45 700h174q86 0 146.5 -16t102.5 -53q48 -41 75 -105.5t27 -159.5q0 -100 -27.5 -169.5t-73.5 -113.5q-47 -45 -117 -64t-160 -19h-147v700z" />
    <glyph glyph-name="E" unicode="E" horiz-adv-x="456" 
d="M406 700v-95h-248v-194h234v-93h-234v-223h262v-95h-375v700h361z" />
    <glyph glyph-name="F" unicode="F" horiz-adv-x="435" 
d="M404 700v-95h-246v-208h229v-93h-229v-304h-113v700h359z" />
    <glyph glyph-name="G" unicode="G" horiz-adv-x="641" 
d="M326 281v80l269 1v-362h-113v189q-9 -39 -25.5 -75.5t-40.5 -64.5t-55.5 -44.5t-71.5 -16.5q-57 0 -104 25.5t-80.5 72t-51.5 113t-18 148.5q0 80 20 147.5t57.5 116t91.5 75.5t121 27q61 0 108.5 -20.5t81 -58t53.5 -90t26 -117.5h-116q-4 41 -15.5 76.5t-31 61.5
t-46.5 40.5t-62 14.5q-42 0 -74 -21.5t-53 -58.5t-31.5 -86.5t-10.5 -105.5q0 -55 10.5 -103.5t31.5 -85t52.5 -57.5t72.5 -21q32 0 59 16t48 43t34.5 63.5t18.5 77.5h-155z" />
    <glyph glyph-name="H" unicode="H" horiz-adv-x="580" 
d="M534 700v-700h-113v314h-263v-314h-113v700h113v-286h263v286h113z" />
    <glyph glyph-name="I" unicode="I" horiz-adv-x="239" 
d="M62 700h113v-700h-113v700z" />
    <glyph glyph-name="J" unicode="J" horiz-adv-x="530" 
d="M379 700h113v-429q0 -76 -16.5 -129.5t-47 -87.5t-73.5 -50t-95 -16t-94 15.5t-71.5 47.5t-45.5 81.5t-16 118.5v22h113v-21q0 -47 9 -79t24.5 -52t36.5 -28.5t45 -8.5q26 0 47.5 8.5t37.5 27.5t24.5 50.5t8.5 77.5v452z" />
    <glyph glyph-name="K" unicode="K" horiz-adv-x="554" 
d="M512 700l-260 -353l273 -347h-133l-235 298v-298h-112v700h112v-321l230 321h125z" />
    <glyph glyph-name="L" unicode="L" horiz-adv-x="458" 
d="M158 700v-605h269v-95h-382v700h113z" />
    <glyph glyph-name="M" unicode="M" horiz-adv-x="758" 
d="M594 287q-3 67 -6 142t-2 141h-3q-16 -62 -34.5 -127.5t-38.5 -128.5l-98 -307h-83l-90 301q-20 66 -36.5 132.5t-29.5 129.5h-2q-2 -66 -5 -141.5t-7 -146.5l-15 -282h-104l46 700h140l89 -295q19 -65 34.5 -124t27.5 -118h3q13 57 28.5 117t35.5 125l92 295h140
l41 -700h-109z" />
    <glyph glyph-name="N" unicode="N" horiz-adv-x="583" 
d="M45 0v700h121l168 -312q30 -56 58 -115.5t50 -115.5l3 1q-6 71 -8.5 143t-2.5 157v242h103v-700h-113l-169 316q-29 55 -58.5 115.5t-52.5 119.5h-3q5 -67 6.5 -139.5t1.5 -166.5v-245h-104z" />
    <glyph glyph-name="O" unicode="O" horiz-adv-x="642" 
d="M321 81q41 0 72.5 21t53 57.5t32.5 85.5t11 106q0 54 -10.5 103t-31.5 85.5t-53 58.5t-74 22t-73.5 -21.5t-53 -58.5t-32 -86.5t-10.5 -105.5q0 -55 11 -103.5t32.5 -85t53 -57.5t72.5 -21zM323 713q68 0 121 -26.5t89.5 -74t56 -113.5t19.5 -145q0 -84 -21 -151.5
t-59 -115t-91.5 -73.5t-119.5 -26t-119 26.5t-90 73.5t-56.5 113.5t-19.5 145.5q0 82 20.5 149.5t58 115.5t91.5 74.5t120 26.5z" />
    <glyph glyph-name="P" unicode="P" horiz-adv-x="508" 
d="M157 360q11 -3 25 -4t31 -1q69 0 107.5 36t38.5 101q0 57 -34.5 90t-100.5 33h-67v-255zM45 700h172q64 0 112 -12t80 -41q29 -26 46 -64.5t17 -86.5q0 -57 -20 -100.5t-54.5 -72t-81.5 -43t-102 -14.5q-15 0 -30.5 0.5t-26.5 3.5v-270h-112v700z" />
    <glyph glyph-name="Q" unicode="Q" horiz-adv-x="647" 
d="M154 348q0 -51 10 -97t29 -82t48 -59t66 -27l37 57l52 -31l8 1q45 30 66.5 94t21.5 147q0 54 -10.5 102.5t-31.5 85t-53 58.5t-74 22t-73.5 -21.5t-53 -58t-32 -86t-10.5 -105.5zM489 60l113 -67l-53 -79l-145 86q-39 -12 -84 -12q-66 0 -119 26.5t-90 73.5t-56.5 113
t-19.5 145q0 82 20.5 149.5t58 116t91.5 75t120 26.5q68 0 121 -26.5t89.5 -74t56 -113.5t19.5 -146q0 -95 -33 -171t-89 -116v-6z" />
    <glyph glyph-name="R" unicode="R" horiz-adv-x="527" 
d="M157 377h64q62 0 98 34t36 89q0 58 -34 86.5t-96 28.5h-68v-238zM45 700h169q50 0 96 -7.5t81 -28t56 -57.5t21 -96q0 -67 -35 -112t-87 -65v-2q38 -14 61 -49.5t35 -92.5q15 -67 28 -118.5t23 -71.5h-117q-8 15 -19 59t-24 108q-13 70 -40 97.5t-80 28.5h-56v-293h-112
v700z" />
    <glyph glyph-name="S" unicode="S" horiz-adv-x="530" 
d="M288 407q55 -21 94.5 -43t65 -48t37.5 -58t12 -73q0 -42 -14.5 -78.5t-43 -62.5t-71 -41t-97.5 -15q-113 0 -173 59t-63 161h111q2 -59 36 -92.5t90 -33.5q50 0 80 24t30 72q0 50 -35 80t-103 55q-97 31 -149 80.5t-52 132.5q0 45 16 80t44.5 59t68 36t86.5 12
q56 0 97.5 -17t69.5 -46t42 -68t15 -83h-111q-1 24 -8 46t-21 38t-34.5 25.5t-47.5 9.5q-53 0 -77.5 -24.5t-24.5 -58.5q0 -48 35 -76t95 -52z" />
    <glyph glyph-name="T" unicode="T" horiz-adv-x="526" 
d="M498 700v-98h-179v-602h-113v602h-178v98h470z" />
    <glyph glyph-name="U" unicode="U" horiz-adv-x="562" 
d="M153 700v-431q0 -50 9.5 -85.5t26.5 -58t40 -33t51 -10.5q58 0 93 43t35 144v431h113v-422q0 -77 -17.5 -132t-49 -90t-76.5 -51.5t-100 -16.5t-99 16.5t-75 51t-47.5 89.5t-16.5 131v424h113z" />
    <glyph glyph-name="V" unicode="V" horiz-adv-x="576" 
d="M218 0l-205 700h124l86 -323q17 -64 33 -128.5t28 -128.5h3q11 63 27.5 128t34.5 129l91 323h121l-217 -700h-126z" />
    <glyph glyph-name="W" unicode="W" horiz-adv-x="836" 
d="M177 0l-158 700h119l64 -323q12 -64 23 -126.5t19 -118.5h2q8 58 21 119t28 128l73 321h111l68 -323q12 -62 23 -121.5t19 -122.5h2q9 63 20 123t24 123l68 321h114l-171 -700h-118l-70 324q-13 59 -22.5 113.5t-16.5 112.5h-2q-8 -58 -19 -112.5t-26 -114.5l-77 -323
h-118z" />
    <glyph glyph-name="X" unicode="X" horiz-adv-x="544" 
d="M400 0l-71 146q-20 38 -34.5 68t-28.5 62h-2q-12 -32 -25.5 -62.5t-31.5 -68.5l-66 -145h-125l186 355l-179 345h126l72 -149q14 -31 26.5 -58.5t25.5 -57.5h2q13 33 24.5 59.5t25.5 56.5l69 149h125l-182 -342l190 -358h-127z" />
    <glyph glyph-name="Y" unicode="Y" horiz-adv-x="546" 
d="M212 0v288l-199 412h127l77 -179q16 -38 29.5 -72t27.5 -72h2q12 36 26 71t31 74l76 178h125l-209 -409v-291h-113z" />
    <glyph glyph-name="Z" unicode="Z" horiz-adv-x="547" 
d="M497 700v-71l-316 -530v-4h319v-95h-465v64l321 538v3h-293v95h434z" />
    <glyph glyph-name="bracketleft" unicode="[" horiz-adv-x="305" 
d="M224 771v-69h-103v-705h103v-69h-189v843h189z" />
    <glyph glyph-name="backslash" unicode="\" horiz-adv-x="405" 
d="M110 710l264 -750h-80l-264 750h80z" />
    <glyph glyph-name="bracketright" unicode="]" horiz-adv-x="305" 
d="M270 771v-843h-189v69h104v705h-104v69h189z" />
    <glyph glyph-name="asciicircum" unicode="^" horiz-adv-x="530" 
d="M312 700l158 -354h-90l-115 272l-115 -272h-89l157 354h94z" />
    <glyph glyph-name="underscore" unicode="_" horiz-adv-x="584" 
d="M35 -35h512v-74h-512v74z" />
    <glyph glyph-name="grave" unicode="`" horiz-adv-x="188" 
d="M116 728l46 -175h-65l-72 175h91z" />
    <glyph glyph-name="a" unicode="a" horiz-adv-x="477" 
d="M326 255q-31 0 -63.5 -3.5t-58.5 -14.5t-42.5 -31.5t-16.5 -53.5q0 -42 22 -62t53 -20q24 0 43.5 10.5t33.5 27.5t21.5 38t7.5 41v68zM326 0v126q-5 -27 -16.5 -52t-29.5 -44t-43 -30.5t-57 -11.5q-37 0 -64.5 12.5t-46 33.5t-27.5 48.5t-9 57.5q0 50 21 86t59.5 59
t92 34t118.5 11v16q0 17 -4.5 34t-15 30.5t-28 22t-43.5 8.5q-40 0 -64.5 -23.5t-24.5 -70.5h-97q0 82 50 129.5t144 47.5q57 0 94.5 -16t60 -43t32 -63t9.5 -76v-207q0 -32 1.5 -63t5.5 -56h-118z" />
    <glyph glyph-name="b" unicode="b" horiz-adv-x="519" 
d="M267 431q-23 0 -43 -13.5t-35 -35t-23.5 -49.5t-8.5 -57v-37q0 -30 8.5 -58.5t23.5 -51t34.5 -36.5t40.5 -14q55 0 85 49.5t30 129.5q0 35 -7 66.5t-21 55t-35 37.5t-49 14zM313 523q42 0 75.5 -19t56.5 -53.5t35.5 -82t12.5 -105.5q0 -69 -15 -120.5t-40 -86t-58 -52
t-70 -17.5q-30 0 -54.5 13t-44 36t-33 55t-20.5 70v-161h-118q2 26 3 63.5t1 74.5v605h113l1 -393q16 86 57 129.5t98 43.5z" />
    <glyph glyph-name="c" unicode="c" 
d="M458 197q-10 -94 -63 -151.5t-146 -57.5q-50 0 -91 18.5t-70.5 53t-46 84t-16.5 111.5q0 61 15 110.5t44 85t71 54.5t95 19q91 0 144.5 -54.5t63.5 -154.5h-109q-7 53 -31 87t-69 34q-28 0 -48.5 -15.5t-33.5 -40.5t-19.5 -57.5t-6.5 -66.5q0 -36 7 -69t20.5 -57.5
t34 -39t47.5 -14.5q45 0 69 33.5t30 87.5h109z" />
    <glyph glyph-name="d" unicode="d" horiz-adv-x="520" 
d="M252 431q-28 0 -49 -14t-34.5 -37.5t-20.5 -55t-7 -66.5q0 -80 29.5 -129.5t84.5 -49.5q21 0 40.5 14t34.5 36.5t23.5 51t8.5 58.5v37q0 29 -8.5 57t-23.5 49.5t-35 35t-43 13.5zM206 523q57 0 98 -43.5t58 -129.5v393h113v-605q0 -37 1 -74.5t3 -63.5h-117v161
q-7 -38 -20.5 -70t-33 -55t-44.5 -36t-55 -13q-38 0 -71.5 17.5t-58 52t-39 86t-14.5 120.5q0 58 12.5 105.5t36.5 82t57.5 53.5t73.5 19z" />
    <glyph glyph-name="e" unicode="e" 
d="M249 436q-45 0 -70.5 -36t-33.5 -87h204q-1 24 -8 46t-20 39.5t-31 27.5t-41 10zM458 308q1 -16 0 -32t-3 -28h-314q1 -24 6.5 -53.5t17.5 -56t32.5 -44.5t50.5 -18q42 0 65.5 29.5t31.5 73.5h108q-14 -86 -65 -138.5t-139 -52.5q-50 0 -91.5 18.5t-71 53t-45.5 84
t-16 111.5q0 61 15 110.5t44 85t71 54.5t95 19q47 0 84.5 -16t64 -44.5t41.5 -68t18 -87.5z" />
    <glyph glyph-name="f" unicode="f" horiz-adv-x="360" 
d="M195 511h133v-84h-132v-427h-113v427h-68v84h68v35q0 43 10.5 81t32.5 66.5t56 45.5t80 17q37 0 66 -8v-92q-10 4 -22.5 6.5t-29.5 2.5q-23 0 -38.5 -9t-25 -25t-13.5 -37t-4 -44v-39z" />
    <glyph glyph-name="g" unicode="g" horiz-adv-x="522" 
d="M363 291q0 20 -6.5 45t-19.5 46.5t-32.5 36t-45.5 14.5q-50 0 -80 -46.5t-30 -123.5q0 -36 7.5 -66.5t22 -52t35 -34t46.5 -12.5q22 0 41 13t32.5 34t21.5 48t8 56v42zM364 511h117q-2 -28 -3.5 -62t-1.5 -85l1 -323q0 -60 -12.5 -108.5t-39.5 -82t-68.5 -52
t-100.5 -18.5q-92 0 -144.5 54t-55.5 145h101q2 -51 29.5 -82t69.5 -31q55 0 82 37t27 118l-1 154q-12 -75 -50.5 -119t-92.5 -44q-40 0 -74 17.5t-59 49t-39 76t-14 98.5q0 65 14.5 115t40 84.5t60.5 52.5t75 18q33 0 57 -14t40.5 -37t26.5 -52.5t15 -61.5v153z" />
    <glyph glyph-name="h" unicode="h" horiz-adv-x="487" 
d="M299 523q31 0 59 -11.5t49.5 -37t34 -65t12.5 -96.5v-313h-114v302q0 26 -4.5 49t-14.5 40t-26.5 27t-41.5 10q-24 0 -42.5 -11.5t-31.5 -31t-19.5 -44t-6.5 -51.5v-290h-113v744h113v-387q6 39 19.5 70t33 52t43.5 32.5t50 11.5z" />
    <glyph glyph-name="i" unicode="i" horiz-adv-x="224" 
d="M55 511h113v-511h-113v511zM50 696h123v-103h-123v103z" />
    <glyph glyph-name="j" unicode="j" horiz-adv-x="230" 
d="M60 593v103h122v-103h-122zM-37 -126q25 0 44 4.5t31.5 19t19 40.5t6.5 68v505h114v-511q0 -61 -14 -103t-41.5 -68t-67.5 -37.5t-92 -11.5v94z" />
    <glyph glyph-name="k" unicode="k" horiz-adv-x="475" 
d="M153 744v-452l169 219h126l-200 -256l211 -255h-135l-171 207v-207h-113v744h113z" />
    <glyph glyph-name="l" unicode="l" horiz-adv-x="214" 
d="M50 744h113v-744h-113v744z" />
    <glyph glyph-name="m" unicode="m" horiz-adv-x="762" 
d="M44 367q0 43 -1 77t-3 67h116v-151q5 30 15.5 59t28 52t43 37.5t59.5 14.5q35 0 60.5 -14.5t42 -38.5t25.5 -54.5t11 -61.5q10 76 48.5 122.5t93.5 46.5q31 0 58 -11.5t46.5 -36.5t30.5 -65t11 -96v-314h-111v296q0 60 -18.5 96.5t-63.5 36.5q-19 0 -36.5 -10.5
t-30 -29.5t-20 -44.5t-7.5 -55.5v-289h-111v311q0 49 -18.5 83.5t-62.5 34.5q-20 0 -37 -11t-30 -30t-20 -44t-7 -53v-291h-112v367z" />
    <glyph glyph-name="n" unicode="n" horiz-adv-x="493" 
d="M305 523q30 0 58 -11t49.5 -35.5t34 -63.5t12.5 -95v-318h-113v303q0 26 -4.5 49t-15 40t-27.5 27t-41 10q-25 0 -44 -12t-31.5 -31.5t-18.5 -44.5t-6 -50v-291h-114v371q0 37 -1 75.5t-3 64.5h118v-153q5 31 16 60.5t29 53t43.5 37.5t58.5 14z" />
    <glyph glyph-name="o" unicode="o" horiz-adv-x="506" 
d="M253 436q-30 0 -51.5 -16t-35 -41.5t-19.5 -58t-6 -65.5q0 -36 7 -68t21.5 -57t35 -39.5t47.5 -14.5t48 15t35 40t21.5 57.5t7.5 68.5q0 32 -5.5 63.5t-18.5 57.5t-34.5 42t-52.5 16zM254 524q51 0 92.5 -18t71.5 -52.5t46 -83.5t16 -111q0 -65 -17 -115.5t-47 -85
t-72.5 -52.5t-93.5 -18q-49 0 -90.5 18t-71.5 52.5t-46.5 83.5t-16.5 112t16 113t46 85t72.5 53.5t94.5 18.5z" />
    <glyph glyph-name="p" unicode="p" horiz-adv-x="520" 
d="M266 432q-22 0 -41.5 -14t-34.5 -37t-23.5 -51.5t-8.5 -58.5v-35q0 -28 8.5 -56t23 -50.5t35 -36t44.5 -13.5q27 0 47.5 13.5t35 37t21.5 55t7 67.5q0 38 -7.5 71t-21.5 57t-35.5 37.5t-49.5 13.5zM313 524q37 0 70 -17t57.5 -51.5t39 -85t14.5 -118.5
q0 -60 -13.5 -108.5t-37.5 -83t-57 -53.5t-72 -19q-60 0 -99.5 45t-55.5 128l-1 -384h-113v592q0 38 -1 75.5t-3 66.5h118v-162q15 78 54 126.5t100 48.5z" />
    <glyph glyph-name="q" unicode="q" horiz-adv-x="519" 
d="M253 432q-28 0 -49 -13.5t-35.5 -37.5t-22 -57t-7.5 -71q0 -36 7.5 -67.5t21.5 -55t35 -37t48 -13.5q24 0 44 13.5t34.5 36t23 50.5t8.5 56v35q0 30 -8.5 58.5t-23.5 51.5t-34.5 37t-41.5 14zM206 524q63 0 101.5 -48.5t53.5 -126.5v162h117q-2 -29 -3 -66.5t-1 -75.5
v-592h-113v384q-16 -83 -56 -128t-100 -45q-38 0 -71 19t-57 53.5t-38 83t-14 108.5q0 68 15 118.5t40 85t58 51.5t68 17z" />
    <glyph glyph-name="r" unicode="r" horiz-adv-x="332" 
d="M277 523q8 0 14 -0.5t11 -1.5v-110h-35q-26 0 -46.5 -13t-34.5 -35t-21 -49.5t-7 -56.5v-257h-114v356q0 45 -1 83t-3 72h117v-180q4 38 13.5 72.5t25 61t36 42.5t45.5 16z" />
    <glyph glyph-name="s" unicode="s" horiz-adv-x="421" 
d="M208 524q38 0 70.5 -10.5t56.5 -30.5t37.5 -50.5t14.5 -70.5h-100q-2 36 -22.5 56t-54.5 20q-35 0 -50.5 -16.5t-15.5 -39.5q0 -28 26 -45t71 -34q35 -12 64 -26.5t49 -33.5t31 -44t11 -57q0 -38 -14 -66.5t-38.5 -48t-57.5 -29.5t-71 -10q-41 0 -75.5 11t-59.5 32
t-39.5 52.5t-15.5 71.5h101q3 -39 26 -61t63 -22q33 0 53 17.5t20 46.5q0 34 -31 53.5t-79 38.5q-67 24 -104 59.5t-37 94.5q0 66 47 104t124 38z" />
    <glyph glyph-name="t" unicode="t" horiz-adv-x="343" 
d="M258 81q13 0 25.5 2t21.5 5v-88q-14 -5 -35.5 -8.5t-47.5 -3.5q-42 0 -69 13.5t-42.5 37.5t-21.5 56t-6 69v263h-70v84h70v119h112v-119h113v-84h-113v-256q0 -47 15.5 -68.5t47.5 -21.5z" />
    <glyph glyph-name="u" unicode="u" horiz-adv-x="493" 
d="M448 139q0 -36 1.5 -74.5t2.5 -64.5h-117v153q-5 -31 -16.5 -61t-29.5 -53.5t-43 -37.5t-58 -14q-30 0 -58 11t-49.5 35.5t-34.5 63.5t-13 95v318h114v-303q0 -26 4.5 -48.5t14.5 -39.5t27 -27t41 -10q25 0 44 12t31.5 31.5t19 44.5t6.5 50v290h113v-371z" />
    <glyph glyph-name="v" unicode="v" horiz-adv-x="473" 
d="M129 511l77 -266q10 -32 17.5 -64.5t14.5 -65.5h3q6 33 14 64.5t17 65.5l76 266h117l-176 -511h-109l-172 511h121z" />
    <glyph glyph-name="w" unicode="w" horiz-adv-x="716" 
d="M125 511l52 -239q9 -42 17 -82.5t14 -80.5h3q8 40 18 81.5t20 80.5l66 240h91l63 -235q11 -44 20.5 -85t17.5 -82h2q6 40 14 81t18 86l55 235h112l-151 -511h-102l-61 219q-11 39 -19.5 77.5t-16.5 84.5h-2q-8 -47 -17 -86t-20 -77l-65 -218h-103l-143 511h117z" />
    <glyph glyph-name="x" unicode="x" horiz-adv-x="469" 
d="M144 511l56 -101q11 -21 21.5 -41.5t20.5 -41.5h2q11 23 21 43.5t21 40.5l53 100h122l-155 -248l157 -263h-127l-59 106q-11 21 -21 41.5t-21 43.5h-3q-10 -23 -20.5 -43t-21.5 -42l-55 -106h-122l158 259l-153 252h126z" />
    <glyph glyph-name="y" unicode="y" horiz-adv-x="473" 
d="M133 511l85 -281q8 -25 14.5 -51t11.5 -48h3q5 21 11.5 47.5t13.5 51.5l74 281h119l-118 -353q-42 -121 -77.5 -196.5t-80.5 -119.5q-35 -34 -67.5 -49.5t-52.5 -19.5l-30 96q17 6 36.5 16.5t38.5 27.5q8 7 20 20t23 28.5t19 31t8 26.5q0 5 -1 10t-4 13l-170 469h124z
" />
    <glyph glyph-name="z" unicode="z" horiz-adv-x="443" 
d="M28 67l184 268q17 22 32.5 42t30.5 40v2h-228v92h363v-72l-181 -262q-16 -22 -31.5 -43t-31.5 -40v-2h248v-92h-386v67z" />
    <glyph glyph-name="braceleft" unicode="{" horiz-adv-x="348" 
d="M250 703q-38 0 -54 -21.5t-16 -59.5q0 -37 6.5 -77.5t6.5 -75.5q0 -55 -21 -81.5t-59 -36.5v-3q38 -10 59 -36.5t21 -81.5q0 -35 -6.5 -75.5t-6.5 -77.5t16 -58.5t54 -21.5h17v-69h-23q-67 0 -108.5 33t-41.5 106q0 40 7 88t7 91q0 13 -3 25.5t-11 23t-23.5 17t-40.5 6.5
v63q25 0 40.5 6.5t23.5 17t11 23t3 25.5q0 43 -7 91t-7 89q0 72 41.5 105t108.5 33h23v-68h-17z" />
    <glyph glyph-name="bar" unicode="|" horiz-adv-x="245" 
d="M81 771h84v-843h-84v843z" />
    <glyph glyph-name="braceright" unicode="}" horiz-adv-x="348" 
d="M97 703h-17v68h23q67 0 108.5 -33t41.5 -105q0 -41 -7 -89t-7 -91q0 -13 3 -25.5t11 -23t23.5 -17t40.5 -6.5v-63q-25 0 -40.5 -6.5t-23.5 -17t-11 -23t-3 -25.5q0 -43 7 -91t7 -88q0 -73 -41.5 -106t-108.5 -33h-23v69h17q38 0 54 21.5t16 58.5t-6 77.5t-6 75.5
q-1 55 20 81.5t59 36.5v3q-38 10 -59 36.5t-20 81.5q0 35 6 75.5t6 77.5q0 38 -16 59.5t-54 21.5z" />
    <glyph glyph-name="asciitilde" unicode="~" horiz-adv-x="560" 
d="M150 467q38 0 70.5 -21t62 -46.5t58 -46.5t59.5 -21q20 0 31.5 14.5t17.5 34t7.5 41t1.5 34.5h76q0 -35 -4 -74.5t-17.5 -72.5t-38.5 -54.5t-68 -21.5q-39 0 -73 21t-64 46.5t-57.5 46.5t-55.5 21q-19 0 -30 -14t-17 -34t-7.5 -41t-1.5 -36h-75q0 33 3 72t16 73t38 56.5
t68 22.5z" />
    <glyph glyph-name="uni00A0" unicode="&#xa0;" horiz-adv-x="222" 
 />
    <glyph glyph-name="exclamdown" unicode="&#xa1;" horiz-adv-x="252" 
d="M76 511h101v-121h-101v121zM76 303h101v-492h-101v492z" />
    <glyph glyph-name="cent" unicode="&#xa2;" horiz-adv-x="494" 
d="M255 171q45 0 69 33.5t30 87.5h109q-10 -86 -54 -141.5t-122 -65.5v-93h-75v95q-83 14 -132.5 82.5t-49.5 180.5q0 54 12.5 99.5t35.5 80t57 56.5t77 29v94h75v-93q76 -9 121.5 -62.5t54.5 -143.5h-109q-7 52 -31 86t-69 34q-28 0 -48.5 -15t-33.5 -40t-19.5 -57.5
t-6.5 -66.5q0 -36 7 -69t20.5 -57.5t34 -39t47.5 -14.5z" />
    <glyph glyph-name="sterling" unicode="&#xa3;" horiz-adv-x="541" 
d="M501 259q2 -18 3 -32t1 -25q0 -39 -11 -75.5t-36 -64.5t-65 -44.5t-98 -16.5h-269v65q48 21 78 66t32 103q0 20 -1.5 41t-3.5 43h-63v71h53q-5 34 -9 65t-4 56q0 94 52.5 146t143.5 52q54 0 90.5 -19.5t59 -51t32 -70.5t9.5 -77l-108 -1q0 25 -5 48t-15.5 40.5t-26.5 28
t-39 10.5q-45 0 -65 -31.5t-20 -79.5q0 -20 4 -51t9 -65h157v-71h-146q3 -26 3.5 -49.5t-4.5 -43.5q-7 -39 -34.5 -75t-74.5 -56h152q62 0 94.5 31.5t32.5 88.5q0 8 -0.5 22t-2.5 22h95z" />
    <glyph glyph-name="currency" unicode="&#xa4;" horiz-adv-x="577" 
d="M164 445q0 -38 9 -70.5t25 -56.5t39 -37.5t51 -13.5t51 13.5t39 37.5t25 56.5t9 70.5t-9 70.5t-25 56.5t-39 38t-51 14t-51 -14t-39 -38t-25 -56.5t-9 -70.5zM501 445q0 -74 -31 -133l81 -86l-58 -56l-66 71h-6q-54 -57 -133 -57t-133 57h-6l-66 -71l-58 56l81 86
q-15 29 -23.5 62.5t-8.5 70.5q0 38 8.5 71.5t23.5 62.5l-81 86l58 55l66 -71h6q26 28 60 42.5t73 14.5t73 -14.5t60 -42.5h6l66 71l58 -55l-81 -86q31 -60 31 -134z" />
    <glyph glyph-name="yen" unicode="&#xa5;" horiz-adv-x="544" 
d="M404 700h124l-180 -350h126v-57h-151v-66h150v-57h-150v-170h-113v170h-149v57h149v66h-148v57h123l-170 350h126l79 -186q16 -35 28 -65t24 -62h2q11 32 23 62t27 66z" />
    <glyph glyph-name="brokenbar" unicode="&#xa6;" horiz-adv-x="245" 
d="M80 775h84v-356h-84v356zM80 288h84v-356h-84v356z" />
    <glyph glyph-name="section" unicode="&#xa7;" horiz-adv-x="481" 
d="M266 303q29 -11 57.5 -23.5t51.5 -30.5q4 13 4 26q-1 21 -14 37t-35 28.5t-51 24t-64 24.5q-29 10 -57.5 23t-51.5 30q-5 -12 -3 -23q1 -22 13.5 -38.5t34.5 -29.5t51.5 -24t63.5 -24zM409 226q23 -22 33.5 -48.5t10.5 -58.5q0 -33 -13.5 -61t-38.5 -48.5t-61 -31.5
t-81 -11q-54 0 -94.5 16.5t-67 45t-39.5 66.5t-13 81h106q0 -24 6.5 -46t20 -38.5t33.5 -26.5t47 -10q42 0 63.5 18t21.5 48q0 36 -37 59t-105 47q-47 18 -80 35t-53 36.5t-28.5 42t-7.5 50.5q2 23 13.5 42t26.5 33q-23 22 -33.5 48t-10.5 58q0 68 51.5 110.5t142.5 42.5
q54 0 94.5 -16.5t67 -45t39.5 -66.5t13 -81h-106q0 24 -6.5 46t-20 38.5t-33.5 26.5t-47 10q-42 0 -63.5 -18.5t-21.5 -47.5q0 -36 37 -59t105 -48q95 -35 134.5 -72.5t34.5 -90.5q-2 -23 -14 -42t-26 -33z" />
    <glyph glyph-name="dieresis" unicode="&#xa8;" horiz-adv-x="323" 
d="M35 683h97v-107h-97v107zM190 683h97v-107h-97v107z" />
    <glyph glyph-name="copyright" unicode="&#xa9;" horiz-adv-x="827" 
d="M414 669q-66 0 -124 -25t-101 -68.5t-68 -101.5t-25 -124t25 -124t68 -101t101 -68t124 -25t124 25t101.5 68t68.5 101t25 124t-25 124t-68.5 101.5t-101.5 68.5t-124 25zM627 301q-6 -36 -22.5 -68t-43 -55.5t-62.5 -37.5t-81 -14q-48 0 -89 16t-71 45.5t-47 70
t-17 89.5q0 47 15 88t43.5 71t70 47.5t95.5 17.5q87 0 142 -47t67 -127h-98q-9 43 -37 69t-74 26q-29 0 -51 -11.5t-37 -31t-22.5 -45.5t-7.5 -55q0 -30 8 -56.5t23 -46t37 -30.5t50 -11q46 0 73.5 26t37.5 70h98zM414 733q80 0 149.5 -30t121.5 -82t82 -121.5t30 -149.5
q0 -79 -30 -149t-82 -122t-121.5 -82t-149.5 -30q-79 0 -149 30t-122 82t-82 122t-30 149q0 80 30 149.5t82 121.5t122 82t149 30z" />
    <glyph glyph-name="ordfeminine" unicode="&#xaa;" horiz-adv-x="387" 
d="M179 567q19 0 34 8t25.5 21t16.5 29t6 31v52q-24 0 -49 -3t-45 -11.5t-32.5 -24t-12.5 -40.5q0 -32 17 -47t40 -15zM261 511v97q-4 -21 -13 -40.5t-22.5 -34t-33 -23.5t-44.5 -9q-29 0 -50.5 9.5t-36 26t-21.5 38t-7 44.5q0 39 16.5 67t46.5 46.5t71.5 27t91.5 8.5v11
q0 27 -15 49.5t-54 22.5q-32 0 -50 -19t-18 -52h-78q0 63 39.5 100.5t111.5 37.5q44 0 73.5 -12.5t47 -33.5t25 -49t7.5 -59v-161q0 -25 1 -49t5 -43h-93z" />
    <glyph glyph-name="guillemotleft" unicode="&#xab;" horiz-adv-x="458" 
d="M407 486l-125 -191l125 -191h-85l-123 191l123 191h85zM233 486l-125 -191l125 -191h-85l-123 191l123 191h85z" />
    <glyph glyph-name="logicalnot" unicode="&#xac;" horiz-adv-x="606" 
d="M571 406v-289h-74v215h-462v74h536z" />
    <glyph glyph-name="registered" unicode="&#xae;" horiz-adv-x="827" 
d="M413 669q-66 0 -124 -25t-101 -68.5t-68 -101.5t-25 -124t25 -124t68 -101t101 -68t124 -25t124 25t101.5 68t68.5 101t25 124t-25 124t-68.5 101.5t-101.5 68.5t-124 25zM346 375h49q48 0 74.5 14t26.5 49q0 37 -24 49t-65 12h-61v-124zM413 733q80 0 149.5 -30
t121.5 -82t82 -121.5t30 -149.5q0 -79 -30 -149t-82 -122t-121.5 -82t-149.5 -30q-79 0 -149 30t-122 82t-82 122t-30 149q0 80 30 149.5t82 121.5t122 82t149 30zM249 130v440h170q89 0 129.5 -31t40.5 -89q0 -47 -26.5 -73.5t-61.5 -36.5v-1q25 -10 41 -31.5t25 -52.5
q11 -43 21 -74t21 -51h-108q-5 10 -14 36t-18 61q-10 36 -26.5 56.5t-55.5 20.5h-41v-174h-97z" />
    <glyph glyph-name="macron" unicode="&#xaf;" horiz-adv-x="329" 
d="M41 674h248v-66h-248v66z" />
    <glyph glyph-name="degree" unicode="&#xb0;" horiz-adv-x="353" 
d="M96 638q0 -35 22 -61t57 -26q36 0 58 26t22 63q0 16 -5 31.5t-15 28t-25 20.5t-35 8q-19 0 -34 -7.5t-25 -20.5t-15 -29t-5 -33zM321 640q0 -31 -11.5 -58t-31 -47t-46 -31t-57.5 -11q-32 0 -59 11.5t-46 31t-29.5 46t-10.5 56.5q0 31 10.5 58t30 47t46.5 31.5t59 11.5
q33 0 60 -11.5t45.5 -31.5t29 -46.5t10.5 -56.5z" />
    <glyph glyph-name="plusminus" unicode="&#xb1;" horiz-adv-x="646" 
d="M362 589v-237h229v-77h-229v-199h229v-76h-536v76h229v199h-229v77h229v237h78z" />
    <glyph glyph-name="twosuperior" unicode="&#xb2;" horiz-adv-x="331" 
d="M28 604l58 58q55 54 90.5 97t35.5 85q0 24 -12 39.5t-38 15.5q-28 0 -39.5 -23t-11.5 -55h-79q0 38 10.5 66t29 46t42.5 27t51 9q36 0 61 -9.5t41 -26t23.5 -37t7.5 -43.5q0 -28 -10 -54t-27 -50t-39 -46.5t-46 -44.5l-28 -28v-2h158v-69h-278v45z" />
    <glyph glyph-name="threesuperior" unicode="&#xb3;" horiz-adv-x="347" 
d="M43 851q0 31 11 53.5t29 36.5t42 21t50 7q68 0 100 -29.5t32 -68.5q0 -32 -20.5 -56.5t-55.5 -36.5v-2q39 -7 64.5 -33.5t25.5 -65.5q0 -52 -37 -87.5t-112 -35.5q-39 0 -67 11.5t-45.5 30.5t-26 43t-8.5 49h79q0 -31 17.5 -50.5t47.5 -19.5q32 0 47 17t15 44
q0 35 -28.5 51t-70.5 16h-21v56h20q13 0 28.5 3t28.5 9.5t22 18.5t9 30q0 19 -11.5 31t-36.5 12q-27 0 -38.5 -17.5t-11.5 -37.5h-78z" />
    <glyph glyph-name="acute" unicode="&#xb4;" horiz-adv-x="190" 
d="M165 728l-72 -175h-65l46 175h91z" />
    <glyph glyph-name="paragraph" unicode="&#xb6;" horiz-adv-x="635" 
d="M610 700v-63h-67v-715h-80v715h-72v-715h-80v366q-14 -4 -34.5 -6t-38.5 -2q-50 0 -89.5 18t-66.5 48t-41.5 70t-14.5 84q0 39 14 75.5t42.5 64t72.5 44t104 16.5h351z" />
    <glyph glyph-name="periodcentered" unicode="&#xb7;" horiz-adv-x="222" 
d="M50 396h121v-133h-121v133z" />
    <glyph glyph-name="cedilla" unicode="&#xb8;" horiz-adv-x="244" 
d="M146 0l-24 -49q42 -8 69 -28.5t27 -55.5q0 -24 -9.5 -40.5t-24.5 -27t-35 -15t-41 -4.5q-42 0 -77 16l2 60q16 -7 31.5 -10t29.5 -3q22 0 36.5 7t15.5 20q0 10 -7 18t-19 14t-27 10t-32 6l40 82h45z" />
    <glyph glyph-name="onesuperior" unicode="&#xb9;" horiz-adv-x="290" 
d="M204 628h60v-69h-220v69h73v222h-89v69h30q37 0 48.5 8.5t11.5 36.5h86v-336z" />
    <glyph glyph-name="ordmasculine" unicode="&#xba;" horiz-adv-x="348" 
d="M174 618q30 0 46.5 36t16.5 108t-16.5 108t-46.5 36q-29 0 -45.5 -36t-16.5 -108t16.5 -108t45.5 -36zM174 970q38 0 66 -15.5t46 -43t27 -66t9 -83.5t-9 -83.5t-27 -66t-46 -43t-66 -15.5t-66 15.5t-46 43t-27 66t-9 83.5t9 83.5t27 66t46 43t66 15.5z" />
    <glyph glyph-name="guillemotright" unicode="&#xbb;" horiz-adv-x="457" 
d="M307 485l124 -191l-123 -191h-85l125 191l-125 191h84zM134 485l124 -191l-123 -191h-85l125 191l-125 191h84z" />
    <glyph glyph-name="onequarter" unicode="&#xbc;" horiz-adv-x="741" 
d="M581 163v99q0 20 1 37.5t3 33.5h-3q-9 -18 -17 -33.5t-17 -30.5l-69 -105l1 -1h101zM567 408h96v-245h52v-61h-52v-102h-82v102h-183v50zM201 700v-406h-87v292h-89v69h30q37 0 48.5 8.5t11.5 36.5h86zM511 700h66l-381 -700h-66z" />
    <glyph glyph-name="onehalf" unicode="&#xbd;" horiz-adv-x="752" 
d="M503 700h66l-381 -700h-67zM586 410q36 0 61 -9.5t41 -26t23.5 -37t7.5 -43.5q0 -28 -10 -54t-27 -50t-39 -46.5t-46 -44.5l-28 -28v-2h158v-69h-278v45l58 58q55 54 90.5 97t35.5 85q0 24 -12 39.5t-38 15.5q-28 0 -39.5 -23t-11.5 -55h-79q0 38 10.5 66t29 46t42.5 27
t51 9zM201 700v-406h-87v292h-89v69h30q37 0 48.5 8.5t11.5 36.5h86z" />
    <glyph glyph-name="threequarters" unicode="&#xbe;" horiz-adv-x="784" 
d="M624 163v99q0 20 1.5 37.5t2.5 33.5h-2q-10 -18 -17.5 -33.5t-17.5 -30.5l-68 -105l1 -1h100zM175 708q68 0 100 -29.5t32 -68.5q0 -32 -20.5 -56.5t-55.5 -36.5v-2q39 -7 64.5 -33.5t25.5 -65.5q0 -53 -37 -88t-112 -35q-39 0 -67 11.5t-45.5 30t-26 43t-8.5 49.5h79
q0 -31 17.5 -50.5t47.5 -19.5q32 0 47 17t15 44q0 35 -28.5 51t-70.5 16h-21v56h20q13 0 28.5 3t28.5 9.5t22 18.5t9 30q0 19 -11.5 31t-36.5 12q-27 0 -38.5 -17.5t-11.5 -37.5h-78q0 31 11 53.5t29 36.5t42 21t50 7zM570 700h66l-381 -700h-67zM706 0h-82v102h-183v50
l169 256h96v-245h53v-61h-53v-102z" />
    <glyph glyph-name="questiondown" unicode="&#xbf;" horiz-adv-x="485" 
d="M238 -197q-51 0 -87.5 13t-60 34.5t-34.5 49.5t-11 58q0 28 8.5 52t22 46t30.5 42t33 40q15 19 25 37t16 38t8.5 44t2.5 55h101q0 -60 -12.5 -110t-47.5 -97q-15 -19 -28 -35.5t-23 -32t-16 -32t-6 -34.5q0 -38 24.5 -56.5t61.5 -18.5q40 0 65.5 28t25.5 80h103
q0 -50 -15.5 -87.5t-43 -63t-64 -38t-78.5 -12.5zM190 390h101v121h-101v-121z" />
    <glyph glyph-name="Agrave" unicode="&#xc0;" horiz-adv-x="586" 
d="M373 286l-49 175q-9 34 -17 71t-16 69h-2q-8 -33 -16 -70.5t-16 -69.5l-49 -175h165zM190 199l-55 -199h-115l204 700h139l203 -700h-118l-58 199h-200zM315 917l46 -175h-65l-72 175h91z" />
    <glyph glyph-name="Aacute" unicode="&#xc1;" horiz-adv-x="586" 
d="M373 286l-49 175q-9 34 -17 71t-16 69h-2q-8 -33 -16 -70.5t-16 -69.5l-49 -175h165zM190 199l-55 -199h-115l204 700h139l203 -700h-118l-58 199h-200zM361 917l-72 -175h-65l46 175h91z" />
    <glyph glyph-name="Acircumflex" unicode="&#xc2;" horiz-adv-x="586" 
d="M373 286l-49 175q-9 34 -17 71t-16 69h-2q-8 -33 -16 -70.5t-16 -69.5l-49 -175h165zM190 199l-55 -199h-115l204 700h139l203 -700h-118l-58 199h-200zM336 917l94 -175h-76l-60 112l-60 -112h-77l94 175h85z" />
    <glyph glyph-name="Atilde" unicode="&#xc3;" horiz-adv-x="586" 
d="M373 286l-49 175q-9 34 -17 71t-16 69h-2q-8 -33 -16 -70.5t-16 -69.5l-49 -175h165zM190 199l-55 -199h-115l204 700h139l203 -700h-118l-58 199h-200zM358 763q-22 0 -39 11t-32 24t-28 24t-28 11q-11 0 -17 -7.5t-9 -18t-3.5 -21.5t-0.5 -18h-53q0 14 2.5 38.5
t10.5 47.5t24.5 40t44.5 17q23 0 39 -11t30.5 -24t28 -24t29.5 -11q11 0 16.5 7t8.5 17.5t3.5 21.5t0.5 19h51q0 -22 -2 -47t-10 -46.5t-24 -35.5t-43 -14z" />
    <glyph glyph-name="Adieresis" unicode="&#xc4;" horiz-adv-x="586" 
d="M373 286l-49 175q-9 34 -17 71t-16 69h-2q-8 -33 -16 -70.5t-16 -69.5l-49 -175h165zM190 199l-55 -199h-115l204 700h139l203 -700h-118l-58 199h-200zM167 872h97v-107h-97v107zM322 872h97v-107h-97v107z" />
    <glyph glyph-name="Aring" unicode="&#xc5;" horiz-adv-x="586" 
d="M373 286l-49 175q-9 34 -17 71t-16 69h-2q-8 -33 -16 -70.5t-16 -69.5l-49 -175h165zM190 199l-55 -199h-115l204 700h139l203 -700h-118l-58 199h-200zM251 850q0 -20 9.5 -38t32.5 -18t33 17t10 40q0 9 -2 19t-6.5 18.5t-13 14t-21.5 5.5q-23 0 -32.5 -18.5t-9.5 -39.5
zM396 852q0 -53 -28.5 -82t-74.5 -29q-48 0 -75 29.5t-27 79.5q0 51 27.5 81t75.5 30q49 0 75.5 -30t26.5 -79z" />
    <glyph glyph-name="AE" unicode="&#xc6;" horiz-adv-x="794" 
d="M393 311q-4 42 -7 80q-3 32 -6 65t-5 50q-3 26 -5.5 54t-4.5 51h-5q-8 -22 -17 -46.5t-18 -50.5q-7 -20 -19.5 -54t-24.5 -67q-14 -39 -30 -82h142zM20 0l278 700h437v-95h-264l20 -198h234v-94h-222l23 -218h233v-95h-331l-24 221h-185l-84 -221h-115z" />
    <glyph glyph-name="Ccedilla" unicode="&#xc7;" horiz-adv-x="639" 
d="M594 278q-14 -139 -85 -214.5t-189 -75.5q-66 0 -119 26.5t-90 73.5t-56.5 113.5t-19.5 145.5q0 82 20.5 149.5t58 115.5t91.5 74.5t120 26.5q61 0 108.5 -20.5t81.5 -58t54 -90.5t26 -118h-117q-4 41 -15.5 76.5t-31 61.5t-46.5 41t-62 15q-42 0 -73.5 -21.5t-53 -58.5
t-32 -86.5t-10.5 -105.5q0 -55 11 -103.5t32.5 -85t53 -57.5t72.5 -21q66 0 105.5 53t49.5 144h116zM343 0l-24 -49q42 -8 69 -28.5t27 -55.5q0 -24 -9.5 -40.5t-24.5 -27t-35 -15t-41 -4.5q-42 0 -77 16l2 60q16 -7 31.5 -10t29.5 -3q22 0 36.5 7t15.5 20q0 10 -7 18
t-19 14t-27 10t-32 6l40 82h45z" />
    <glyph glyph-name="Egrave" unicode="&#xc8;" horiz-adv-x="456" 
d="M406 700v-95h-248v-194h234v-93h-234v-223h262v-95h-375v700h361zM250 917l46 -175h-65l-72 175h91z" />
    <glyph glyph-name="Eacute" unicode="&#xc9;" horiz-adv-x="456" 
d="M406 700v-95h-248v-194h234v-93h-234v-223h262v-95h-375v700h361zM296 917l-72 -175h-65l46 175h91z" />
    <glyph glyph-name="Ecircumflex" unicode="&#xca;" horiz-adv-x="456" 
d="M406 700v-95h-248v-194h234v-93h-234v-223h262v-95h-375v700h361zM271 917l94 -175h-76l-60 112l-60 -112h-77l94 175h85z" />
    <glyph glyph-name="Edieresis" unicode="&#xcb;" horiz-adv-x="456" 
d="M406 700v-95h-248v-194h234v-93h-234v-223h262v-95h-375v700h361zM102 872h97v-107h-97v107zM257 872h97v-107h-97v107z" />
    <glyph glyph-name="Igrave" unicode="&#xcc;" horiz-adv-x="239" 
d="M62 700h113v-700h-113v700zM141 917l46 -175h-65l-72 175h91z" />
    <glyph glyph-name="Iacute" unicode="&#xcd;" horiz-adv-x="239" 
d="M62 700h113v-700h-113v700zM187 917l-72 -175h-65l46 175h91z" />
    <glyph glyph-name="Icircumflex" unicode="&#xce;" horiz-adv-x="239" 
d="M62 700h113v-700h-113v700zM162 917l94 -175h-76l-60 112l-60 -112h-77l94 175h85z" />
    <glyph glyph-name="Idieresis" unicode="&#xcf;" horiz-adv-x="239" 
d="M62 700h113v-700h-113v700zM-7 872h97v-107h-97v107zM148 872h97v-107h-97v107z" />
    <glyph glyph-name="Eth" unicode="&#xd0;" horiz-adv-x="608" 
d="M162 86h62q53 0 96 16t73 50t46.5 86.5t16.5 125.5q0 120 -55.5 185t-164.5 65h-74v-224h70v-67h-70v-237zM472 631q48 -41 75 -105.5t27 -159.5q0 -100 -27.5 -169.5t-73.5 -113.5q-46 -45 -116 -64t-161 -19h-147v323h-49v67h49v310h174q86 0 146.5 -16t102.5 -53z" />
    <glyph glyph-name="Ntilde" unicode="&#xd1;" horiz-adv-x="583" 
d="M45 0v700h121l168 -312q30 -56 58 -115.5t50 -115.5l3 1q-6 71 -8.5 143t-2.5 157v242h103v-700h-113l-169 316q-29 55 -58.5 115.5t-52.5 119.5h-3q5 -67 6.5 -139.5t1.5 -166.5v-245h-104zM357 763q-22 0 -39 11t-32 24t-28 24t-28 11q-11 0 -17 -7.5t-9 -18
t-3.5 -21.5t-0.5 -18h-53q0 14 2.5 38.5t10.5 47.5t24.5 40t44.5 17q23 0 39 -11t30.5 -24t28 -24t29.5 -11q11 0 16.5 7t8.5 17.5t3.5 21.5t0.5 19h51q0 -22 -2 -47t-10 -46.5t-24 -35.5t-43 -14z" />
    <glyph glyph-name="Ograve" unicode="&#xd2;" horiz-adv-x="642" 
d="M321 81q41 0 72.5 21t53 57.5t32.5 85.5t11 106q0 54 -10.5 103t-31.5 85.5t-53 58.5t-74 22t-73.5 -21.5t-53 -58.5t-32 -86.5t-10.5 -105.5q0 -55 11 -103.5t32.5 -85t53 -57.5t72.5 -21zM323 713q68 0 121 -26.5t89.5 -74t56 -113.5t19.5 -145q0 -84 -21 -151.5
t-59 -115t-91.5 -73.5t-119.5 -26t-119 26.5t-90 73.5t-56.5 113.5t-19.5 145.5q0 82 20.5 149.5t58 115.5t91.5 74.5t120 26.5zM343 917l46 -175h-65l-72 175h91z" />
    <glyph glyph-name="Oacute" unicode="&#xd3;" horiz-adv-x="642" 
d="M321 81q41 0 72.5 21t53 57.5t32.5 85.5t11 106q0 54 -10.5 103t-31.5 85.5t-53 58.5t-74 22t-73.5 -21.5t-53 -58.5t-32 -86.5t-10.5 -105.5q0 -55 11 -103.5t32.5 -85t53 -57.5t72.5 -21zM323 713q68 0 121 -26.5t89.5 -74t56 -113.5t19.5 -145q0 -84 -21 -151.5
t-59 -115t-91.5 -73.5t-119.5 -26t-119 26.5t-90 73.5t-56.5 113.5t-19.5 145.5q0 82 20.5 149.5t58 115.5t91.5 74.5t120 26.5zM389 917l-72 -175h-65l46 175h91z" />
    <glyph glyph-name="Ocircumflex" unicode="&#xd4;" horiz-adv-x="642" 
d="M321 81q41 0 72.5 21t53 57.5t32.5 85.5t11 106q0 54 -10.5 103t-31.5 85.5t-53 58.5t-74 22t-73.5 -21.5t-53 -58.5t-32 -86.5t-10.5 -105.5q0 -55 11 -103.5t32.5 -85t53 -57.5t72.5 -21zM323 713q68 0 121 -26.5t89.5 -74t56 -113.5t19.5 -145q0 -84 -21 -151.5
t-59 -115t-91.5 -73.5t-119.5 -26t-119 26.5t-90 73.5t-56.5 113.5t-19.5 145.5q0 82 20.5 149.5t58 115.5t91.5 74.5t120 26.5zM364 917l94 -175h-76l-60 112l-60 -112h-77l94 175h85z" />
    <glyph glyph-name="Otilde" unicode="&#xd5;" horiz-adv-x="642" 
d="M321 81q41 0 72.5 21t53 57.5t32.5 85.5t11 106q0 54 -10.5 103t-31.5 85.5t-53 58.5t-74 22t-73.5 -21.5t-53 -58.5t-32 -86.5t-10.5 -105.5q0 -55 11 -103.5t32.5 -85t53 -57.5t72.5 -21zM323 713q68 0 121 -26.5t89.5 -74t56 -113.5t19.5 -145q0 -84 -21 -151.5
t-59 -115t-91.5 -73.5t-119.5 -26t-119 26.5t-90 73.5t-56.5 113.5t-19.5 145.5q0 82 20.5 149.5t58 115.5t91.5 74.5t120 26.5zM386 763q-22 0 -39 11t-32 24t-28 24t-28 11q-11 0 -17 -7.5t-9 -18t-3.5 -21.5t-0.5 -18h-53q0 14 2.5 38.5t10.5 47.5t24.5 40t44.5 17
q23 0 39 -11t30.5 -24t28 -24t29.5 -11q11 0 16.5 7t8.5 17.5t3.5 21.5t0.5 19h51q0 -22 -2 -47t-10 -46.5t-24 -35.5t-43 -14z" />
    <glyph glyph-name="Odieresis" unicode="&#xd6;" horiz-adv-x="642" 
d="M321 81q41 0 72.5 21t53 57.5t32.5 85.5t11 106q0 54 -10.5 103t-31.5 85.5t-53 58.5t-74 22t-73.5 -21.5t-53 -58.5t-32 -86.5t-10.5 -105.5q0 -55 11 -103.5t32.5 -85t53 -57.5t72.5 -21zM323 713q68 0 121 -26.5t89.5 -74t56 -113.5t19.5 -145q0 -84 -21 -151.5
t-59 -115t-91.5 -73.5t-119.5 -26t-119 26.5t-90 73.5t-56.5 113.5t-19.5 145.5q0 82 20.5 149.5t58 115.5t91.5 74.5t120 26.5zM195 872h97v-107h-97v107zM350 872h97v-107h-97v107z" />
    <glyph glyph-name="multiply" unicode="&#xd7;" horiz-adv-x="517" 
d="M481 458l-168 -168l163 -162l-54 -54l-163 162l-168 -169l-55 55l169 168l-162 163l54 54l162 -163l168 168z" />
    <glyph glyph-name="Oslash" unicode="&#xd8;" horiz-adv-x="642" 
d="M179 193l237 389q-19 18 -42.5 28t-52.5 10q-42 0 -73.5 -21.5t-53 -58.5t-32 -86t-10.5 -105q0 -44 6.5 -83.5t20.5 -72.5zM462 511l-238 -389q20 -19 44 -29.5t53 -10.5q41 0 72.5 21t53 57t32.5 85.5t11 106.5q0 45 -7 85t-21 74zM121 -48l-62 44l54 88
q-39 48 -59.5 115t-20.5 148q0 82 20.5 149.5t58 115.5t91.5 74.5t120 26.5q43 0 79.5 -11t67.5 -31l48 79l65 -40l-55 -90q39 -48 60 -115.5t21 -150.5q0 -84 -21 -151.5t-59 -115t-91.5 -73.5t-119.5 -26q-43 0 -80 11.5t-69 32.5z" />
    <glyph glyph-name="Ugrave" unicode="&#xd9;" horiz-adv-x="562" 
d="M153 700v-431q0 -50 9.5 -85.5t26.5 -58t40 -33t51 -10.5q58 0 93 43t35 144v431h113v-422q0 -77 -17.5 -132t-49 -90t-76.5 -51.5t-100 -16.5t-99 16.5t-75 51t-47.5 89.5t-16.5 131v424h113zM303 917l46 -175h-65l-72 175h91z" />
    <glyph glyph-name="Uacute" unicode="&#xda;" horiz-adv-x="562" 
d="M153 700v-431q0 -50 9.5 -85.5t26.5 -58t40 -33t51 -10.5q58 0 93 43t35 144v431h113v-422q0 -77 -17.5 -132t-49 -90t-76.5 -51.5t-100 -16.5t-99 16.5t-75 51t-47.5 89.5t-16.5 131v424h113zM349 917l-72 -175h-65l46 175h91z" />
    <glyph glyph-name="Ucircumflex" unicode="&#xdb;" horiz-adv-x="562" 
d="M153 700v-431q0 -50 9.5 -85.5t26.5 -58t40 -33t51 -10.5q58 0 93 43t35 144v431h113v-422q0 -77 -17.5 -132t-49 -90t-76.5 -51.5t-100 -16.5t-99 16.5t-75 51t-47.5 89.5t-16.5 131v424h113zM324 917l94 -175h-76l-60 112l-60 -112h-77l94 175h85z" />
    <glyph glyph-name="Udieresis" unicode="&#xdc;" horiz-adv-x="562" 
d="M153 700v-431q0 -50 9.5 -85.5t26.5 -58t40 -33t51 -10.5q58 0 93 43t35 144v431h113v-422q0 -77 -17.5 -132t-49 -90t-76.5 -51.5t-100 -16.5t-99 16.5t-75 51t-47.5 89.5t-16.5 131v424h113zM155 872h97v-107h-97v107zM310 872h97v-107h-97v107z" />
    <glyph glyph-name="Yacute" unicode="&#xdd;" horiz-adv-x="546" 
d="M212 0v288l-199 412h127l77 -179q16 -38 29.5 -72t27.5 -72h2q12 36 26 71t31 74l76 178h125l-209 -409v-291h-113zM341 917l-72 -175h-65l46 175h91z" />
    <glyph glyph-name="Thorn" unicode="&#xde;" horiz-adv-x="504" 
d="M212 220q66 0 105 35.5t39 101.5t-38.5 101.5t-104.5 35.5q-33 0 -56 -6v-262q21 -6 55 -6zM215 584q54 0 100 -13.5t80 -41.5t53.5 -70t19.5 -99q0 -61 -21 -104.5t-56.5 -71.5t-81 -41t-95.5 -13q-17 0 -31.5 1t-25.5 4v-159h-112v750h112v-147q12 2 26.5 3.5t31.5 1.5
z" />
    <glyph glyph-name="germandbls" unicode="&#xdf;" horiz-adv-x="533" 
d="M45 0v446q0 53 11 102t37 86.5t69 60.5t108 23q38 0 71.5 -11.5t59 -33.5t40 -53.5t14.5 -72.5q0 -21 -6 -44t-17 -38q-31 -12 -48.5 -31t-17.5 -44q0 -19 10 -35t25 -31.5t33 -32.5t33 -37.5t25 -47t10 -61.5q0 -73 -43.5 -113t-115.5 -40q-76 0 -122.5 50t-46.5 150h95
q0 -54 16.5 -83t51.5 -29q29 0 45.5 19t16.5 49q0 32 -22 59t-48.5 54t-48.5 56.5t-22 66.5q0 40 21.5 66.5t61.5 46.5q10 19 10 42q0 47 -27 69.5t-63 22.5q-24 0 -43.5 -9.5t-33.5 -31t-21.5 -57t-7.5 -86.5v-447h-110z" />
    <glyph glyph-name="agrave" unicode="&#xe0;" horiz-adv-x="477" 
d="M326 255q-31 0 -63.5 -3.5t-58.5 -14.5t-42.5 -31.5t-16.5 -53.5q0 -42 22 -62t53 -20q24 0 43.5 10.5t33.5 27.5t21.5 38t7.5 41v68zM326 0v126q-5 -27 -16.5 -52t-29.5 -44t-43 -30.5t-57 -11.5q-37 0 -64.5 12.5t-46 33.5t-27.5 48.5t-9 57.5q0 50 21 86t59.5 59
t92 34t118.5 11v16q0 17 -4.5 34t-15 30.5t-28 22t-43.5 8.5q-40 0 -64.5 -23.5t-24.5 -70.5h-97q0 82 50 129.5t144 47.5q57 0 94.5 -16t60 -43t32 -63t9.5 -76v-207q0 -32 1.5 -63t5.5 -56h-118zM261 728l46 -175h-65l-72 175h91z" />
    <glyph glyph-name="aacute" unicode="&#xe1;" horiz-adv-x="477" 
d="M326 255q-31 0 -63.5 -3.5t-58.5 -14.5t-42.5 -31.5t-16.5 -53.5q0 -42 22 -62t53 -20q24 0 43.5 10.5t33.5 27.5t21.5 38t7.5 41v68zM326 0v126q-5 -27 -16.5 -52t-29.5 -44t-43 -30.5t-57 -11.5q-37 0 -64.5 12.5t-46 33.5t-27.5 48.5t-9 57.5q0 50 21 86t59.5 59
t92 34t118.5 11v16q0 17 -4.5 34t-15 30.5t-28 22t-43.5 8.5q-40 0 -64.5 -23.5t-24.5 -70.5h-97q0 82 50 129.5t144 47.5q57 0 94.5 -16t60 -43t32 -63t9.5 -76v-207q0 -32 1.5 -63t5.5 -56h-118zM307 728l-72 -175h-65l46 175h91z" />
    <glyph glyph-name="acircumflex" unicode="&#xe2;" horiz-adv-x="477" 
d="M326 255q-31 0 -63.5 -3.5t-58.5 -14.5t-42.5 -31.5t-16.5 -53.5q0 -42 22 -62t53 -20q24 0 43.5 10.5t33.5 27.5t21.5 38t7.5 41v68zM326 0v126q-5 -27 -16.5 -52t-29.5 -44t-43 -30.5t-57 -11.5q-37 0 -64.5 12.5t-46 33.5t-27.5 48.5t-9 57.5q0 50 21 86t59.5 59
t92 34t118.5 11v16q0 17 -4.5 34t-15 30.5t-28 22t-43.5 8.5q-40 0 -64.5 -23.5t-24.5 -70.5h-97q0 82 50 129.5t144 47.5q57 0 94.5 -16t60 -43t32 -63t9.5 -76v-207q0 -32 1.5 -63t5.5 -56h-118zM281 728l94 -175h-76l-60 112l-60 -112h-77l94 175h85z" />
    <glyph glyph-name="atilde" unicode="&#xe3;" horiz-adv-x="477" 
d="M326 255q-31 0 -63.5 -3.5t-58.5 -14.5t-42.5 -31.5t-16.5 -53.5q0 -42 22 -62t53 -20q24 0 43.5 10.5t33.5 27.5t21.5 38t7.5 41v68zM326 0v126q-5 -27 -16.5 -52t-29.5 -44t-43 -30.5t-57 -11.5q-37 0 -64.5 12.5t-46 33.5t-27.5 48.5t-9 57.5q0 50 21 86t59.5 59
t92 34t118.5 11v16q0 17 -4.5 34t-15 30.5t-28 22t-43.5 8.5q-40 0 -64.5 -23.5t-24.5 -70.5h-97q0 82 50 129.5t144 47.5q57 0 94.5 -16t60 -43t32 -63t9.5 -76v-207q0 -32 1.5 -63t5.5 -56h-118zM304 574q-22 0 -39 11t-32 24t-28 24t-28 11q-11 0 -17 -7.5t-9 -18
t-3.5 -21.5t-0.5 -18h-53q0 14 2.5 38.5t10.5 47.5t24.5 40t44.5 17q23 0 39 -11t30.5 -24t28 -24t29.5 -11q11 0 16.5 7t8.5 17.5t3.5 21.5t0.5 19h51q0 -22 -2 -47t-10 -46.5t-24 -35.5t-43 -14z" />
    <glyph glyph-name="adieresis" unicode="&#xe4;" horiz-adv-x="477" 
d="M326 255q-31 0 -63.5 -3.5t-58.5 -14.5t-42.5 -31.5t-16.5 -53.5q0 -42 22 -62t53 -20q24 0 43.5 10.5t33.5 27.5t21.5 38t7.5 41v68zM326 0v126q-5 -27 -16.5 -52t-29.5 -44t-43 -30.5t-57 -11.5q-37 0 -64.5 12.5t-46 33.5t-27.5 48.5t-9 57.5q0 50 21 86t59.5 59
t92 34t118.5 11v16q0 17 -4.5 34t-15 30.5t-28 22t-43.5 8.5q-40 0 -64.5 -23.5t-24.5 -70.5h-97q0 82 50 129.5t144 47.5q57 0 94.5 -16t60 -43t32 -63t9.5 -76v-207q0 -32 1.5 -63t5.5 -56h-118zM112 683h97v-107h-97v107zM267 683h97v-107h-97v107z" />
    <glyph glyph-name="aring" unicode="&#xe5;" horiz-adv-x="477" 
d="M326 255q-31 0 -63.5 -3.5t-58.5 -14.5t-42.5 -31.5t-16.5 -53.5q0 -42 22 -62t53 -20q24 0 43.5 10.5t33.5 27.5t21.5 38t7.5 41v68zM326 0v126q-5 -27 -16.5 -52t-29.5 -44t-43 -30.5t-57 -11.5q-37 0 -64.5 12.5t-46 33.5t-27.5 48.5t-9 57.5q0 50 21 86t59.5 59
t92 34t118.5 11v16q0 17 -4.5 34t-15 30.5t-28 22t-43.5 8.5q-40 0 -64.5 -23.5t-24.5 -70.5h-97q0 82 50 129.5t144 47.5q57 0 94.5 -16t60 -43t32 -63t9.5 -76v-207q0 -32 1.5 -63t5.5 -56h-118zM197 661q0 -20 9.5 -38t32.5 -18t33 17t10 40q0 9 -2 19t-6.5 18.5t-13 14
t-21.5 5.5q-23 0 -32.5 -18.5t-9.5 -39.5zM342 663q0 -53 -28.5 -82t-74.5 -29q-48 0 -75 29.5t-27 79.5q0 51 27.5 81t75.5 30q49 0 75.5 -30t26.5 -79z" />
    <glyph glyph-name="ae" unicode="&#xe6;" horiz-adv-x="785" 
d="M218 70q25 0 44.5 13t33.5 33t22 45t10 49q-1 11 -1.5 22.5t-0.5 22.5q-31 0 -63 -3.5t-58.5 -14.5t-43 -31.5t-16.5 -53.5q0 -42 22 -62t51 -20zM650 313q-1 24 -8 46t-20 39.5t-31 27.5t-41 10q-45 0 -70.5 -36t-33.5 -87h204zM759 308q1 -16 0 -32t-3 -28h-314
q1 -24 6 -54t17 -56.5t32.5 -44t51.5 -17.5q42 0 65.5 29.5t31.5 73.5h108q-14 -86 -65 -138.5t-139 -52.5q-81 0 -137.5 47t-76.5 130q-5 -35 -17 -67t-31.5 -56.5t-46 -39t-61.5 -14.5q-37 0 -64.5 12.5t-46 33.5t-27.5 48.5t-9 57.5q0 50 21 86t59.5 59t92 34t118.5 11
v16q0 17 -4.5 34t-15 30.5t-28 22t-43.5 8.5q-40 0 -64.5 -23.5t-24.5 -70.5h-97q0 82 50 129.5t144 47.5q59 0 96.5 -19t57.5 -52q28 34 67.5 52.5t88.5 18.5q47 0 84.5 -16t64 -44.5t41.5 -68t18 -87.5z" />
    <glyph glyph-name="ccedilla" unicode="&#xe7;" 
d="M458 197q-10 -94 -63 -151.5t-146 -57.5q-50 0 -91 18.5t-70.5 53t-46 84t-16.5 111.5q0 61 15 110.5t44 85t71 54.5t95 19q91 0 144.5 -54.5t63.5 -154.5h-109q-7 53 -31 87t-69 34q-28 0 -48.5 -15.5t-33.5 -40.5t-19.5 -57.5t-6.5 -66.5q0 -36 7 -69t20.5 -57.5
t34 -39t47.5 -14.5q45 0 69 33.5t30 87.5h109zM264 0l-24 -49q42 -8 69 -28.5t27 -55.5q0 -24 -9.5 -40.5t-24.5 -27t-35 -15t-41 -4.5q-42 0 -77 16l2 60q16 -7 31.5 -10t29.5 -3q22 0 36.5 7t15.5 20q0 10 -7 18t-19 14t-27 10t-32 6l40 82h45z" />
    <glyph glyph-name="egrave" unicode="&#xe8;" 
d="M249 436q-45 0 -70.5 -36t-33.5 -87h204q-1 24 -8 46t-20 39.5t-31 27.5t-41 10zM458 308q1 -16 0 -32t-3 -28h-314q1 -24 6.5 -53.5t17.5 -56t32.5 -44.5t50.5 -18q42 0 65.5 29.5t31.5 73.5h108q-14 -86 -65 -138.5t-139 -52.5q-50 0 -91.5 18.5t-71 53t-45.5 84
t-16 111.5q0 61 15 110.5t44 85t71 54.5t95 19q47 0 84.5 -16t64 -44.5t41.5 -68t18 -87.5zM264 728l46 -175h-65l-72 175h91z" />
    <glyph glyph-name="eacute" unicode="&#xe9;" 
d="M249 436q-45 0 -70.5 -36t-33.5 -87h204q-1 24 -8 46t-20 39.5t-31 27.5t-41 10zM458 308q1 -16 0 -32t-3 -28h-314q1 -24 6.5 -53.5t17.5 -56t32.5 -44.5t50.5 -18q42 0 65.5 29.5t31.5 73.5h108q-14 -86 -65 -138.5t-139 -52.5q-50 0 -91.5 18.5t-71 53t-45.5 84
t-16 111.5q0 61 15 110.5t44 85t71 54.5t95 19q47 0 84.5 -16t64 -44.5t41.5 -68t18 -87.5zM310 728l-72 -175h-65l46 175h91z" />
    <glyph glyph-name="ecircumflex" unicode="&#xea;" 
d="M249 436q-45 0 -70.5 -36t-33.5 -87h204q-1 24 -8 46t-20 39.5t-31 27.5t-41 10zM458 308q1 -16 0 -32t-3 -28h-314q1 -24 6.5 -53.5t17.5 -56t32.5 -44.5t50.5 -18q42 0 65.5 29.5t31.5 73.5h108q-14 -86 -65 -138.5t-139 -52.5q-50 0 -91.5 18.5t-71 53t-45.5 84
t-16 111.5q0 61 15 110.5t44 85t71 54.5t95 19q47 0 84.5 -16t64 -44.5t41.5 -68t18 -87.5zM285 728l94 -175h-76l-60 112l-60 -112h-77l94 175h85z" />
    <glyph glyph-name="edieresis" unicode="&#xeb;" 
d="M249 436q-45 0 -70.5 -36t-33.5 -87h204q-1 24 -8 46t-20 39.5t-31 27.5t-41 10zM458 308q1 -16 0 -32t-3 -28h-314q1 -24 6.5 -53.5t17.5 -56t32.5 -44.5t50.5 -18q42 0 65.5 29.5t31.5 73.5h108q-14 -86 -65 -138.5t-139 -52.5q-50 0 -91.5 18.5t-71 53t-45.5 84
t-16 111.5q0 61 15 110.5t44 85t71 54.5t95 19q47 0 84.5 -16t64 -44.5t41.5 -68t18 -87.5zM116 683h97v-107h-97v107zM271 683h97v-107h-97v107z" />
    <glyph glyph-name="igrave" unicode="&#xec;" horiz-adv-x="224" 
d="M55 511h114v-511h-114v511zM134 728l46 -175h-65l-72 175h91z" />
    <glyph glyph-name="iacute" unicode="&#xed;" horiz-adv-x="224" 
d="M55 511h114v-511h-114v511zM180 728l-72 -175h-65l46 175h91z" />
    <glyph glyph-name="icircumflex" unicode="&#xee;" horiz-adv-x="224" 
d="M55 511h114v-511h-114v511zM155 728l94 -175h-76l-60 112l-60 -112h-77l94 175h85z" />
    <glyph glyph-name="idieresis" unicode="&#xef;" horiz-adv-x="224" 
d="M55 511h114v-511h-114v511zM-15 683h97v-107h-97v107zM140 683h97v-107h-97v107z" />
    <glyph glyph-name="eth" unicode="&#xf0;" horiz-adv-x="518" 
d="M254 78q28 0 49.5 12.5t35.5 35t21.5 53.5t7.5 68q0 23 -8.5 45.5t-23.5 40.5t-35.5 29.5t-45.5 11.5q-48 0 -76.5 -38.5t-29.5 -104.5q0 -72 28.5 -112.5t76.5 -40.5zM324 713l-52 -37q97 -23 153.5 -121.5t56.5 -273.5q0 -63 -15.5 -116.5t-44.5 -91.5t-72 -59.5
t-99 -21.5q-51 0 -91 19.5t-68 53t-42.5 77t-14.5 91.5q0 52 14 92t38 67.5t55.5 41.5t66.5 14q63 0 105.5 -36.5t57.5 -96.5q-1 60 -12 113.5t-32.5 94t-55 66t-78.5 30.5l-94 -68l-34 46l223 163z" />
    <glyph glyph-name="ntilde" unicode="&#xf1;" horiz-adv-x="493" 
d="M305 523q30 0 58 -11t49.5 -35.5t34 -63.5t12.5 -95v-318h-113v303q0 26 -4.5 49t-15 40t-27.5 27t-41 10q-25 0 -44 -12t-31.5 -31.5t-18.5 -44.5t-6 -50v-291h-114v371q0 37 -1 75.5t-3 64.5h118v-153q5 31 16 60.5t29 53t43.5 37.5t58.5 14zM312 574q-22 0 -39 11
t-32 24t-28 24t-28 11q-11 0 -17 -7.5t-9 -18t-3.5 -21.5t-0.5 -18h-53q0 14 2.5 38.5t10.5 47.5t24.5 40t44.5 17q23 0 39 -11t30.5 -24t28 -24t29.5 -11q11 0 16.5 7t8.5 17.5t3.5 21.5t0.5 19h51q0 -22 -2 -47t-10 -46.5t-24 -35.5t-43 -14z" />
    <glyph glyph-name="ograve" unicode="&#xf2;" horiz-adv-x="506" 
d="M253 436q-30 0 -51.5 -16t-35 -41.5t-19.5 -58t-6 -65.5q0 -36 7 -68t21.5 -57t35 -39.5t47.5 -14.5t48 15t35 40t21.5 57.5t7.5 68.5q0 32 -5.5 63.5t-18.5 57.5t-34.5 42t-52.5 16zM254 524q51 0 92.5 -18t71.5 -52.5t46 -83.5t16 -111q0 -65 -17 -115.5t-47 -85
t-72.5 -52.5t-93.5 -18q-49 0 -90.5 18t-71.5 52.5t-46.5 83.5t-16.5 112t16 113t46 85t72.5 53.5t94.5 18.5zM275 728l46 -175h-65l-72 175h91z" />
    <glyph glyph-name="oacute" unicode="&#xf3;" horiz-adv-x="506" 
d="M253 436q-30 0 -51.5 -16t-35 -41.5t-19.5 -58t-6 -65.5q0 -36 7 -68t21.5 -57t35 -39.5t47.5 -14.5t48 15t35 40t21.5 57.5t7.5 68.5q0 32 -5.5 63.5t-18.5 57.5t-34.5 42t-52.5 16zM254 524q51 0 92.5 -18t71.5 -52.5t46 -83.5t16 -111q0 -65 -17 -115.5t-47 -85
t-72.5 -52.5t-93.5 -18q-49 0 -90.5 18t-71.5 52.5t-46.5 83.5t-16.5 112t16 113t46 85t72.5 53.5t94.5 18.5zM321 728l-72 -175h-65l46 175h91z" />
    <glyph glyph-name="ocircumflex" unicode="&#xf4;" horiz-adv-x="506" 
d="M253 436q-30 0 -51.5 -16t-35 -41.5t-19.5 -58t-6 -65.5q0 -36 7 -68t21.5 -57t35 -39.5t47.5 -14.5t48 15t35 40t21.5 57.5t7.5 68.5q0 32 -5.5 63.5t-18.5 57.5t-34.5 42t-52.5 16zM254 524q51 0 92.5 -18t71.5 -52.5t46 -83.5t16 -111q0 -65 -17 -115.5t-47 -85
t-72.5 -52.5t-93.5 -18q-49 0 -90.5 18t-71.5 52.5t-46.5 83.5t-16.5 112t16 113t46 85t72.5 53.5t94.5 18.5zM296 728l94 -175h-76l-60 112l-60 -112h-77l94 175h85z" />
    <glyph glyph-name="otilde" unicode="&#xf5;" horiz-adv-x="506" 
d="M253 436q-30 0 -51.5 -16t-35 -41.5t-19.5 -58t-6 -65.5q0 -36 7 -68t21.5 -57t35 -39.5t47.5 -14.5t48 15t35 40t21.5 57.5t7.5 68.5q0 32 -5.5 63.5t-18.5 57.5t-34.5 42t-52.5 16zM254 524q51 0 92.5 -18t71.5 -52.5t46 -83.5t16 -111q0 -65 -17 -115.5t-47 -85
t-72.5 -52.5t-93.5 -18q-49 0 -90.5 18t-71.5 52.5t-46.5 83.5t-16.5 112t16 113t46 85t72.5 53.5t94.5 18.5zM318 574q-22 0 -39 11t-32 24t-28 24t-28 11q-11 0 -17 -7.5t-9 -18t-3.5 -21.5t-0.5 -18h-53q0 14 2.5 38.5t10.5 47.5t24.5 40t44.5 17q23 0 39 -11t30.5 -24
t28 -24t29.5 -11q11 0 16.5 7t8.5 17.5t3.5 21.5t0.5 19h51q0 -22 -2 -47t-10 -46.5t-24 -35.5t-43 -14z" />
    <glyph glyph-name="odieresis" unicode="&#xf6;" horiz-adv-x="506" 
d="M253 436q-30 0 -51.5 -16t-35 -41.5t-19.5 -58t-6 -65.5q0 -36 7 -68t21.5 -57t35 -39.5t47.5 -14.5t48 15t35 40t21.5 57.5t7.5 68.5q0 32 -5.5 63.5t-18.5 57.5t-34.5 42t-52.5 16zM254 524q51 0 92.5 -18t71.5 -52.5t46 -83.5t16 -111q0 -65 -17 -115.5t-47 -85
t-72.5 -52.5t-93.5 -18q-49 0 -90.5 18t-71.5 52.5t-46.5 83.5t-16.5 112t16 113t46 85t72.5 53.5t94.5 18.5zM127 683h97v-107h-97v107zM282 683h97v-107h-97v107z" />
    <glyph glyph-name="divide" unicode="&#xf7;" horiz-adv-x="616" 
d="M40 329h536v-76h-536v76zM256 545h103v-118h-103v118zM256 155h103v-118h-103v118z" />
    <glyph glyph-name="oslash" unicode="&#xf8;" horiz-adv-x="506" 
d="M156 158l160 253q-13 11 -28 17.5t-35 6.5q-30 0 -51.5 -15.5t-35 -41t-19.5 -58t-6 -65.5q0 -53 15 -97zM349 356l-161 -253q13 -13 29 -20.5t35 -7.5q27 0 48 15t35 40t21.5 57.5t7.5 68.5q0 26 -3.5 51.5t-11.5 48.5zM407 555l48 -31l-42 -66q32 -35 49.5 -85
t17.5 -115t-17 -115.5t-47 -85t-72.5 -52.5t-93.5 -18q-65 0 -115 32l-40 -63l-45 35l41 64q-32 35 -49 84.5t-17 113.5q0 63 16 113t46 85t72.5 53.5t94.5 18.5q65 0 114 -29z" />
    <glyph glyph-name="ugrave" unicode="&#xf9;" horiz-adv-x="493" 
d="M448 139q0 -36 1.5 -74.5t2.5 -64.5h-117v153q-5 -31 -16.5 -61t-29.5 -53.5t-43 -37.5t-58 -14q-30 0 -58 11t-49.5 35.5t-34.5 63.5t-13 95v318h114v-303q0 -26 4.5 -48.5t14.5 -39.5t27 -27t41 -10q25 0 44 12t31.5 31.5t19 44.5t6.5 50v290h113v-371zM269 728
l46 -175h-65l-72 175h91z" />
    <glyph glyph-name="uacute" unicode="&#xfa;" horiz-adv-x="493" 
d="M448 139q0 -36 1.5 -74.5t2.5 -64.5h-117v153q-5 -31 -16.5 -61t-29.5 -53.5t-43 -37.5t-58 -14q-30 0 -58 11t-49.5 35.5t-34.5 63.5t-13 95v318h114v-303q0 -26 4.5 -48.5t14.5 -39.5t27 -27t41 -10q25 0 44 12t31.5 31.5t19 44.5t6.5 50v290h113v-371zM315 728
l-72 -175h-65l46 175h91z" />
    <glyph glyph-name="ucircumflex" unicode="&#xfb;" horiz-adv-x="493" 
d="M448 139q0 -36 1.5 -74.5t2.5 -64.5h-117v153q-5 -31 -16.5 -61t-29.5 -53.5t-43 -37.5t-58 -14q-30 0 -58 11t-49.5 35.5t-34.5 63.5t-13 95v318h114v-303q0 -26 4.5 -48.5t14.5 -39.5t27 -27t41 -10q25 0 44 12t31.5 31.5t19 44.5t6.5 50v290h113v-371zM289 728
l94 -175h-76l-60 112l-60 -112h-77l94 175h85z" />
    <glyph glyph-name="udieresis" unicode="&#xfc;" horiz-adv-x="493" 
d="M448 139q0 -36 1.5 -74.5t2.5 -64.5h-117v153q-5 -31 -16.5 -61t-29.5 -53.5t-43 -37.5t-58 -14q-30 0 -58 11t-49.5 35.5t-34.5 63.5t-13 95v318h114v-303q0 -26 4.5 -48.5t14.5 -39.5t27 -27t41 -10q25 0 44 12t31.5 31.5t19 44.5t6.5 50v290h113v-371zM120 683h97
v-107h-97v107zM275 683h97v-107h-97v107z" />
    <glyph glyph-name="yacute" unicode="&#xfd;" horiz-adv-x="473" 
d="M133 511l85 -281q8 -25 14.5 -51t11.5 -48h3q5 21 11.5 47.5t13.5 51.5l74 281h119l-118 -353q-42 -121 -77.5 -196.5t-80.5 -119.5q-35 -34 -67.5 -49.5t-52.5 -19.5l-30 96q17 6 36.5 16.5t38.5 27.5q8 7 20 20t23 28.5t19 31t8 26.5q0 5 -1 10t-4 13l-170 469h124z
M305 728l-72 -175h-65l46 175h91z" />
    <glyph glyph-name="thorn" unicode="&#xfe;" horiz-adv-x="531" 
d="M270 173q27 0 47.5 13.5t35 37t21.5 55t7 67.5q0 38 -7.5 71t-21.5 57t-35.5 38t-49.5 14q-22 0 -41.5 -14t-34.5 -37t-23.5 -52t-8.5 -59v-35q0 -28 8.5 -56t23 -50t35 -36t44.5 -14zM314 617q37 0 70 -17t57.5 -51t39 -85t14.5 -119q0 -60 -13.5 -108.5t-37.5 -83
t-57 -53.5t-72 -19q-60 0 -99.5 45t-55.5 128l-1 -279h-113v603q0 43 -1 82t-3 65h118v-282q15 78 54 126t100 48z" />
    <glyph glyph-name="ydieresis" unicode="&#xff;" horiz-adv-x="473" 
d="M133 511l85 -281q8 -25 14.5 -51t11.5 -48h3q5 21 11.5 47.5t13.5 51.5l74 281h119l-118 -353q-42 -121 -77.5 -196.5t-80.5 -119.5q-35 -34 -67.5 -49.5t-52.5 -19.5l-30 96q17 6 36.5 16.5t38.5 27.5q8 7 20 20t23 28.5t19 31t8 26.5q0 5 -1 10t-4 13l-170 469h124z
M110 683h97v-107h-97v107zM265 683h97v-107h-97v107z" />
    <glyph glyph-name="Amacron" unicode="&#x100;" horiz-adv-x="586" 
d="M373 286l-49 175q-9 34 -17 71t-16 69h-2q-8 -33 -16 -70.5t-16 -69.5l-49 -175h165zM190 199l-55 -199h-115l204 700h139l203 -700h-118l-58 199h-200zM169 863h248v-66h-248v66z" />
    <glyph glyph-name="amacron" unicode="&#x101;" horiz-adv-x="477" 
d="M326 255q-31 0 -63.5 -3.5t-58.5 -14.5t-42.5 -31.5t-16.5 -53.5q0 -42 22 -62t53 -20q24 0 43.5 10.5t33.5 27.5t21.5 38t7.5 41v68zM326 0v126q-5 -27 -16.5 -52t-29.5 -44t-43 -30.5t-57 -11.5q-37 0 -64.5 12.5t-46 33.5t-27.5 48.5t-9 57.5q0 50 21 86t59.5 59
t92 34t118.5 11v16q0 17 -4.5 34t-15 30.5t-28 22t-43.5 8.5q-40 0 -64.5 -23.5t-24.5 -70.5h-97q0 82 50 129.5t144 47.5q57 0 94.5 -16t60 -43t32 -63t9.5 -76v-207q0 -32 1.5 -63t5.5 -56h-118zM115 674h248v-66h-248v66z" />
    <glyph glyph-name="Abreve" unicode="&#x102;" horiz-adv-x="586" 
d="M373 286l-49 175q-9 34 -17 71t-16 69h-2q-8 -33 -16 -70.5t-16 -69.5l-49 -175h165zM190 199l-55 -199h-115l204 700h139l203 -700h-118l-58 199h-200zM423 911q0 -81 -36 -116t-94 -35q-59 0 -95 36.5t-36 114.5h68q0 -35 13.5 -55.5t49.5 -20.5q35 0 48.5 20.5
t13.5 55.5h68z" />
    <glyph glyph-name="abreve" unicode="&#x103;" horiz-adv-x="477" 
d="M326 255q-31 0 -63.5 -3.5t-58.5 -14.5t-42.5 -31.5t-16.5 -53.5q0 -42 22 -62t53 -20q24 0 43.5 10.5t33.5 27.5t21.5 38t7.5 41v68zM326 0v126q-5 -27 -16.5 -52t-29.5 -44t-43 -30.5t-57 -11.5q-37 0 -64.5 12.5t-46 33.5t-27.5 48.5t-9 57.5q0 50 21 86t59.5 59
t92 34t118.5 11v16q0 17 -4.5 34t-15 30.5t-28 22t-43.5 8.5q-40 0 -64.5 -23.5t-24.5 -70.5h-97q0 82 50 129.5t144 47.5q57 0 94.5 -16t60 -43t32 -63t9.5 -76v-207q0 -32 1.5 -63t5.5 -56h-118zM369 722q0 -81 -36 -116t-94 -35q-59 0 -95 36.5t-36 114.5h68
q0 -35 13.5 -55.5t49.5 -20.5q35 0 48.5 20.5t13.5 55.5h68z" />
    <glyph glyph-name="Aogonek" unicode="&#x104;" horiz-adv-x="586" 
d="M373 286l-49 175q-9 34 -17 71t-16 69h-2q-8 -33 -16 -70.5t-16 -69.5l-49 -175h165zM190 199l-55 -199h-115l204 700h139l203 -700h-118l-58 199h-200zM561 9l5 -9q-8 -5 -18 -12t-18.5 -16.5t-14.5 -20.5t-6 -24q0 -14 11 -24t31 -10q11 0 26.5 3.5t26.5 8.5v-79
q-11 -8 -31 -13.5t-40 -5.5q-40 0 -66.5 19.5t-26.5 61.5q0 24 13.5 43.5t32.5 34.5t40 25.5z" />
    <glyph glyph-name="aogonek" unicode="&#x105;" horiz-adv-x="477" 
d="M326 255q-31 0 -63.5 -3.5t-58.5 -14.5t-42.5 -31.5t-16.5 -53.5q0 -42 22 -62t53 -20q24 0 43.5 10.5t33.5 27.5t21.5 38t7.5 41v68zM326 0v126q-5 -27 -16.5 -52t-29.5 -44t-43 -30.5t-57 -11.5q-37 0 -64.5 12.5t-46 33.5t-27.5 48.5t-9 57.5q0 50 21 86t59.5 59
t92 34t118.5 11v16q0 17 -4.5 34t-15 30.5t-28 22t-43.5 8.5q-40 0 -64.5 -23.5t-24.5 -70.5h-97q0 82 50 129.5t144 47.5q57 0 94.5 -16t60 -43t32 -63t9.5 -76v-207q0 -32 1.5 -63t5.5 -56h-118zM439 10l5 -9q-8 -5 -18 -12t-18.5 -16.5t-14.5 -20.5t-6 -24q0 -14 11 -24
t31 -10q11 0 26.5 3.5t26.5 8.5v-79q-11 -8 -31 -13.5t-40 -5.5q-40 0 -66.5 19.5t-26.5 61.5q0 24 13.5 43.5t32.5 34.5t40 25.5z" />
    <glyph glyph-name="Cacute" unicode="&#x106;" horiz-adv-x="639" 
d="M594 278q-14 -139 -85 -214.5t-189 -75.5q-66 0 -119 26.5t-90 73.5t-56.5 113.5t-19.5 145.5q0 82 20.5 149.5t58 115.5t91.5 74.5t120 26.5q61 0 108.5 -20.5t81.5 -58t54 -90.5t26 -118h-117q-4 41 -15.5 76.5t-31 61.5t-46.5 41t-62 15q-42 0 -73.5 -21.5t-53 -58.5
t-32 -86.5t-10.5 -105.5q0 -55 11 -103.5t32.5 -85t53 -57.5t72.5 -21q66 0 105.5 53t49.5 144h116zM390 917l-72 -175h-65l46 175h91z" />
    <glyph glyph-name="cacute" unicode="&#x107;" 
d="M458 197q-10 -94 -63 -151.5t-146 -57.5q-50 0 -91 18.5t-70.5 53t-46 84t-16.5 111.5q0 61 15 110.5t44 85t71 54.5t95 19q91 0 144.5 -54.5t63.5 -154.5h-109q-7 53 -31 87t-69 34q-28 0 -48.5 -15.5t-33.5 -40.5t-19.5 -57.5t-6.5 -66.5q0 -36 7 -69t20.5 -57.5
t34 -39t47.5 -14.5q45 0 69 33.5t30 87.5h109zM310 728l-72 -175h-65l46 175h91z" />
    <glyph glyph-name="Ccircumflex" unicode="&#x108;" horiz-adv-x="639" 
d="M594 278q-14 -139 -85 -214.5t-189 -75.5q-66 0 -119 26.5t-90 73.5t-56.5 113.5t-19.5 145.5q0 82 20.5 149.5t58 115.5t91.5 74.5t120 26.5q61 0 108.5 -20.5t81.5 -58t54 -90.5t26 -118h-117q-4 41 -15.5 76.5t-31 61.5t-46.5 41t-62 15q-42 0 -73.5 -21.5t-53 -58.5
t-32 -86.5t-10.5 -105.5q0 -55 11 -103.5t32.5 -85t53 -57.5t72.5 -21q66 0 105.5 53t49.5 144h116zM365 917l94 -175h-76l-60 112l-60 -112h-77l94 175h85z" />
    <glyph glyph-name="ccircumflex" unicode="&#x109;" 
d="M458 197q-10 -94 -63 -151.5t-146 -57.5q-50 0 -91 18.5t-70.5 53t-46 84t-16.5 111.5q0 61 15 110.5t44 85t71 54.5t95 19q91 0 144.5 -54.5t63.5 -154.5h-109q-7 53 -31 87t-69 34q-28 0 -48.5 -15.5t-33.5 -40.5t-19.5 -57.5t-6.5 -66.5q0 -36 7 -69t20.5 -57.5
t34 -39t47.5 -14.5q45 0 69 33.5t30 87.5h109zM285 728l94 -175h-76l-60 112l-60 -112h-77l94 175h85z" />
    <glyph glyph-name="Cdotaccent" unicode="&#x10a;" horiz-adv-x="639" 
d="M594 278q-14 -139 -85 -214.5t-189 -75.5q-66 0 -119 26.5t-90 73.5t-56.5 113.5t-19.5 145.5q0 82 20.5 149.5t58 115.5t91.5 74.5t120 26.5q61 0 108.5 -20.5t81.5 -58t54 -90.5t26 -118h-117q-4 41 -15.5 76.5t-31 61.5t-46.5 41t-62 15q-42 0 -73.5 -21.5t-53 -58.5
t-32 -86.5t-10.5 -105.5q0 -55 11 -103.5t32.5 -85t53 -57.5t72.5 -21q66 0 105.5 53t49.5 144h116zM265 887h112v-118h-112v118z" />
    <glyph glyph-name="cdotaccent" unicode="&#x10b;" 
d="M458 197q-10 -94 -63 -151.5t-146 -57.5q-50 0 -91 18.5t-70.5 53t-46 84t-16.5 111.5q0 61 15 110.5t44 85t71 54.5t95 19q91 0 144.5 -54.5t63.5 -154.5h-109q-7 53 -31 87t-69 34q-28 0 -48.5 -15.5t-33.5 -40.5t-19.5 -57.5t-6.5 -66.5q0 -36 7 -69t20.5 -57.5
t34 -39t47.5 -14.5q45 0 69 33.5t30 87.5h109zM185 698h112v-118h-112v118z" />
    <glyph glyph-name="Ccaron" unicode="&#x10c;" horiz-adv-x="636" 
d="M591 278q-14 -139 -85 -214.5t-189 -75.5q-66 0 -119 26.5t-90 73.5t-56.5 113.5t-19.5 145.5q0 82 20.5 149.5t58 115.5t91.5 74.5t120 26.5q61 0 108.5 -20.5t81.5 -58t54 -90.5t26 -118h-117q-4 41 -15.5 76.5t-31 61.5t-46.5 41t-62 15q-42 0 -73.5 -21.5t-53 -58.5
t-32 -86.5t-10.5 -105.5q0 -55 11 -103.5t32.5 -85t53 -57.5t72.5 -21q66 0 105.5 53t49.5 144h116zM455 917l-94 -175h-85l-94 175h77l60 -112l60 112h76z" />
    <glyph glyph-name="ccaron" unicode="&#x10d;" 
d="M458 197q-10 -94 -63 -151.5t-146 -57.5q-50 0 -91 18.5t-70.5 53t-46 84t-16.5 111.5q0 61 15 110.5t44 85t71 54.5t95 19q91 0 144.5 -54.5t63.5 -154.5h-109q-7 53 -31 87t-69 34q-28 0 -48.5 -15.5t-33.5 -40.5t-19.5 -57.5t-6.5 -66.5q0 -36 7 -69t20.5 -57.5
t34 -39t47.5 -14.5q45 0 69 33.5t30 87.5h109zM378 728l-94 -175h-85l-94 175h77l60 -112l60 112h76z" />
    <glyph glyph-name="Dcaron" unicode="&#x10e;" horiz-adv-x="603" 
d="M158 86h61q107 0 169.5 66.5t62.5 211.5q1 120 -54.5 185t-165.5 65h-73v-528zM45 700h174q86 0 146.5 -16t102.5 -53q48 -41 75 -105.5t27 -159.5q0 -100 -27.5 -169.5t-73.5 -113.5q-47 -45 -117 -64t-160 -19h-147v700zM438 917l-94 -175h-85l-94 175h77l60 -112
l60 112h76z" />
    <glyph glyph-name="dcaron" unicode="&#x10f;" horiz-adv-x="637" 
d="M252 431q-28 0 -49 -14t-35 -37.5t-21 -55t-7 -66.5q0 -40 7.5 -73t22.5 -56.5t36 -36.5t48 -13q22 0 41.5 14t34.5 36.5t23.5 51t8.5 58.5v37q0 29 -8.5 57t-23.5 49.5t-35 35t-43 13.5zM206 523q57 0 97.5 -43.5t57.5 -129.5l1 393h113v-605q0 -37 1 -74.5t3 -63.5
h-118v161q-7 -38 -20.5 -70t-33 -55t-44.5 -36t-54 -13q-38 0 -71.5 17.5t-58 52t-39 86t-14.5 120.5q0 58 12.5 105.5t36.5 82t57.5 53.5t73.5 19zM569 743h83l-69 -168h-58z" />
    <glyph glyph-name="Dcroat" unicode="&#x110;" horiz-adv-x="608" 
d="M162 86h62q53 0 96 16t73 50t46.5 86.5t16.5 125.5q0 120 -55.5 185t-164.5 65h-74v-224h70v-67h-70v-237zM472 631q48 -41 75 -105.5t27 -159.5q0 -100 -27.5 -169.5t-73.5 -113.5q-46 -45 -116 -64t-161 -19h-147v323h-49v67h49v310h174q86 0 146.5 -16t102.5 -53z" />
    <glyph glyph-name="dcroat" unicode="&#x111;" horiz-adv-x="520" 
d="M252 431q-28 0 -49 -14t-35 -37.5t-21 -55t-7 -66.5q0 -40 7.5 -73t22.5 -56.5t36 -36.5t48 -13q22 0 41.5 14t34.5 36.5t23.5 51t8.5 58.5v37q0 29 -8.5 57t-23.5 49.5t-35 35t-43 13.5zM521 674v-66h-46v-470q0 -37 1 -74.5t3 -63.5h-118v161q-7 -38 -20.5 -70t-33 -55
t-44.5 -36t-54 -13q-38 0 -71.5 17.5t-58 52t-39 86t-14.5 120.5q0 58 12.5 105.5t36.5 82t57.5 53.5t73.5 19q57 0 97.5 -43.5t57.5 -129.5v258h-106v66h106l1 69h113v-69h46z" />
    <glyph glyph-name="Emacron" unicode="&#x112;" horiz-adv-x="456" 
d="M406 700v-95h-248v-194h234v-93h-234v-223h262v-95h-375v700h361zM104 863h248v-66h-248v66z" />
    <glyph glyph-name="emacron" unicode="&#x113;" 
d="M249 436q-45 0 -70.5 -36t-33.5 -87h204q-1 24 -8 46t-20 39.5t-31 27.5t-41 10zM458 308q1 -16 0 -32t-3 -28h-314q1 -24 6.5 -53.5t17.5 -56t32.5 -44.5t50.5 -18q42 0 65.5 29.5t31.5 73.5h108q-14 -86 -65 -138.5t-139 -52.5q-50 0 -91.5 18.5t-71 53t-45.5 84
t-16 111.5q0 61 15 110.5t44 85t71 54.5t95 19q47 0 84.5 -16t64 -44.5t41.5 -68t18 -87.5zM118 674h248v-66h-248v66z" />
    <glyph glyph-name="Ebreve" unicode="&#x114;" horiz-adv-x="456" 
d="M406 700v-95h-248v-194h234v-93h-234v-223h262v-95h-375v700h361zM358 911q0 -81 -36 -116t-94 -35q-59 0 -95 36.5t-36 114.5h68q0 -35 13.5 -55.5t49.5 -20.5q35 0 48.5 20.5t13.5 55.5h68z" />
    <glyph glyph-name="ebreve" unicode="&#x115;" 
d="M249 436q-45 0 -70.5 -36t-33.5 -87h204q-1 24 -8 46t-20 39.5t-31 27.5t-41 10zM458 308q1 -16 0 -32t-3 -28h-314q1 -24 6.5 -53.5t17.5 -56t32.5 -44.5t50.5 -18q42 0 65.5 29.5t31.5 73.5h108q-14 -86 -65 -138.5t-139 -52.5q-50 0 -91.5 18.5t-71 53t-45.5 84
t-16 111.5q0 61 15 110.5t44 85t71 54.5t95 19q47 0 84.5 -16t64 -44.5t41.5 -68t18 -87.5zM372 722q0 -81 -36 -116t-94 -35q-59 0 -95 36.5t-36 114.5h68q0 -35 13.5 -55.5t49.5 -20.5q35 0 48.5 20.5t13.5 55.5h68z" />
    <glyph glyph-name="Edotaccent" unicode="&#x116;" horiz-adv-x="456" 
d="M406 700v-95h-248v-194h234v-93h-234v-223h262v-95h-375v700h361zM171 887h112v-118h-112v118z" />
    <glyph glyph-name="edotaccent" unicode="&#x117;" 
d="M249 436q-45 0 -70.5 -36t-33.5 -87h204q-1 24 -8 46t-20 39.5t-31 27.5t-41 10zM458 308q1 -16 0 -32t-3 -28h-314q1 -24 6.5 -53.5t17.5 -56t32.5 -44.5t50.5 -18q42 0 65.5 29.5t31.5 73.5h108q-14 -86 -65 -138.5t-139 -52.5q-50 0 -91.5 18.5t-71 53t-45.5 84
t-16 111.5q0 61 15 110.5t44 85t71 54.5t95 19q47 0 84.5 -16t64 -44.5t41.5 -68t18 -87.5zM185 698h112v-118h-112v118z" />
    <glyph glyph-name="Eogonek" unicode="&#x118;" horiz-adv-x="456" 
d="M45 0v700h361v-95h-248v-194h234v-93h-234v-223h262v-95q-8 -5 -18 -12t-18.5 -16.5t-14.5 -20.5t-6 -24q0 -14 11 -24t30 -10q11 0 27 3.5t27 8.5v-79q-11 -8 -31 -13.5t-40 -5.5q-40 0 -66.5 19.5t-26.5 61.5q0 21 10.5 38t26 31t33.5 24.5t33 18.5h-352z" />
    <glyph glyph-name="eogonek" unicode="&#x119;" 
d="M249 436q-45 0 -70.5 -36t-33.5 -87h204q-1 24 -8 46t-20 39.5t-31 27.5t-41 10zM458 308q1 -16 0 -32t-3 -28h-314q1 -24 6.5 -53.5t17.5 -56t32.5 -44.5t50.5 -18q42 0 65.5 29.5t31.5 73.5h108q-14 -86 -65 -138.5t-139 -52.5q-50 0 -91.5 18.5t-71 53t-45.5 84
t-16 111.5q0 61 15 110.5t44 85t71 54.5t95 19q47 0 84.5 -16t64 -44.5t41.5 -68t18 -87.5zM319 11l5 -9q-8 -5 -18 -12t-18.5 -16.5t-14.5 -20.5t-6 -24q0 -14 11 -24t31 -10q11 0 26.5 3.5t26.5 8.5v-79q-11 -8 -31 -13.5t-40 -5.5q-40 0 -66.5 19.5t-26.5 61.5
q0 24 13.5 43.5t32.5 34.5t40 25.5z" />
    <glyph glyph-name="Ecaron" unicode="&#x11a;" horiz-adv-x="456" 
d="M406 700v-95h-248v-194h234v-93h-234v-223h262v-95h-375v700h361zM364 917l-94 -175h-85l-94 175h77l60 -112l60 112h76z" />
    <glyph glyph-name="ecaron" unicode="&#x11b;" 
d="M249 436q-45 0 -70.5 -36t-33.5 -87h204q-1 24 -8 46t-20 39.5t-31 27.5t-41 10zM458 308q1 -16 0 -32t-3 -28h-314q1 -24 6.5 -53.5t17.5 -56t32.5 -44.5t50.5 -18q42 0 65.5 29.5t31.5 73.5h108q-14 -86 -65 -138.5t-139 -52.5q-50 0 -91.5 18.5t-71 53t-45.5 84
t-16 111.5q0 61 15 110.5t44 85t71 54.5t95 19q47 0 84.5 -16t64 -44.5t41.5 -68t18 -87.5zM378 728l-94 -175h-85l-94 175h77l60 -112l60 112h76z" />
    <glyph glyph-name="Gcircumflex" unicode="&#x11c;" horiz-adv-x="641" 
d="M326 281v80l269 1v-362h-113v189q-9 -39 -25.5 -75.5t-40.5 -64.5t-55.5 -44.5t-71.5 -16.5q-57 0 -104 25.5t-80.5 72t-51.5 113t-18 148.5q0 80 20 147.5t57.5 116t91.5 75.5t121 27q61 0 108.5 -20.5t81 -58t53.5 -90t26 -117.5h-116q-4 41 -15.5 76.5t-31 61.5
t-46.5 40.5t-62 14.5q-42 0 -74 -21.5t-53 -58.5t-31.5 -86.5t-10.5 -105.5q0 -55 10.5 -103.5t31.5 -85t52.5 -57.5t72.5 -21q32 0 59 16t48 43t34.5 63.5t18.5 77.5h-155zM366 917l94 -175h-76l-60 112l-60 -112h-77l94 175h85z" />
    <glyph glyph-name="gcircumflex" unicode="&#x11d;" horiz-adv-x="522" 
d="M363 291q0 20 -6.5 45t-19.5 46.5t-32.5 36t-45.5 14.5q-50 0 -80 -46.5t-30 -123.5q0 -36 7.5 -66.5t22 -52t35 -34t46.5 -12.5q22 0 41 13t32.5 34t21.5 48t8 56v42zM364 511h117q-2 -28 -3.5 -62t-1.5 -85l1 -323q0 -60 -12.5 -108.5t-39.5 -82t-68.5 -52
t-100.5 -18.5q-92 0 -144.5 54t-55.5 145h101q2 -51 29.5 -82t69.5 -31q55 0 82 37t27 118l-1 154q-12 -75 -50.5 -119t-92.5 -44q-40 0 -74 17.5t-59 49t-39 76t-14 98.5q0 65 14.5 115t40 84.5t60.5 52.5t75 18q33 0 57 -14t40.5 -37t26.5 -52.5t15 -61.5v153zM304 728
l94 -175h-76l-60 112l-60 -112h-77l94 175h85z" />
    <glyph glyph-name="Gbreve" unicode="&#x11e;" horiz-adv-x="641" 
d="M326 281v80l269 1v-362h-113v189q-9 -39 -25.5 -75.5t-40.5 -64.5t-55.5 -44.5t-71.5 -16.5q-57 0 -104 25.5t-80.5 72t-51.5 113t-18 148.5q0 80 20 147.5t57.5 116t91.5 75.5t121 27q61 0 108.5 -20.5t81 -58t53.5 -90t26 -117.5h-116q-4 41 -15.5 76.5t-31 61.5
t-46.5 40.5t-62 14.5q-42 0 -74 -21.5t-53 -58.5t-31.5 -86.5t-10.5 -105.5q0 -55 10.5 -103.5t31.5 -85t52.5 -57.5t72.5 -21q32 0 59 16t48 43t34.5 63.5t18.5 77.5h-155zM453 911q0 -81 -36 -116t-94 -35q-59 0 -95 36.5t-36 114.5h68q0 -35 13.5 -55.5t49.5 -20.5
q35 0 48.5 20.5t13.5 55.5h68z" />
    <glyph glyph-name="gbreve" unicode="&#x11f;" horiz-adv-x="522" 
d="M363 291q0 20 -6.5 45t-19.5 46.5t-32.5 36t-45.5 14.5q-50 0 -80 -46.5t-30 -123.5q0 -36 7.5 -66.5t22 -52t35 -34t46.5 -12.5q22 0 41 13t32.5 34t21.5 48t8 56v42zM364 511h117q-2 -28 -3.5 -62t-1.5 -85l1 -323q0 -60 -12.5 -108.5t-39.5 -82t-68.5 -52
t-100.5 -18.5q-92 0 -144.5 54t-55.5 145h101q2 -51 29.5 -82t69.5 -31q55 0 82 37t27 118l-1 154q-12 -75 -50.5 -119t-92.5 -44q-40 0 -74 17.5t-59 49t-39 76t-14 98.5q0 65 14.5 115t40 84.5t60.5 52.5t75 18q33 0 57 -14t40.5 -37t26.5 -52.5t15 -61.5v153zM391 722
q0 -81 -36 -116t-94 -35q-59 0 -95 36.5t-36 114.5h68q0 -35 13.5 -55.5t49.5 -20.5q35 0 48.5 20.5t13.5 55.5h68z" />
    <glyph glyph-name="Gdotaccent" unicode="&#x120;" horiz-adv-x="641" 
d="M326 281v80l269 1v-362h-113v189q-9 -39 -25.5 -75.5t-40.5 -64.5t-55.5 -44.5t-71.5 -16.5q-57 0 -104 25.5t-80.5 72t-51.5 113t-18 148.5q0 80 20 147.5t57.5 116t91.5 75.5t121 27q61 0 108.5 -20.5t81 -58t53.5 -90t26 -117.5h-116q-4 41 -15.5 76.5t-31 61.5
t-46.5 40.5t-62 14.5q-42 0 -74 -21.5t-53 -58.5t-31.5 -86.5t-10.5 -105.5q0 -55 10.5 -103.5t31.5 -85t52.5 -57.5t72.5 -21q32 0 59 16t48 43t34.5 63.5t18.5 77.5h-155zM266 887h112v-118h-112v118z" />
    <glyph glyph-name="gdotaccent" unicode="&#x121;" horiz-adv-x="522" 
d="M363 291q0 20 -6.5 45t-19.5 46.5t-32.5 36t-45.5 14.5q-50 0 -80 -46.5t-30 -123.5q0 -36 7.5 -66.5t22 -52t35 -34t46.5 -12.5q22 0 41 13t32.5 34t21.5 48t8 56v42zM364 511h117q-2 -28 -3.5 -62t-1.5 -85l1 -323q0 -60 -12.5 -108.5t-39.5 -82t-68.5 -52
t-100.5 -18.5q-92 0 -144.5 54t-55.5 145h101q2 -51 29.5 -82t69.5 -31q55 0 82 37t27 118l-1 154q-12 -75 -50.5 -119t-92.5 -44q-40 0 -74 17.5t-59 49t-39 76t-14 98.5q0 65 14.5 115t40 84.5t60.5 52.5t75 18q33 0 57 -14t40.5 -37t26.5 -52.5t15 -61.5v153zM204 698
h112v-118h-112v118z" />
    <glyph glyph-name="uni0122" unicode="&#x122;" horiz-adv-x="641" 
d="M326 281v80l269 1v-362h-113v189q-9 -39 -25.5 -75.5t-40.5 -64.5t-55.5 -44.5t-71.5 -16.5q-57 0 -104 25.5t-80.5 72t-51.5 113t-18 148.5q0 80 20 147.5t57.5 116t91.5 75.5t121 27q61 0 108.5 -20.5t81 -58t53.5 -90t26 -117.5h-116q-4 41 -15.5 76.5t-31 61.5
t-46.5 40.5t-62 14.5q-42 0 -74 -21.5t-53 -58.5t-31.5 -86.5t-10.5 -105.5q0 -55 10.5 -103.5t31.5 -85t52.5 -57.5t72.5 -21q32 0 59 16t48 43t34.5 63.5t18.5 77.5h-155zM243 -270v55q49 0 49 58v11h-52v100h118v-92q0 -65 -28.5 -98.5t-86.5 -33.5z" />
    <glyph glyph-name="uni0123" unicode="&#x123;" horiz-adv-x="522" 
d="M363 291q0 20 -6.5 45t-19.5 46.5t-32.5 36t-45.5 14.5q-50 0 -80 -46.5t-30 -123.5q0 -36 7.5 -66.5t22 -52t35 -34t46.5 -12.5q22 0 41 13t32.5 34t21.5 48t8 56v42zM364 511h117q-2 -28 -3.5 -62t-1.5 -85l1 -323q0 -60 -12.5 -108.5t-39.5 -82t-68.5 -52
t-100.5 -18.5q-92 0 -144.5 54t-55.5 145h101q2 -51 29.5 -82t69.5 -31q55 0 82 37t27 118l-1 154q-12 -75 -50.5 -119t-92.5 -44q-40 0 -74 17.5t-59 49t-39 76t-14 98.5q0 65 14.5 115t40 84.5t60.5 52.5t75 18q33 0 57 -14t40.5 -37t26.5 -52.5t15 -61.5v153zM263 768h65
l-46 -175h-91z" />
    <glyph glyph-name="Hcircumflex" unicode="&#x124;" horiz-adv-x="580" 
d="M534 700v-700h-113v314h-263v-314h-113v700h113v-286h263v286h113zM333 917l94 -175h-76l-60 112l-60 -112h-77l94 175h85z" />
    <glyph glyph-name="hcircumflex" unicode="&#x125;" horiz-adv-x="487" 
d="M299 523q31 0 59 -11.5t49.5 -37t34 -65t12.5 -96.5v-313h-114v302q0 26 -4.5 49t-14.5 40t-26.5 27t-41.5 10q-24 0 -42.5 -11.5t-31.5 -31t-19.5 -44t-6.5 -51.5v-290h-113v744h113v-387q6 39 19.5 70t33 52t43.5 32.5t50 11.5zM219 959l94 -175h-76l-60 112l-60 -112
h-77l94 175h85z" />
    <glyph glyph-name="Hbar" unicode="&#x126;" horiz-adv-x="580" 
d="M159 546v-132h262v132h-262zM-2 546v66h48v88h113v-88h262v88h113v-88h48v-66h-48v-546h-113v314h-262v-314h-113v546h-48z" />
    <glyph glyph-name="hbar" unicode="&#x127;" horiz-adv-x="487" 
d="M-6 608v66h46v70h113v-70h107v-66h-107v-251q12 78 53 122t93 44q31 0 59 -11.5t49.5 -37t34 -65t12.5 -96.5v-313h-113v302q0 26 -4.5 49t-14.5 40t-27 27t-41 10t-43 -11.5t-32 -30.5t-19.5 -44t-6.5 -51v-291h-113v608h-46z" />
    <glyph glyph-name="Itilde" unicode="&#x128;" horiz-adv-x="239" 
d="M62 700h113v-700h-113v700zM184 763q-22 0 -39 11t-32 24t-28 24t-28 11q-11 0 -17 -7.5t-9 -18t-3.5 -21.5t-0.5 -18h-53q0 14 2.5 38.5t10.5 47.5t24.5 40t44.5 17q23 0 39 -11t30.5 -24t28 -24t29.5 -11q11 0 16.5 7t8.5 17.5t3.5 21.5t0.5 19h51q0 -22 -2 -47
t-10 -46.5t-24 -35.5t-43 -14z" />
    <glyph glyph-name="itilde" unicode="&#x129;" horiz-adv-x="224" 
d="M55 511h114v-511h-114v511zM177 574q-22 0 -39 11t-32 24t-28 24t-28 11q-11 0 -17 -7.5t-9 -18t-3.5 -21.5t-0.5 -18h-53q0 14 2.5 38.5t10.5 47.5t24.5 40t44.5 17q23 0 39 -11t30.5 -24t28 -24t29.5 -11q11 0 16.5 7t8.5 17.5t3.5 21.5t0.5 19h51q0 -22 -2 -47
t-10 -46.5t-24 -35.5t-43 -14z" />
    <glyph glyph-name="Imacron" unicode="&#x12a;" horiz-adv-x="239" 
d="M62 700h113v-700h-113v700zM-4 863h248v-66h-248v66z" />
    <glyph glyph-name="imacron" unicode="&#x12b;" horiz-adv-x="224" 
d="M55 511h114v-511h-114v511zM-12 674h248v-66h-248v66z" />
    <glyph glyph-name="Ibreve" unicode="&#x12c;" horiz-adv-x="239" 
d="M62 700h113v-700h-113v700zM249 911q0 -81 -36 -116t-94 -35q-59 0 -95 36.5t-36 114.5h68q0 -35 13.5 -55.5t49.5 -20.5q35 0 48.5 20.5t13.5 55.5h68z" />
    <glyph glyph-name="ibreve" unicode="&#x12d;" horiz-adv-x="224" 
d="M55 511h114v-511h-114v511zM242 722q0 -81 -36 -116t-94 -35q-59 0 -95 36.5t-36 114.5h68q0 -35 13.5 -55.5t49.5 -20.5q35 0 48.5 20.5t13.5 55.5h68z" />
    <glyph glyph-name="Iogonek" unicode="&#x12e;" horiz-adv-x="239" 
d="M62 700h113v-700h-113v700zM171 9l5 -9q-8 -5 -18 -12t-18.5 -16.5t-14.5 -20.5t-6 -24q0 -14 11 -24t31 -10q11 0 26.5 3.5t26.5 8.5v-79q-11 -8 -31 -13.5t-40 -5.5q-40 0 -66.5 19.5t-26.5 61.5q0 24 13.5 43.5t32.5 34.5t40 25.5z" />
    <glyph glyph-name="iogonek" unicode="&#x12f;" horiz-adv-x="224" 
d="M55 511h113v-511h-113v511zM50 696h123v-103h-123v103zM164 9l5 -9q-8 -5 -18 -12t-18.5 -16.5t-14.5 -20.5t-6 -24q0 -14 11 -24t31 -10q11 0 26.5 3.5t26.5 8.5v-79q-11 -8 -31 -13.5t-40 -5.5q-40 0 -66.5 19.5t-26.5 61.5q0 24 13.5 43.5t32.5 34.5t40 25.5z" />
    <glyph glyph-name="Idotaccent" unicode="&#x130;" horiz-adv-x="239" 
d="M62 700h113v-700h-113v700zM63 887h112v-118h-112v118z" />
    <glyph glyph-name="dotlessi" unicode="&#x131;" horiz-adv-x="224" 
d="M55 511h114v-511h-114v511z" />
    <glyph glyph-name="IJ" unicode="&#x132;" horiz-adv-x="769" 
d="M62 700h113v-700h-113v700zM618 700h113v-429q0 -76 -16.5 -129.5t-47 -87.5t-73.5 -50t-95 -16t-94 15.5t-71.5 47.5t-45.5 81.5t-16 118.5v22h113v-21q0 -47 9 -79t24.5 -52t36.5 -28.5t45 -8.5q26 0 47.5 8.5t37.5 27.5t24.5 50.5t8.5 77.5v452z" />
    <glyph glyph-name="ij" unicode="&#x133;" horiz-adv-x="447" 
d="M55 511h113v-511h-113v511zM50 696h123v-103h-123v103zM276 593v103h122v-103h-122zM179 -126q25 0 44 4.5t31.5 19t19 40.5t6.5 68v505h114v-511q0 -61 -14 -103t-41.5 -68t-67.5 -37.5t-92 -11.5v94z" />
    <glyph glyph-name="Jcircumflex" unicode="&#x134;" horiz-adv-x="530" 
d="M379 700h113v-429q0 -76 -16.5 -129.5t-47 -87.5t-73.5 -50t-95 -16t-94 15.5t-71.5 47.5t-45.5 81.5t-16 118.5v22h113v-21q0 -47 9 -79t24.5 -52t36.5 -28.5t45 -8.5q26 0 47.5 8.5t37.5 27.5t24.5 50.5t8.5 77.5v452zM398 917l94 -175h-76l-60 112l-60 -112h-77
l94 175h85z" />
    <glyph glyph-name="jcircumflex" unicode="&#x135;" horiz-adv-x="230" 
d="M64 6v505h114v-511q0 -61 -14 -103t-41.5 -68t-67.5 -37.5t-92 -11.5v94q25 0 44 4.5t31.5 19t19 40.5t6.5 68zM162 728l94 -175h-76l-60 112l-60 -112h-77l94 175h85z" />
    <glyph glyph-name="uni0136" unicode="&#x136;" horiz-adv-x="554" 
d="M512 700l-260 -353l273 -347h-133l-235 298v-298h-112v700h112v-321l230 321h125zM219 -270v55q49 0 49 58v11h-52v100h118v-92q0 -65 -28.5 -98.5t-86.5 -33.5z" />
    <glyph glyph-name="uni0137" unicode="&#x137;" horiz-adv-x="475" 
d="M153 744v-452l169 219h126l-200 -256l211 -255h-135l-171 207v-207h-113v744h113zM182 -270v55q49 0 49 58v11h-52v100h118v-92q0 -65 -28.5 -98.5t-86.5 -33.5z" />
    <glyph glyph-name="kgreenlandic" unicode="&#x138;" horiz-adv-x="475" 
d="M448 511l-200 -256l211 -255h-135l-171 207v-207h-113v511h113v-219l169 219h126z" />
    <glyph glyph-name="Lacute" unicode="&#x139;" horiz-adv-x="458" 
d="M158 700v-605h269v-95h-382v700h113zM205 917l-72 -175h-65l46 175h91z" />
    <glyph glyph-name="lacute" unicode="&#x13a;" horiz-adv-x="214" 
d="M50 744h113v-744h-113v744zM209 959l-72 -175h-65l46 175h91z" />
    <glyph glyph-name="uni013B" unicode="&#x13b;" horiz-adv-x="458" 
d="M158 700v-605h269v-95h-382v700h113zM182 -270v55q49 0 49 58v11h-52v100h118v-92q0 -65 -28.5 -98.5t-86.5 -33.5z" />
    <glyph glyph-name="uni013C" unicode="&#x13c;" horiz-adv-x="214" 
d="M50 744h113v-744h-113v744zM51 -276v55q49 0 49 58v11h-52v100h118v-92q0 -65 -28.5 -98.5t-86.5 -33.5z" />
    <glyph glyph-name="Lcaron" unicode="&#x13d;" horiz-adv-x="458" 
d="M158 700v-605h269v-95h-382v700h113zM358 700l-69 -168h-59l45 168h83z" />
    <glyph glyph-name="lcaron" unicode="&#x13e;" horiz-adv-x="348" 
d="M163 744v-744h-113v744h113zM347 744l-72 -176h-64l45 176h91z" />
    <glyph glyph-name="Ldot" unicode="&#x13f;" horiz-adv-x="458" 
d="M158 700v-605h269v-95h-382v700h113zM356 279h-106v111h106v-111z" />
    <glyph glyph-name="ldot" unicode="&#x140;" horiz-adv-x="342" 
d="M163 744v-744h-113v744h113zM331 375v-115h-109v115h109z" />
    <glyph glyph-name="Lslash" unicode="&#x141;" horiz-adv-x="458" 
d="M-33 290l78 58v352h113v-269l126 92v-88l-126 -92v-248h269v-95h-382v260l-78 -57v87z" />
    <glyph glyph-name="lslash" unicode="&#x142;" horiz-adv-x="251" 
d="M0 260l68 56v428h114v-336l68 55v-89l-68 -56v-318h-114v227l-68 -55v88z" />
    <glyph glyph-name="Nacute" unicode="&#x143;" horiz-adv-x="583" 
d="M45 0v700h121l168 -312q30 -56 58 -115.5t50 -115.5l3 1q-6 71 -8.5 143t-2.5 157v242h103v-700h-113l-169 316q-29 55 -58.5 115.5t-52.5 119.5h-3q5 -67 6.5 -139.5t1.5 -166.5v-245h-104zM360 917l-72 -175h-65l46 175h91z" />
    <glyph glyph-name="nacute" unicode="&#x144;" horiz-adv-x="493" 
d="M305 523q30 0 58 -11t49.5 -35.5t34 -63.5t12.5 -95v-318h-113v303q0 26 -4.5 49t-15 40t-27.5 27t-41 10q-25 0 -44 -12t-31.5 -31.5t-18.5 -44.5t-6 -50v-291h-114v371q0 37 -1 75.5t-3 64.5h118v-153q5 31 16 60.5t29 53t43.5 37.5t58.5 14zM315 728l-72 -175h-65
l46 175h91z" />
    <glyph glyph-name="uni0145" unicode="&#x145;" horiz-adv-x="583" 
d="M45 0v700h121l168 -312q30 -56 58 -115.5t50 -115.5l3 1q-6 71 -8.5 143t-2.5 157v242h103v-700h-113l-169 316q-29 55 -58.5 115.5t-52.5 119.5h-3q5 -67 6.5 -139.5t1.5 -166.5v-245h-104zM236 -270v55q49 0 49 58v11h-52v100h118v-92q0 -65 -28.5 -98.5t-86.5 -33.5z
" />
    <glyph glyph-name="uni0146" unicode="&#x146;" horiz-adv-x="493" 
d="M305 523q30 0 58 -11t49.5 -35.5t34 -63.5t12.5 -95v-318h-113v303q0 26 -4.5 49t-15 40t-27.5 27t-41 10q-25 0 -44 -12t-31.5 -31.5t-18.5 -44.5t-6 -50v-291h-114v371q0 37 -1 75.5t-3 64.5h118v-153q5 31 16 60.5t29 53t43.5 37.5t58.5 14zM197 -276v55q49 0 49 58
v11h-52v100h118v-92q0 -65 -28.5 -98.5t-86.5 -33.5z" />
    <glyph glyph-name="Ncaron" unicode="&#x147;" horiz-adv-x="583" 
d="M45 0v700h121l168 -312q30 -56 58 -115.5t50 -115.5l3 1q-6 71 -8.5 143t-2.5 157v242h103v-700h-113l-169 316q-29 55 -58.5 115.5t-52.5 119.5h-3q5 -67 6.5 -139.5t1.5 -166.5v-245h-104zM427 917l-94 -175h-85l-94 175h77l60 -112l60 112h76z" />
    <glyph glyph-name="ncaron" unicode="&#x148;" horiz-adv-x="493" 
d="M305 523q30 0 58 -11t49.5 -35.5t34 -63.5t12.5 -95v-318h-113v303q0 26 -4.5 49t-15 40t-27.5 27t-41 10q-25 0 -44 -12t-31.5 -31.5t-18.5 -44.5t-6 -50v-291h-114v371q0 37 -1 75.5t-3 64.5h118v-153q5 31 16 60.5t29 53t43.5 37.5t58.5 14zM382 728l-94 -175h-85
l-94 175h77l60 -112l60 112h76z" />
    <glyph glyph-name="napostrophe" unicode="&#x149;" horiz-adv-x="613" 
d="M424 523q30 0 58 -11t49.5 -35.5t34.5 -63.5t13 -95v-318h-114v303q0 26 -4.5 49t-14.5 40t-27 27t-41 10q-25 0 -44 -12t-31.5 -31.5t-19 -44.5t-6.5 -50v-291h-113v371q0 37 -1.5 75.5t-2.5 64.5h117v-153q5 31 16.5 60.5t29.5 53t43 37.5t58 14zM137 511l-72 -175h-65
l46 175h91z" />
    <glyph glyph-name="Eng" unicode="&#x14a;" horiz-adv-x="583" 
d="M434 700h103v-703q0 -61 -14 -103t-41 -68t-67 -37.5t-93 -11.5v94q32 0 52 9t30.5 26t14.5 41t5 56l-169 313q-29 55 -58.5 115.5t-52.5 119.5h-3q5 -67 6.5 -139.5t1.5 -166.5v-245h-104v700h121l168 -312q30 -56 58 -115.5t50 -115.5l3 1q-6 71 -8.5 143t-2.5 157v242
z" />
    <glyph glyph-name="eng" unicode="&#x14b;" horiz-adv-x="493" 
d="M305 523q30 0 58 -11t49.5 -35.5t34 -63.5t12.5 -95v-329q0 -61 -14 -103t-41 -68t-67 -37.5t-93 -11.5v94q25 0 44 4.5t32 19t19.5 40.5t6.5 68v308q0 26 -4.5 48.5t-15 39.5t-27.5 27t-41 10q-25 0 -44 -12t-31.5 -31.5t-18.5 -44t-6 -50.5v-290h-114v371q0 36 -1 75
t-3 65h118v-154q5 32 16 61.5t29 53t43.5 37.5t58.5 14z" />
    <glyph glyph-name="Omacron" unicode="&#x14c;" horiz-adv-x="642" 
d="M321 81q41 0 72.5 21t53 57.5t32.5 85.5t11 106q0 54 -10.5 103t-31.5 85.5t-53 58.5t-74 22t-73.5 -21.5t-53 -58.5t-32 -86.5t-10.5 -105.5q0 -55 11 -103.5t32.5 -85t53 -57.5t72.5 -21zM323 713q68 0 121 -26.5t89.5 -74t56 -113.5t19.5 -145q0 -84 -21 -151.5
t-59 -115t-91.5 -73.5t-119.5 -26t-119 26.5t-90 73.5t-56.5 113.5t-19.5 145.5q0 82 20.5 149.5t58 115.5t91.5 74.5t120 26.5zM197 863h248v-66h-248v66z" />
    <glyph glyph-name="omacron" unicode="&#x14d;" horiz-adv-x="506" 
d="M253 436q-30 0 -51.5 -16t-35 -41.5t-19.5 -58t-6 -65.5q0 -36 7 -68t21.5 -57t35 -39.5t47.5 -14.5t48 15t35 40t21.5 57.5t7.5 68.5q0 32 -5.5 63.5t-18.5 57.5t-34.5 42t-52.5 16zM254 524q51 0 92.5 -18t71.5 -52.5t46 -83.5t16 -111q0 -65 -17 -115.5t-47 -85
t-72.5 -52.5t-93.5 -18q-49 0 -90.5 18t-71.5 52.5t-46.5 83.5t-16.5 112t16 113t46 85t72.5 53.5t94.5 18.5zM129 674h248v-66h-248v66z" />
    <glyph glyph-name="Obreve" unicode="&#x14e;" horiz-adv-x="642" 
d="M321 81q41 0 72.5 21t53 57.5t32.5 85.5t11 106q0 54 -10.5 103t-31.5 85.5t-53 58.5t-74 22t-73.5 -21.5t-53 -58.5t-32 -86.5t-10.5 -105.5q0 -55 11 -103.5t32.5 -85t53 -57.5t72.5 -21zM323 713q68 0 121 -26.5t89.5 -74t56 -113.5t19.5 -145q0 -84 -21 -151.5
t-59 -115t-91.5 -73.5t-119.5 -26t-119 26.5t-90 73.5t-56.5 113.5t-19.5 145.5q0 82 20.5 149.5t58 115.5t91.5 74.5t120 26.5zM451 911q0 -81 -36 -116t-94 -35q-59 0 -95 36.5t-36 114.5h68q0 -35 13.5 -55.5t49.5 -20.5q35 0 48.5 20.5t13.5 55.5h68z" />
    <glyph glyph-name="obreve" unicode="&#x14f;" horiz-adv-x="506" 
d="M253 436q-30 0 -51.5 -16t-35 -41.5t-19.5 -58t-6 -65.5q0 -36 7 -68t21.5 -57t35 -39.5t47.5 -14.5t48 15t35 40t21.5 57.5t7.5 68.5q0 32 -5.5 63.5t-18.5 57.5t-34.5 42t-52.5 16zM254 524q51 0 92.5 -18t71.5 -52.5t46 -83.5t16 -111q0 -65 -17 -115.5t-47 -85
t-72.5 -52.5t-93.5 -18q-49 0 -90.5 18t-71.5 52.5t-46.5 83.5t-16.5 112t16 113t46 85t72.5 53.5t94.5 18.5zM383 722q0 -81 -36 -116t-94 -35q-59 0 -95 36.5t-36 114.5h68q0 -35 13.5 -55.5t49.5 -20.5q35 0 48.5 20.5t13.5 55.5h68z" />
    <glyph glyph-name="Ohungarumlaut" unicode="&#x150;" horiz-adv-x="642" 
d="M321 81q41 0 72.5 21t53 57.5t32.5 85.5t11 106q0 54 -10.5 103t-31.5 85.5t-53 58.5t-74 22t-73.5 -21.5t-53 -58.5t-32 -86.5t-10.5 -105.5q0 -55 11 -103.5t32.5 -85t53 -57.5t72.5 -21zM323 713q68 0 121 -26.5t89.5 -74t56 -113.5t19.5 -145q0 -84 -21 -151.5
t-59 -115t-91.5 -73.5t-119.5 -26t-119 26.5t-90 73.5t-56.5 113.5t-19.5 145.5q0 82 20.5 149.5t58 115.5t91.5 74.5t120 26.5zM452 917l-72 -175h-64l46 175h90zM325 917l-72 -175h-65l46 175h91z" />
    <glyph glyph-name="ohungarumlaut" unicode="&#x151;" horiz-adv-x="506" 
d="M253 436q-30 0 -51.5 -16t-35 -41.5t-19.5 -58t-6 -65.5q0 -36 7 -68t21.5 -57t35 -39.5t47.5 -14.5t48 15t35 40t21.5 57.5t7.5 68.5q0 32 -5.5 63.5t-18.5 57.5t-34.5 42t-52.5 16zM254 524q51 0 92.5 -18t71.5 -52.5t46 -83.5t16 -111q0 -65 -17 -115.5t-47 -85
t-72.5 -52.5t-93.5 -18q-49 0 -90.5 18t-71.5 52.5t-46.5 83.5t-16.5 112t16 113t46 85t72.5 53.5t94.5 18.5zM384 728l-72 -175h-64l46 175h90zM257 728l-72 -175h-65l46 175h91z" />
    <glyph glyph-name="OE" unicode="&#x152;" horiz-adv-x="785" 
d="M152 348q0 -55 11 -103.5t32.5 -85t53 -57.5t72.5 -21q25 0 52 10.5t44 31.5l-51 482q-11 6 -23 9.5t-29 3.5q-35 0 -64.5 -21t-51.5 -57.5t-34 -85.5t-12 -106zM521 95h233v-95h-348q-20 -6 -42.5 -9t-45.5 -3q-66 0 -119 26.5t-90 73.5t-56.5 113.5t-19.5 145.5
q0 82 20.5 149.5t58 115.5t90.5 74.5t119 26.5q43 0 82 -13h327v-94h-263l19 -199h234v-93h-222z" />
    <glyph glyph-name="oe" unicode="&#x153;" horiz-adv-x="826" 
d="M252 76q27 0 48 15t35 40t21.5 57.5t7.5 68.5q0 32 -5.5 63.5t-18.5 57.5t-34.5 42t-52.5 16q-30 0 -51.5 -16t-35 -41.5t-19.5 -58t-6 -65.5q0 -36 7 -68t21.5 -57t35 -39.5t47.5 -14.5zM690 313q-1 24 -7.5 46t-19.5 39.5t-31 27.5t-41 10q-45 0 -71 -36t-34 -87h204z
M799 308q2 -16 0.5 -32t-3.5 -28h-313q0 -24 5.5 -53.5t17.5 -56t32.5 -44.5t50.5 -18q42 0 65.5 29.5t31.5 73.5h109q-14 -86 -65.5 -138.5t-139.5 -52.5q-54 0 -96.5 23.5t-70.5 65.5q-29 -45 -74.5 -67t-98.5 -22q-49 0 -90.5 18t-71.5 52.5t-46.5 83.5t-16.5 112t16 113
t46 85t72.5 53.5t94.5 18.5q55 0 98 -23t71 -65q27 42 70 65t98 23q48 0 85.5 -16t64 -44.5t41.5 -68t17 -87.5z" />
    <glyph glyph-name="Racute" unicode="&#x154;" horiz-adv-x="527" 
d="M157 377h64q62 0 98 34t36 89q0 58 -34 86.5t-96 28.5h-68v-238zM45 700h169q50 0 96 -7.5t81 -28t56 -57.5t21 -96q0 -67 -35 -112t-87 -65v-2q38 -14 61 -49.5t35 -92.5q15 -67 28 -118.5t23 -71.5h-117q-8 15 -19 59t-24 108q-13 70 -40 97.5t-80 28.5h-56v-293h-112
v700zM332 917l-72 -175h-65l46 175h91z" />
    <glyph glyph-name="racute" unicode="&#x155;" horiz-adv-x="332" 
d="M277 523q8 0 14 -0.5t11 -1.5v-110h-35q-26 0 -46.5 -13t-34.5 -35t-21 -49.5t-7 -56.5v-257h-114v356q0 45 -1 83t-3 72h117v-180q4 38 13.5 72.5t25 61t36 42.5t45.5 16zM234 728l-72 -175h-65l46 175h91z" />
    <glyph glyph-name="uni0156" unicode="&#x156;" horiz-adv-x="527" 
d="M157 377h64q62 0 98 34t36 89q0 58 -34 86.5t-96 28.5h-68v-238zM45 700h169q50 0 96 -7.5t81 -28t56 -57.5t21 -96q0 -67 -35 -112t-87 -65v-2q38 -14 61 -49.5t35 -92.5q15 -67 28 -118.5t23 -71.5h-117q-8 15 -19 59t-24 108q-13 70 -40 97.5t-80 28.5h-56v-293h-112
v700zM211 -271v55q49 0 49 58v11h-52v100h118v-92q0 -65 -28.5 -98.5t-86.5 -33.5z" />
    <glyph glyph-name="uni0157" unicode="&#x157;" horiz-adv-x="332" 
d="M277 523q8 0 14 -0.5t11 -1.5v-110h-35q-26 0 -46.5 -13t-34.5 -35t-21 -49.5t-7 -56.5v-257h-114v356q0 45 -1 83t-3 72h117v-180q4 38 13.5 72.5t25 61t36 42.5t45.5 16zM88 -270v55q49 0 49 58v11h-52v100h118v-92q0 -65 -28.5 -98.5t-86.5 -33.5z" />
    <glyph glyph-name="Rcaron" unicode="&#x158;" horiz-adv-x="527" 
d="M157 377h64q62 0 98 34t36 89q0 58 -34 86.5t-96 28.5h-68v-238zM45 700h169q50 0 96 -7.5t81 -28t56 -57.5t21 -96q0 -67 -35 -112t-87 -65v-2q38 -14 61 -49.5t35 -92.5q15 -67 28 -118.5t23 -71.5h-117q-8 15 -19 59t-24 108q-13 70 -40 97.5t-80 28.5h-56v-293h-112
v700zM400 917l-94 -175h-85l-94 175h77l60 -112l60 112h76z" />
    <glyph glyph-name="rcaron" unicode="&#x159;" horiz-adv-x="332" 
d="M277 523q8 0 14 -0.5t11 -1.5v-110h-35q-26 0 -46.5 -13t-34.5 -35t-21 -49.5t-7 -56.5v-257h-114v356q0 45 -1 83t-3 72h117v-180q4 38 13.5 72.5t25 61t36 42.5t45.5 16zM302 728l-94 -175h-85l-94 175h77l60 -112l60 112h76z" />
    <glyph glyph-name="Sacute" unicode="&#x15a;" horiz-adv-x="530" 
d="M288 407q55 -21 94.5 -43t65 -48t37.5 -58t12 -73q0 -42 -14.5 -78.5t-43 -62.5t-71 -41t-97.5 -15q-113 0 -173 59t-63 161h111q2 -59 36 -92.5t90 -33.5q50 0 80 24t30 72q0 50 -35 80t-103 55q-97 31 -149 80.5t-52 132.5q0 45 16 80t44.5 59t68 36t86.5 12
q56 0 97.5 -17t69.5 -46t42 -68t15 -83h-111q-1 24 -8 46t-21 38t-34.5 25.5t-47.5 9.5q-53 0 -77.5 -24.5t-24.5 -58.5q0 -48 35 -76t95 -52zM333 917l-72 -175h-65l46 175h91z" />
    <glyph glyph-name="sacute" unicode="&#x15b;" horiz-adv-x="421" 
d="M208 524q38 0 70.5 -10.5t56.5 -30.5t37.5 -50.5t14.5 -70.5h-100q-2 36 -22.5 56t-54.5 20q-35 0 -50.5 -16.5t-15.5 -39.5q0 -28 26 -45t71 -34q35 -12 64 -26.5t49 -33.5t31 -44t11 -57q0 -38 -14 -66.5t-38.5 -48t-57.5 -29.5t-71 -10q-41 0 -75.5 11t-59.5 32
t-39.5 52.5t-15.5 71.5h101q3 -39 26 -61t63 -22q33 0 53 17.5t20 46.5q0 34 -31 53.5t-79 38.5q-67 24 -104 59.5t-37 94.5q0 66 47 104t124 38zM279 728l-72 -175h-65l46 175h91z" />
    <glyph glyph-name="Scircumflex" unicode="&#x15c;" horiz-adv-x="530" 
d="M288 407q55 -21 94.5 -43t65 -48t37.5 -58t12 -73q0 -42 -14.5 -78.5t-43 -62.5t-71 -41t-97.5 -15q-113 0 -173 59t-63 161h111q2 -59 36 -92.5t90 -33.5q50 0 80 24t30 72q0 50 -35 80t-103 55q-97 31 -149 80.5t-52 132.5q0 45 16 80t44.5 59t68 36t86.5 12
q56 0 97.5 -17t69.5 -46t42 -68t15 -83h-111q-1 24 -8 46t-21 38t-34.5 25.5t-47.5 9.5q-53 0 -77.5 -24.5t-24.5 -58.5q0 -48 35 -76t95 -52zM308 917l94 -175h-76l-60 112l-60 -112h-77l94 175h85z" />
    <glyph glyph-name="scircumflex" unicode="&#x15d;" horiz-adv-x="421" 
d="M208 524q38 0 70.5 -10.5t56.5 -30.5t37.5 -50.5t14.5 -70.5h-100q-2 36 -22.5 56t-54.5 20q-35 0 -50.5 -16.5t-15.5 -39.5q0 -28 26 -45t71 -34q35 -12 64 -26.5t49 -33.5t31 -44t11 -57q0 -38 -14 -66.5t-38.5 -48t-57.5 -29.5t-71 -10q-41 0 -75.5 11t-59.5 32
t-39.5 52.5t-15.5 71.5h101q3 -39 26 -61t63 -22q33 0 53 17.5t20 46.5q0 34 -31 53.5t-79 38.5q-67 24 -104 59.5t-37 94.5q0 66 47 104t124 38zM253 728l94 -175h-76l-60 112l-60 -112h-77l94 175h85z" />
    <glyph glyph-name="Scedilla" unicode="&#x15e;" horiz-adv-x="530" 
d="M288 407q55 -21 94.5 -43t65 -48t37.5 -58t12 -73q0 -42 -14.5 -78.5t-43 -62.5t-71 -41t-97.5 -15q-113 0 -173 59t-63 161h111q2 -59 36 -92.5t90 -33.5q50 0 80 24t30 72q0 50 -35 80t-103 55q-97 31 -149 80.5t-52 132.5q0 45 16 80t44.5 59t68 36t86.5 12
q56 0 97.5 -17t69.5 -46t42 -68t15 -83h-111q-1 24 -8 46t-21 38t-34.5 25.5t-47.5 9.5q-53 0 -77.5 -24.5t-24.5 -58.5q0 -48 35 -76t95 -52zM287 0l-24 -49q42 -8 69 -28.5t27 -55.5q0 -24 -9.5 -40.5t-24.5 -27t-35 -15t-41 -4.5q-42 0 -77 16l2 60q16 -7 31.5 -10
t29.5 -3q22 0 36.5 7t15.5 20q0 10 -7 18t-19 14t-27 10t-32 6l40 82h45z" />
    <glyph glyph-name="scedilla" unicode="&#x15f;" horiz-adv-x="421" 
d="M208 524q38 0 70.5 -10.5t56.5 -30.5t37.5 -50.5t14.5 -70.5h-100q-2 36 -22.5 56t-54.5 20q-35 0 -50.5 -16.5t-15.5 -39.5q0 -28 26 -45t71 -34q35 -12 64 -26.5t49 -33.5t31 -44t11 -57q0 -38 -14 -66.5t-38.5 -48t-57.5 -29.5t-71 -10q-41 0 -75.5 11t-59.5 32
t-39.5 52.5t-15.5 71.5h101q3 -39 26 -61t63 -22q33 0 53 17.5t20 46.5q0 34 -31 53.5t-79 38.5q-67 24 -104 59.5t-37 94.5q0 66 47 104t124 38zM232 0l-24 -49q42 -8 69 -28.5t27 -55.5q0 -24 -9.5 -40.5t-24.5 -27t-35 -15t-41 -4.5q-42 0 -77 16l2 60q16 -7 31.5 -10
t29.5 -3q22 0 36.5 7t15.5 20q0 10 -7 18t-19 14t-27 10t-32 6l40 82h45z" />
    <glyph glyph-name="Scaron" unicode="&#x160;" horiz-adv-x="530" 
d="M288 407q55 -21 94.5 -43t65 -48t37.5 -58t12 -73q0 -42 -14.5 -78.5t-43 -62.5t-71 -41t-97.5 -15q-113 0 -173 59t-63 161h111q2 -59 36 -92.5t90 -33.5q50 0 80 24t30 72q0 50 -35 80t-103 55q-97 31 -149 80.5t-52 132.5q0 45 16 80t44.5 59t68 36t86.5 12
q56 0 97.5 -17t69.5 -46t42 -68t15 -83h-111q-1 24 -8 46t-21 38t-34.5 25.5t-47.5 9.5q-53 0 -77.5 -24.5t-24.5 -58.5q0 -48 35 -76t95 -52zM401 917l-94 -175h-85l-94 175h77l60 -112l60 112h76z" />
    <glyph glyph-name="scaron" unicode="&#x161;" horiz-adv-x="421" 
d="M208 524q38 0 70.5 -10.5t56.5 -30.5t37.5 -50.5t14.5 -70.5h-100q-2 36 -22.5 56t-54.5 20q-35 0 -50.5 -16.5t-15.5 -39.5q0 -28 26 -45t71 -34q35 -12 64 -26.5t49 -33.5t31 -44t11 -57q0 -38 -14 -66.5t-38.5 -48t-57.5 -29.5t-71 -10q-41 0 -75.5 11t-59.5 32
t-39.5 52.5t-15.5 71.5h101q3 -39 26 -61t63 -22q33 0 53 17.5t20 46.5q0 34 -31 53.5t-79 38.5q-67 24 -104 59.5t-37 94.5q0 66 47 104t124 38zM346 728l-94 -175h-85l-94 175h77l60 -112l60 112h76z" />
    <glyph glyph-name="uni0162" unicode="&#x162;" horiz-adv-x="526" 
d="M233 0h-27v602h-178v98h470v-98h-179v-602h-41l-24 -48q42 -8 69.5 -29t27.5 -56q0 -24 -9.5 -40.5t-25 -27t-35 -15t-40.5 -4.5q-43 0 -78 16l2 60q16 -7 31.5 -10t29.5 -3q22 0 36.5 7t15.5 20q0 10 -7 18t-19 14t-27 10t-32 6z" />
    <glyph glyph-name="uni0163" unicode="&#x163;" horiz-adv-x="343" 
d="M320 -130q0 -24 -9.5 -40.5t-24.5 -27t-35 -15t-41 -4.5q-42 0 -77 16l2 60q16 -7 31.5 -10t29.5 -3q22 0 36.5 7t15.5 20q0 21 -26 32t-59 16l33 68q-33 4 -55 19.5t-35 38.5t-18 52.5t-5 63.5v264h-70v84h70v118h112v-118h113v-84h-113v-256q0 -48 15.5 -69t47.5 -21
q13 0 25.5 2t21.5 4v-88q-24 -8 -65 -11l-16 -33q42 -8 69 -29t27 -56z" />
    <glyph glyph-name="Tcaron" unicode="&#x164;" horiz-adv-x="526" 
d="M498 700v-98h-179v-602h-113v602h-178v98h470zM399 917l-94 -175h-85l-94 175h77l60 -112l60 112h76z" />
    <glyph glyph-name="tcaron" unicode="&#x165;" horiz-adv-x="344" 
d="M366 744l-69 -168h-58l44 168h83zM258 81q13 0 25.5 2t21.5 5v-88q-14 -5 -35.5 -8.5t-47.5 -3.5q-42 0 -68.5 13.5t-42.5 37.5t-22 56t-6 69v263h-70v84h70v119h112v-119h113v-84h-113v-256q0 -47 15.5 -68.5t47.5 -21.5z" />
    <glyph glyph-name="Tbar" unicode="&#x166;" horiz-adv-x="526" 
d="M379 390v-67h-60v-323h-113v323h-59v67h59v212h-178v98h470v-98h-179v-212h60z" />
    <glyph glyph-name="tbar" unicode="&#x167;" horiz-adv-x="343" 
d="M284 225h-89v-54q0 -47 15.5 -68.5t47.5 -21.5q13 0 25.5 2t21.5 5v-88q-14 -5 -35.5 -8.5t-47.5 -3.5q-42 0 -69 13.5t-42.5 37.5t-21.5 56t-6 69v61h-63v66h63v136h-70v84h70v119h112v-119h113v-84h-113v-136h89v-66z" />
    <glyph glyph-name="Utilde" unicode="&#x168;" horiz-adv-x="562" 
d="M153 700v-431q0 -50 9.5 -85.5t26.5 -58t40 -33t51 -10.5q58 0 93 43t35 144v431h113v-422q0 -77 -17.5 -132t-49 -90t-76.5 -51.5t-100 -16.5t-99 16.5t-75 51t-47.5 89.5t-16.5 131v424h113zM346 763q-22 0 -39 11t-32 24t-28 24t-28 11q-11 0 -17 -7.5t-9 -18
t-3.5 -21.5t-0.5 -18h-53q0 14 2.5 38.5t10.5 47.5t24.5 40t44.5 17q23 0 39 -11t30.5 -24t28 -24t29.5 -11q11 0 16.5 7t8.5 17.5t3.5 21.5t0.5 19h51q0 -22 -2 -47t-10 -46.5t-24 -35.5t-43 -14z" />
    <glyph glyph-name="utilde" unicode="&#x169;" horiz-adv-x="493" 
d="M448 139q0 -36 1.5 -74.5t2.5 -64.5h-117v153q-5 -31 -16.5 -61t-29.5 -53.5t-43 -37.5t-58 -14q-30 0 -58 11t-49.5 35.5t-34.5 63.5t-13 95v318h114v-303q0 -26 4.5 -48.5t14.5 -39.5t27 -27t41 -10q25 0 44 12t31.5 31.5t19 44.5t6.5 50v290h113v-371zM312 574
q-22 0 -39 11t-32 24t-28 24t-28 11q-11 0 -17 -7.5t-9 -18t-3.5 -21.5t-0.5 -18h-53q0 14 2.5 38.5t10.5 47.5t24.5 40t44.5 17q23 0 39 -11t30.5 -24t28 -24t29.5 -11q11 0 16.5 7t8.5 17.5t3.5 21.5t0.5 19h51q0 -22 -2 -47t-10 -46.5t-24 -35.5t-43 -14z" />
    <glyph glyph-name="Umacron" unicode="&#x16a;" horiz-adv-x="562" 
d="M153 700v-431q0 -50 9.5 -85.5t26.5 -58t40 -33t51 -10.5q58 0 93 43t35 144v431h113v-422q0 -77 -17.5 -132t-49 -90t-76.5 -51.5t-100 -16.5t-99 16.5t-75 51t-47.5 89.5t-16.5 131v424h113zM157 863h248v-66h-248v66z" />
    <glyph glyph-name="umacron" unicode="&#x16b;" horiz-adv-x="493" 
d="M448 139q0 -36 1.5 -74.5t2.5 -64.5h-117v153q-5 -31 -16.5 -61t-29.5 -53.5t-43 -37.5t-58 -14q-30 0 -58 11t-49.5 35.5t-34.5 63.5t-13 95v318h114v-303q0 -26 4.5 -48.5t14.5 -39.5t27 -27t41 -10q25 0 44 12t31.5 31.5t19 44.5t6.5 50v290h113v-371zM123 674h248
v-66h-248v66z" />
    <glyph glyph-name="Ubreve" unicode="&#x16c;" horiz-adv-x="562" 
d="M153 700v-431q0 -50 9.5 -85.5t26.5 -58t40 -33t51 -10.5q58 0 93 43t35 144v431h113v-422q0 -77 -17.5 -132t-49 -90t-76.5 -51.5t-100 -16.5t-99 16.5t-75 51t-47.5 89.5t-16.5 131v424h113zM411 911q0 -81 -36 -116t-94 -35q-59 0 -95 36.5t-36 114.5h68
q0 -35 13.5 -55.5t49.5 -20.5q35 0 48.5 20.5t13.5 55.5h68z" />
    <glyph glyph-name="ubreve" unicode="&#x16d;" horiz-adv-x="493" 
d="M448 139q0 -36 1.5 -74.5t2.5 -64.5h-117v153q-5 -31 -16.5 -61t-29.5 -53.5t-43 -37.5t-58 -14q-30 0 -58 11t-49.5 35.5t-34.5 63.5t-13 95v318h114v-303q0 -26 4.5 -48.5t14.5 -39.5t27 -27t41 -10q25 0 44 12t31.5 31.5t19 44.5t6.5 50v290h113v-371zM377 722
q0 -81 -36 -116t-94 -35q-59 0 -95 36.5t-36 114.5h68q0 -35 13.5 -55.5t49.5 -20.5q35 0 48.5 20.5t13.5 55.5h68z" />
    <glyph glyph-name="Uring" unicode="&#x16e;" horiz-adv-x="562" 
d="M153 700v-431q0 -50 9.5 -85.5t26.5 -58t40 -33t51 -10.5q58 0 93 43t35 144v431h113v-422q0 -77 -17.5 -132t-49 -90t-76.5 -51.5t-100 -16.5t-99 16.5t-75 51t-47.5 89.5t-16.5 131v424h113zM239 850q0 -20 9.5 -38t32.5 -18t33 17t10 40q0 9 -2 19t-6.5 18.5t-13 14
t-21.5 5.5q-23 0 -32.5 -18.5t-9.5 -39.5zM384 852q0 -53 -28.5 -82t-74.5 -29q-48 0 -75 29.5t-27 79.5q0 51 27.5 81t75.5 30q49 0 75.5 -30t26.5 -79z" />
    <glyph glyph-name="uring" unicode="&#x16f;" horiz-adv-x="493" 
d="M448 139q0 -36 1.5 -74.5t2.5 -64.5h-117v153q-5 -31 -16.5 -61t-29.5 -53.5t-43 -37.5t-58 -14q-30 0 -58 11t-49.5 35.5t-34.5 63.5t-13 95v318h114v-303q0 -26 4.5 -48.5t14.5 -39.5t27 -27t41 -10q25 0 44 12t31.5 31.5t19 44.5t6.5 50v290h113v-371zM205 661
q0 -20 9.5 -38t32.5 -18t33 17t10 40q0 9 -2 19t-6.5 18.5t-13 14t-21.5 5.5q-23 0 -32.5 -18.5t-9.5 -39.5zM350 663q0 -53 -28.5 -82t-74.5 -29q-48 0 -75 29.5t-27 79.5q0 51 27.5 81t75.5 30q49 0 75.5 -30t26.5 -79z" />
    <glyph glyph-name="Uhungarumlaut" unicode="&#x170;" horiz-adv-x="562" 
d="M153 700v-431q0 -50 9.5 -85.5t26.5 -58t40 -33t51 -10.5q58 0 93 43t35 144v431h113v-422q0 -77 -17.5 -132t-49 -90t-76.5 -51.5t-100 -16.5t-99 16.5t-75 51t-47.5 89.5t-16.5 131v424h113zM412 917l-72 -175h-64l46 175h90zM285 917l-72 -175h-65l46 175h91z" />
    <glyph glyph-name="uhungarumlaut" unicode="&#x171;" horiz-adv-x="493" 
d="M448 139q0 -36 1.5 -74.5t2.5 -64.5h-117v153q-5 -31 -16.5 -61t-29.5 -53.5t-43 -37.5t-58 -14q-30 0 -58 11t-49.5 35.5t-34.5 63.5t-13 95v318h114v-303q0 -26 4.5 -48.5t14.5 -39.5t27 -27t41 -10q25 0 44 12t31.5 31.5t19 44.5t6.5 50v290h113v-371zM378 728
l-72 -175h-64l46 175h90zM251 728l-72 -175h-65l46 175h91z" />
    <glyph glyph-name="Uogonek" unicode="&#x172;" horiz-adv-x="562" 
d="M153 700v-431q0 -50 9.5 -85.5t26.5 -58t40 -33t51 -10.5q58 0 93 43t35 144v431h113v-422q0 -77 -17.5 -132t-49 -90t-76.5 -51.5t-100 -16.5t-99 16.5t-75 51t-47.5 89.5t-16.5 131v424h113zM362 11l5 -9q-8 -5 -18 -12t-18.5 -16.5t-14.5 -20.5t-6 -24q0 -14 11 -24
t31 -10q11 0 26.5 3.5t26.5 8.5v-79q-11 -8 -31 -13.5t-40 -5.5q-40 0 -66.5 19.5t-26.5 61.5q0 24 13.5 43.5t32.5 34.5t40 25.5z" />
    <glyph glyph-name="uogonek" unicode="&#x173;" horiz-adv-x="493" 
d="M448 139q0 -36 1.5 -74.5t2.5 -64.5h-117v153q-5 -31 -16.5 -61t-29.5 -53.5t-43 -37.5t-58 -14q-30 0 -58 11t-49.5 35.5t-34.5 63.5t-13 95v318h114v-303q0 -26 4.5 -48.5t14.5 -39.5t27 -27t41 -10q25 0 44 12t31.5 31.5t19 44.5t6.5 50v290h113v-371zM447 9l5 -9
q-8 -5 -18 -12t-18.5 -16.5t-14.5 -20.5t-6 -24q0 -14 11 -24t31 -10q11 0 26.5 3.5t26.5 8.5v-79q-11 -8 -31 -13.5t-40 -5.5q-40 0 -66.5 19.5t-26.5 61.5q0 24 13.5 43.5t32.5 34.5t40 25.5z" />
    <glyph glyph-name="Wcircumflex" unicode="&#x174;" horiz-adv-x="836" 
d="M177 0l-158 700h119l64 -323q12 -64 23 -126.5t19 -118.5h2q8 58 21 119t28 128l73 321h111l68 -323q12 -62 23 -121.5t19 -122.5h2q9 63 20 123t24 123l68 321h114l-171 -700h-118l-70 324q-13 59 -22.5 113.5t-16.5 112.5h-2q-8 -58 -19 -112.5t-26 -114.5l-77 -323
h-118zM461 917l94 -175h-76l-60 112l-60 -112h-77l94 175h85z" />
    <glyph glyph-name="wcircumflex" unicode="&#x175;" horiz-adv-x="716" 
d="M125 511l52 -239q9 -42 17 -82.5t14 -80.5h3q8 40 18 81.5t20 80.5l66 240h91l63 -235q11 -44 20.5 -85t17.5 -82h2q6 40 14 81t18 86l55 235h112l-151 -511h-102l-61 219q-11 39 -19.5 77.5t-16.5 84.5h-2q-8 -47 -17 -86t-20 -77l-65 -218h-103l-143 511h117zM401 728
l94 -175h-76l-60 112l-60 -112h-77l94 175h85z" />
    <glyph glyph-name="Ycircumflex" unicode="&#x176;" horiz-adv-x="546" 
d="M212 0v288l-199 412h127l77 -179q16 -38 29.5 -72t27.5 -72h2q12 36 26 71t31 74l76 178h125l-209 -409v-291h-113zM316 917l94 -175h-76l-60 112l-60 -112h-77l94 175h85z" />
    <glyph glyph-name="ycircumflex" unicode="&#x177;" horiz-adv-x="473" 
d="M133 511l85 -281q8 -25 14.5 -51t11.5 -48h3q5 21 11.5 47.5t13.5 51.5l74 281h119l-118 -353q-42 -121 -77.5 -196.5t-80.5 -119.5q-35 -34 -67.5 -49.5t-52.5 -19.5l-30 96q17 6 36.5 16.5t38.5 27.5q8 7 20 20t23 28.5t19 31t8 26.5q0 5 -1 10t-4 13l-170 469h124z
M279 728l94 -175h-76l-60 112l-60 -112h-77l94 175h85z" />
    <glyph glyph-name="Ydieresis" unicode="&#x178;" horiz-adv-x="546" 
d="M212 0v288l-199 412h127l77 -179q16 -38 29.5 -72t27.5 -72h2q12 36 26 71t31 74l76 178h125l-209 -409v-291h-113zM147 872h97v-107h-97v107zM302 872h97v-107h-97v107z" />
    <glyph glyph-name="Zacute" unicode="&#x179;" horiz-adv-x="547" 
d="M497 700v-71l-316 -530v-4h319v-95h-465v64l321 538v3h-293v95h434zM341 917l-72 -175h-65l46 175h91z" />
    <glyph glyph-name="zacute" unicode="&#x17a;" horiz-adv-x="443" 
d="M28 67l184 268q17 22 32.5 42t30.5 40v2h-228v92h363v-72l-181 -262q-16 -22 -31.5 -43t-31.5 -40v-2h248v-92h-386v67zM290 728l-72 -175h-65l46 175h91z" />
    <glyph glyph-name="Zdotaccent" unicode="&#x17b;" horiz-adv-x="547" 
d="M497 700v-71l-316 -530v-4h319v-95h-465v64l321 538v3h-293v95h434zM217 887h112v-118h-112v118z" />
    <glyph glyph-name="zdotaccent" unicode="&#x17c;" horiz-adv-x="443" 
d="M28 67l184 268q17 22 32.5 42t30.5 40v2h-228v92h363v-72l-181 -262q-16 -22 -31.5 -43t-31.5 -40v-2h248v-92h-386v67zM165 698h112v-118h-112v118z" />
    <glyph glyph-name="Zcaron" unicode="&#x17d;" horiz-adv-x="547" 
d="M497 700v-71l-316 -530v-4h319v-95h-465v64l321 538v3h-293v95h434zM409 917l-94 -175h-85l-94 175h77l60 -112l60 112h76z" />
    <glyph glyph-name="zcaron" unicode="&#x17e;" horiz-adv-x="443" 
d="M28 67l184 268q17 22 32.5 42t30.5 40v2h-228v92h363v-72l-181 -262q-16 -22 -31.5 -43t-31.5 -40v-2h248v-92h-386v67zM357 728l-94 -175h-85l-94 175h77l60 -112l60 112h76z" />
    <glyph glyph-name="longs" unicode="&#x17f;" horiz-adv-x="312" 
d="M226 665q-23 0 -38.5 -9t-25 -25t-13.5 -37t-4 -44l1 -550h-113v546q0 44 10.5 82t32 66.5t55.5 45t81 16.5q37 0 66 -8v-92q-10 4 -22.5 6.5t-29.5 2.5z" />
    <glyph glyph-name="florin" unicode="&#x192;" horiz-adv-x="425" 
d="M349 665q-23 0 -38.5 -9t-25 -25t-13.5 -36.5t-4 -44.5v-39h132v-84h-132v-476q0 -44 -10.5 -82t-32 -66.5t-55.5 -45t-81 -16.5q-37 0 -66 8v91q10 -3 22 -5.5t29 -2.5q23 0 38.5 9t25 25t13.5 37t4 44v480h-68v84h68v35q0 44 10.5 82t32 66.5t55.5 45t81 16.5
q37 0 66 -8v-92q-10 4 -22 6.5t-29 2.5z" />
    <glyph glyph-name="uni01F4" unicode="&#x1f4;" horiz-adv-x="641" 
d="M326 281v80l269 1v-362h-113v189q-9 -39 -25.5 -75.5t-40.5 -64.5t-55.5 -44.5t-71.5 -16.5q-57 0 -104 25.5t-80.5 72t-51.5 113t-18 148.5q0 80 20 147.5t57.5 116t91.5 75.5t121 27q61 0 108.5 -20.5t81 -58t53.5 -90t26 -117.5h-116q-4 41 -15.5 76.5t-31 61.5
t-46.5 40.5t-62 14.5q-42 0 -74 -21.5t-53 -58.5t-31.5 -86.5t-10.5 -105.5q0 -55 10.5 -103.5t31.5 -85t52.5 -57.5t72.5 -21q32 0 59 16t48 43t34.5 63.5t18.5 77.5h-155zM391 917l-72 -175h-65l46 175h91z" />
    <glyph glyph-name="uni01F5" unicode="&#x1f5;" horiz-adv-x="522" 
d="M363 291q0 20 -6.5 45t-19.5 46.5t-32.5 36t-45.5 14.5q-50 0 -80 -46.5t-30 -123.5q0 -36 7.5 -66.5t22 -52t35 -34t46.5 -12.5q22 0 41 13t32.5 34t21.5 48t8 56v42zM364 511h117q-2 -28 -3.5 -62t-1.5 -85l1 -323q0 -60 -12.5 -108.5t-39.5 -82t-68.5 -52
t-100.5 -18.5q-92 0 -144.5 54t-55.5 145h101q2 -51 29.5 -82t69.5 -31q55 0 82 37t27 118l-1 154q-12 -75 -50.5 -119t-92.5 -44q-40 0 -74 17.5t-59 49t-39 76t-14 98.5q0 65 14.5 115t40 84.5t60.5 52.5t75 18q33 0 57 -14t40.5 -37t26.5 -52.5t15 -61.5v153zM329 728
l-72 -175h-65l46 175h91z" />
    <glyph glyph-name="Aringacute" unicode="&#x1fa;" horiz-adv-x="586" 
d="M373 286l-49 175q-9 34 -17 71t-16 69h-2q-8 -33 -16 -70.5t-16 -69.5l-49 -175h165zM190 199l-55 -199h-115l204 700h139l203 -700h-118l-58 199h-200zM252 807q0 -20 9.5 -38t32.5 -18t33 17t10 40q0 9 -2 19t-6.5 18.5t-13 14t-21.5 5.5q-23 0 -32.5 -18.5t-9.5 -39.5
zM397 809q0 -53 -28.5 -82t-74.5 -29q-48 0 -75 29.5t-27 79.5q0 51 27.5 81t75.5 30q49 0 75.5 -30t26.5 -79zM396 1118l-72 -175h-65l46 175h91z" />
    <glyph glyph-name="aringacute" unicode="&#x1fb;" horiz-adv-x="477" 
d="M326 255q-31 0 -63.5 -3.5t-58.5 -14.5t-42.5 -31.5t-16.5 -53.5q0 -42 22 -62t53 -20q24 0 43.5 10.5t33.5 27.5t21.5 38t7.5 41v68zM326 0v126q-5 -27 -16.5 -52t-29.5 -44t-43 -30.5t-57 -11.5q-37 0 -64.5 12.5t-46 33.5t-27.5 48.5t-9 57.5q0 50 21 86t59.5 59
t92 34t118.5 11v16q0 17 -4.5 34t-15 30.5t-28 22t-43.5 8.5q-40 0 -64.5 -23.5t-24.5 -70.5h-97q0 82 50 129.5t144 47.5q57 0 94.5 -16t60 -43t32 -63t9.5 -76v-207q0 -32 1.5 -63t5.5 -56h-118zM197 633q0 -20 9.5 -38t32.5 -18t33 17t10 40q0 9 -2 19t-6.5 18.5t-13 14
t-21.5 5.5q-23 0 -32.5 -18.5t-9.5 -39.5zM342 635q0 -53 -28.5 -82t-74.5 -29q-48 0 -75 29.5t-27 79.5q0 51 27.5 81t75.5 30q49 0 75.5 -30t26.5 -79zM341 936l-72 -175h-65l46 175h91z" />
    <glyph glyph-name="AEacute" unicode="&#x1fc;" horiz-adv-x="794" 
d="M393 311q-4 42 -7 80q-3 32 -6 65t-5 50q-3 26 -5.5 54t-4.5 51h-5q-8 -22 -17 -46.5t-18 -50.5q-7 -20 -19.5 -54t-24.5 -67q-14 -39 -30 -82h142zM20 0l278 700h437v-95h-264l20 -198h234v-94h-222l23 -218h233v-95h-331l-24 221h-185l-84 -221h-115zM465 917l-72 -175
h-65l46 175h91z" />
    <glyph glyph-name="aeacute" unicode="&#x1fd;" horiz-adv-x="785" 
d="M218 70q25 0 44.5 13t33.5 33t22 45t10 49q-1 11 -1.5 22.5t-0.5 22.5q-31 0 -63 -3.5t-58.5 -14.5t-43 -31.5t-16.5 -53.5q0 -42 22 -62t51 -20zM650 313q-1 24 -8 46t-20 39.5t-31 27.5t-41 10q-45 0 -70.5 -36t-33.5 -87h204zM759 308q1 -16 0 -32t-3 -28h-314
q1 -24 6 -54t17 -56.5t32.5 -44t51.5 -17.5q42 0 65.5 29.5t31.5 73.5h108q-14 -86 -65 -138.5t-139 -52.5q-81 0 -137.5 47t-76.5 130q-5 -35 -17 -67t-31.5 -56.5t-46 -39t-61.5 -14.5q-37 0 -64.5 12.5t-46 33.5t-27.5 48.5t-9 57.5q0 50 21 86t59.5 59t92 34t118.5 11
v16q0 17 -4.5 34t-15 30.5t-28 22t-43.5 8.5q-40 0 -64.5 -23.5t-24.5 -70.5h-97q0 82 50 129.5t144 47.5q59 0 96.5 -19t57.5 -52q28 34 67.5 52.5t88.5 18.5q47 0 84.5 -16t64 -44.5t41.5 -68t18 -87.5zM461 728l-72 -175h-65l46 175h91z" />
    <glyph glyph-name="Oslashacute" unicode="&#x1fe;" horiz-adv-x="642" 
d="M416 582q-19 18 -42.5 28t-52.5 10q-42 0 -73.5 -21.5t-53 -58.5t-32 -86t-10.5 -105q0 -44 6.5 -83.5t20.5 -72.5zM224 122q20 -19 44 -29.5t53 -10.5q41 0 72.5 21t53 57t32.5 85.5t11 106.5q0 45 -7 85t-21 74zM583 710l-55 -90q39 -48 60 -115.5t21 -150.5
q0 -84 -21 -151.5t-59 -115t-91.5 -73.5t-119.5 -26q-43 0 -80 11.5t-69 32.5l-48 -80l-62 44l54 88q-39 48 -59.5 115t-20.5 148q0 82 20.5 149.5t58 115.5t91.5 74.5t120 26.5q43 0 79.5 -11t67.5 -31l48 79zM299 917h91l-72 -175h-65z" />
    <glyph glyph-name="oslashacute" unicode="&#x1ff;" horiz-adv-x="506" 
d="M316 411q-13 11 -28 17.5t-35 6.5q-30 0 -51.5 -15.5t-35 -41t-19.5 -58t-6 -65.5q0 -53 15 -97zM188 103q13 -13 29 -20.5t35 -7.5q27 0 48 15t35 40t21.5 57.5t7.5 68.5q0 26 -3.5 51.5t-11.5 48.5zM50 -9l41 64q-32 35 -49 84.5t-17 113.5q0 63 16 113t46 85
t72.5 53.5t94.5 18.5q65 0 114 -29l39 61l48 -31l-42 -66q32 -35 49.5 -85t17.5 -115t-17 -115.5t-47 -85t-72.5 -52.5t-93.5 -18q-65 0 -115 32l-40 -63zM231 728h91l-72 -175h-65z" />
    <glyph glyph-name="uni0218" unicode="&#x218;" horiz-adv-x="530" 
d="M288 407q55 -21 94.5 -43t65 -48t37.5 -58t12 -73q0 -42 -14.5 -78.5t-43 -62.5t-71 -41t-97.5 -15q-113 0 -173 59t-63 161h111q2 -59 36 -92.5t90 -33.5q50 0 80 24t30 72q0 50 -35 80t-103 55q-97 31 -149 80.5t-52 132.5q0 45 16 80t44.5 59t68 36t86.5 12
q56 0 97.5 -17t69.5 -46t42 -68t15 -83h-111q-1 24 -8 46t-21 38t-34.5 25.5t-47.5 9.5q-53 0 -77.5 -24.5t-24.5 -58.5q0 -48 35 -76t95 -52zM217 -270v55q49 0 49 58v11h-52v100h118v-92q0 -65 -28.5 -98.5t-86.5 -33.5z" />
    <glyph glyph-name="uni0219" unicode="&#x219;" horiz-adv-x="421" 
d="M208 524q38 0 70.5 -10.5t56.5 -30.5t37.5 -50.5t14.5 -70.5h-100q-2 36 -22.5 56t-54.5 20q-35 0 -50.5 -16.5t-15.5 -39.5q0 -28 26 -45t71 -34q35 -12 64 -26.5t49 -33.5t31 -44t11 -57q0 -38 -14 -66.5t-38.5 -48t-57.5 -29.5t-71 -10q-41 0 -75.5 11t-59.5 32
t-39.5 52.5t-15.5 71.5h101q3 -39 26 -61t63 -22q33 0 53 17.5t20 46.5q0 34 -31 53.5t-79 38.5q-67 24 -104 59.5t-37 94.5q0 66 47 104t124 38zM157 -274v55q49 0 49 58v11h-52v100h118v-92q0 -65 -28.5 -98.5t-86.5 -33.5z" />
    <glyph glyph-name="uni021A" unicode="&#x21a;" horiz-adv-x="526" 
d="M498 700v-98h-179v-602h-113v602h-178v98h470zM206 -270v55q49 0 49 58v11h-52v100h118v-92q0 -65 -28.5 -98.5t-86.5 -33.5z" />
    <glyph glyph-name="uni021B" unicode="&#x21b;" horiz-adv-x="343" 
d="M258 81q13 0 25.5 2t21.5 5v-88q-14 -5 -35.5 -8.5t-47.5 -3.5q-42 0 -69 13.5t-42.5 37.5t-21.5 56t-6 69v263h-70v84h70v119h112v-119h113v-84h-113v-256q0 -47 15.5 -68.5t47.5 -21.5zM157 -277v55q49 0 49 58v11h-52v100h118v-92q0 -65 -28.5 -98.5t-86.5 -33.5z" />
    <glyph glyph-name="uni0237" unicode="&#x237;" horiz-adv-x="230" 
d="M64 6v505h114v-511q0 -61 -14 -103t-41.5 -68t-67.5 -37.5t-92 -11.5v94q25 0 44 4.5t31.5 19t19 40.5t6.5 68z" />
    <glyph glyph-name="circumflex" unicode="&#x2c6;" horiz-adv-x="324" 
d="M205 728l94 -175h-76l-60 112l-60 -112h-77l94 175h85z" />
    <glyph glyph-name="caron" unicode="&#x2c7;" horiz-adv-x="324" 
d="M298 728l-94 -175h-85l-94 175h77l60 -112l60 112h76z" />
    <glyph glyph-name="breve" unicode="&#x2d8;" horiz-adv-x="312" 
d="M286 722q0 -81 -36 -116t-94 -35q-59 0 -95 36.5t-36 114.5h68q0 -35 13.5 -55.5t49.5 -20.5q35 0 48.5 20.5t13.5 55.5h68z" />
    <glyph glyph-name="dotaccent" unicode="&#x2d9;" horiz-adv-x="204" 
d="M45 698h112v-118h-112v118z" />
    <glyph glyph-name="ring" unicode="&#x2da;" horiz-adv-x="266" 
d="M91 661q0 -20 9.5 -38t32.5 -18t33 17t10 40q0 9 -2 19t-6.5 18.5t-13 14t-21.5 5.5q-23 0 -32.5 -18.5t-9.5 -39.5zM236 663q0 -53 -28.5 -82t-74.5 -29q-48 0 -75 29.5t-27 79.5q0 51 27.5 81t75.5 30q49 0 75.5 -30t26.5 -79z" />
    <glyph glyph-name="ogonek" unicode="&#x2db;" horiz-adv-x="215" 
d="M147 11l5 -9q-8 -5 -18 -12t-18.5 -16.5t-14.5 -20.5t-6 -24q0 -14 11 -24t31 -10q11 0 26.5 3.5t26.5 8.5v-79q-11 -8 -31 -13.5t-40 -5.5q-40 0 -66.5 19.5t-26.5 61.5q0 24 13.5 43.5t32.5 34.5t40 25.5z" />
    <glyph glyph-name="tilde" unicode="&#x2dc;" horiz-adv-x="370" 
d="M250 574q-22 0 -39 11t-32 24t-28 24t-28 11q-11 0 -17 -7.5t-9 -18t-3.5 -21.5t-0.5 -18h-53q0 14 2.5 38.5t10.5 47.5t24.5 40t44.5 17q23 0 39 -11t30.5 -24t28 -24t29.5 -11q11 0 16.5 7t8.5 17.5t3.5 21.5t0.5 19h51q0 -22 -2 -47t-10 -46.5t-24 -35.5t-43 -14z" />
    <glyph glyph-name="hungarumlaut" unicode="&#x2dd;" horiz-adv-x="316" 
d="M289 728l-72 -175h-64l46 175h90zM162 728l-72 -175h-65l46 175h91z" />
    <glyph glyph-name="uni0312" unicode="&#x312;" horiz-adv-x="0" 
d="M118 658v-100h-118v92q0 65 28.5 98.5t86.5 33.5v-55q-49 0 -49 -58v-11h52z" />
    <glyph glyph-name="uni0326" unicode="&#x326;" horiz-adv-x="0" 
d="M4 -270v55q49 0 49 58v11h-52v100h118v-92q0 -65 -28.5 -98.5t-86.5 -33.5z" />
    <glyph glyph-name="uni0394" unicode="&#x394;" horiz-adv-x="642" 
d="M357 772l262 -739v-33h-596v33l262 739h72zM128 75h386l-145 426l-46 155h-4l-46 -154z" />
    <glyph glyph-name="uni03A9" unicode="&#x3a9;" horiz-adv-x="634" 
d="M434 78h177v-78h-248v75q25 33 47 72t38.5 83.5t26.5 93.5t10 101t-10.5 98.5t-31.5 81t-52.5 55t-73.5 20.5t-73.5 -20.5t-52.5 -55t-31.5 -81t-10.5 -98.5q0 -54 10 -103t26.5 -93t38.5 -82.5t47 -71.5v-75h-248v78h177v4q-34 30 -63 70t-50 85.5t-32.5 96t-11.5 101.5
q0 89 22 153t59.5 104.5t87.5 60t105 19.5t105 -19.5t87.5 -60t59.5 -104.5t22 -153q0 -51 -11.5 -101.5t-32.5 -96t-50 -85.5t-63 -70v-4z" />
    <glyph glyph-name="uni03BC" unicode="&#x3bc;" horiz-adv-x="500" 
d="M342 0v153q-5 -31 -16 -61t-28.5 -53t-42.5 -37.5t-58 -14.5q-17 0 -36 5t-36.5 17.5t-33 33.5t-24.5 53q5 -37 16.5 -64.5t24 -52t22 -48t9.5 -53.5v-55h-99v688h114v-303q0 -26 4.5 -49t14.5 -40t27 -27t41 -10q25 0 44 12t31.5 31.5t19 44.5t6.5 52v289h113v-371
q0 -37 1.5 -75.5t2.5 -64.5h-117z" />
    <glyph glyph-name="pi" unicode="&#x3c0;" horiz-adv-x="565" 
d="M535 470h-93v-271q0 -69 26.5 -99t71.5 -30v-79q-44 0 -79.5 10t-60 33.5t-37.5 62.5t-13 98v275h-131v-315q0 -48 -6.5 -85.5t-17.5 -69.5h-90q11 29 17.5 69t6.5 86l1 315q-56 0 -101 -14l-12 64q47 28 145 28h373v-78z" />
    <glyph glyph-name="Wgrave" unicode="&#x1e80;" horiz-adv-x="836" 
d="M177 0l-158 700h119l64 -323q12 -64 23 -126.5t19 -118.5h2q8 58 21 119t28 128l73 321h111l68 -323q12 -62 23 -121.5t19 -122.5h2q9 63 20 123t24 123l68 321h114l-171 -700h-118l-70 324q-13 59 -22.5 113.5t-16.5 112.5h-2q-8 -58 -19 -112.5t-26 -114.5l-77 -323
h-118zM440 917l46 -175h-65l-72 175h91z" />
    <glyph glyph-name="wgrave" unicode="&#x1e81;" horiz-adv-x="716" 
d="M125 511l52 -239q9 -42 17 -82.5t14 -80.5h3q8 40 18 81.5t20 80.5l66 240h91l63 -235q11 -44 20.5 -85t17.5 -82h2q6 40 14 81t18 86l55 235h112l-151 -511h-102l-61 219q-11 39 -19.5 77.5t-16.5 84.5h-2q-8 -47 -17 -86t-20 -77l-65 -218h-103l-143 511h117zM380 728
l46 -175h-65l-72 175h91z" />
    <glyph glyph-name="Wacute" unicode="&#x1e82;" horiz-adv-x="836" 
d="M177 0l-158 700h119l64 -323q12 -64 23 -126.5t19 -118.5h2q8 58 21 119t28 128l73 321h111l68 -323q12 -62 23 -121.5t19 -122.5h2q9 63 20 123t24 123l68 321h114l-171 -700h-118l-70 324q-13 59 -22.5 113.5t-16.5 112.5h-2q-8 -58 -19 -112.5t-26 -114.5l-77 -323
h-118zM486 917l-72 -175h-65l46 175h91z" />
    <glyph glyph-name="wacute" unicode="&#x1e83;" horiz-adv-x="716" 
d="M125 511l52 -239q9 -42 17 -82.5t14 -80.5h3q8 40 18 81.5t20 80.5l66 240h91l63 -235q11 -44 20.5 -85t17.5 -82h2q6 40 14 81t18 86l55 235h112l-151 -511h-102l-61 219q-11 39 -19.5 77.5t-16.5 84.5h-2q-8 -47 -17 -86t-20 -77l-65 -218h-103l-143 511h117zM426 728
l-72 -175h-65l46 175h91z" />
    <glyph glyph-name="Wdieresis" unicode="&#x1e84;" horiz-adv-x="836" 
d="M177 0l-158 700h119l64 -323q12 -64 23 -126.5t19 -118.5h2q8 58 21 119t28 128l73 321h111l68 -323q12 -62 23 -121.5t19 -122.5h2q9 63 20 123t24 123l68 321h114l-171 -700h-118l-70 324q-13 59 -22.5 113.5t-16.5 112.5h-2q-8 -58 -19 -112.5t-26 -114.5l-77 -323
h-118zM292 872h97v-107h-97v107zM447 872h97v-107h-97v107z" />
    <glyph glyph-name="wdieresis" unicode="&#x1e85;" horiz-adv-x="716" 
d="M125 511l52 -239q9 -42 17 -82.5t14 -80.5h3q8 40 18 81.5t20 80.5l66 240h91l63 -235q11 -44 20.5 -85t17.5 -82h2q6 40 14 81t18 86l55 235h112l-151 -511h-102l-61 219q-11 39 -19.5 77.5t-16.5 84.5h-2q-8 -47 -17 -86t-20 -77l-65 -218h-103l-143 511h117zM231 683
h97v-107h-97v107zM386 683h97v-107h-97v107z" />
    <glyph glyph-name="Germandbls" unicode="&#x1e9e;" horiz-adv-x="523" 
d="M349 512q0 -35 22.5 -74.5t49 -84t49 -94.5t22.5 -107q0 -36 -11.5 -65.5t-32.5 -50.5t-50 -32.5t-65 -11.5q-76 0 -122.5 50t-46.5 150h95q0 -54 16.5 -83t51.5 -29q29 0 45.5 19t16.5 49q0 39 -22 82t-48.5 87t-48.5 88t-22 84q0 42 24.5 69.5t72.5 47.5
q-12 9 -36.5 19.5t-56.5 10.5q-52 0 -79.5 -40.5t-27.5 -141.5v-454h-110v455q0 52 11 100.5t37 85.5t69 59t108 22q50 0 96 -17t82 -54v-37q-42 -16 -65.5 -39.5t-23.5 -62.5z" />
    <glyph glyph-name="Ygrave" unicode="&#x1ef2;" horiz-adv-x="546" 
d="M212 0v288l-199 412h127l77 -179q16 -38 29.5 -72t27.5 -72h2q12 36 26 71t31 74l76 178h125l-209 -409v-291h-113zM295 917l46 -175h-65l-72 175h91z" />
    <glyph glyph-name="ygrave" unicode="&#x1ef3;" horiz-adv-x="473" 
d="M133 511l85 -281q8 -25 14.5 -51t11.5 -48h3q5 21 11.5 47.5t13.5 51.5l74 281h119l-118 -353q-42 -121 -77.5 -196.5t-80.5 -119.5q-35 -34 -67.5 -49.5t-52.5 -19.5l-30 96q17 6 36.5 16.5t38.5 27.5q8 7 20 20t23 28.5t19 31t8 26.5q0 5 -1 10t-4 13l-170 469h124z
M259 728l46 -175h-65l-72 175h91z" />
    <glyph glyph-name="endash" unicode="&#x2013;" horiz-adv-x="382" 
d="M55 327h271v-74h-271v74z" />
    <glyph glyph-name="emdash" unicode="&#x2014;" horiz-adv-x="457" 
d="M0 327h457v-74h-457v74z" />
    <glyph glyph-name="uni2015" unicode="&#x2015;" horiz-adv-x="977" 
d="M0 327h976v-74h-976v74z" />
    <glyph glyph-name="quoteleft" unicode="&#x2018;" horiz-adv-x="235" 
d="M205 700l-67 -260h-108l108 260h67z" />
    <glyph glyph-name="quoteright" unicode="&#x2019;" horiz-adv-x="236" 
d="M205 700l-108 -260h-67l67 260h108z" />
    <glyph glyph-name="quotesinglbase" unicode="&#x201a;" horiz-adv-x="236" 
d="M205 119l-108 -260h-67l67 260h108z" />
    <glyph glyph-name="quotedblleft" unicode="&#x201c;" horiz-adv-x="401" 
d="M370 700l-66 -260h-108l108 260h66zM205 700l-67 -260h-108l108 260h67z" />
    <glyph glyph-name="quotedblright" unicode="&#x201d;" horiz-adv-x="401" 
d="M205 700l-108 -260h-67l67 260h108zM370 700l-108 -260h-66l66 260h108z" />
    <glyph glyph-name="quotedblbase" unicode="&#x201e;" horiz-adv-x="402" 
d="M370 120l-108 -260h-66l66 260h108zM205 120l-108 -260h-67l67 260h108z" />
    <glyph glyph-name="dagger" unicode="&#x2020;" horiz-adv-x="504" 
d="M292 772v-203h188v-74h-188v-566h-80v566h-189v74h189v203h80z" />
    <glyph glyph-name="daggerdbl" unicode="&#x2021;" horiz-adv-x="504" 
d="M292 779v-178h188v-74h-188v-339h188v-74h-188v-178h-80v178h-189v74h189v339h-189v74h189v178h80z" />
    <glyph glyph-name="bullet" unicode="&#x2022;" horiz-adv-x="356" 
d="M71 448h214v-229h-214v229z" />
    <glyph glyph-name="ellipsis" unicode="&#x2026;" horiz-adv-x="895" 
d="M51 133h121v-133h-121v133zM387 133h121v-133h-121v133zM723 133h121v-133h-121v133z" />
    <glyph glyph-name="perthousand" unicode="&#x2030;" horiz-adv-x="1128" 
d="M235 2l383 700h-65l-384 -700h66zM330 503q0 -46 -9.5 -84t-28.5 -65.5t-47 -42.5t-66 -15q-37 0 -65.5 15t-47.5 42.5t-28.5 65.5t-9.5 84t9.5 84.5t28.5 66t47.5 42.5t65.5 15q38 0 66 -15t47 -42.5t28.5 -66t9.5 -84.5zM113 503q0 -64 16 -103.5t50 -39.5
q33 0 49 39.5t16 103.5t-16 104t-49 40q-34 0 -50 -40t-16 -104zM760 201q0 -46 -9.5 -84t-28.5 -65.5t-47 -42.5t-66 -15q-37 0 -65.5 15t-47.5 42.5t-28.5 65.5t-9.5 84t9.5 84t28.5 65.5t47.5 42.5t65.5 15q38 0 66 -15t47 -42.5t28.5 -65.5t9.5 -84zM544 201
q0 -65 16.5 -104t48.5 -39q34 0 50 39t16 104q0 64 -16 103.5t-50 39.5q-33 0 -49 -39.5t-16 -103.5zM1099 201q0 -46 -9.5 -84t-28.5 -65.5t-47 -42.5t-66 -15q-37 0 -65.5 15t-47.5 42.5t-28.5 65.5t-9.5 84t9.5 84t28.5 65.5t47.5 42.5t65.5 15q38 0 66 -15t47 -42.5
t28.5 -65.5t9.5 -84zM883 201q0 -65 16.5 -104t48.5 -39q34 0 50 39t16 104q0 64 -16 103.5t-50 39.5q-33 0 -49 -39.5t-16 -103.5z" />
    <glyph glyph-name="guilsinglleft" unicode="&#x2039;" horiz-adv-x="284" 
d="M233 486l-125 -191l125 -191h-85l-123 191l123 191h85z" />
    <glyph glyph-name="guilsinglright" unicode="&#x203a;" horiz-adv-x="284" 
d="M135 486l124 -191l-123 -191h-85l125 191l-125 191h84z" />
    <glyph glyph-name="fraction" unicode="&#x2044;" horiz-adv-x="488" 
d="M467 700l-381 -700h-66l381 700h66z" />
    <glyph glyph-name="uni2070" unicode="&#x2070;" horiz-adv-x="348" 
d="M174 618q30 0 46.5 36t16.5 108t-16.5 108t-46.5 36q-29 0 -45.5 -36t-16.5 -108t16.5 -108t45.5 -36zM174 970q38 0 66 -15.5t46 -43t27 -66t9 -83.5t-9 -83.5t-27 -66t-46 -43t-66 -15.5t-66 15.5t-46 43t-27 66t-9 83.5t9 83.5t27 66t46 43t66 15.5z" />
    <glyph glyph-name="uni2074" unicode="&#x2074;" horiz-adv-x="369" 
d="M208 821q0 20 1 37.5t3 33.5h-3q-9 -18 -17 -33.5t-17 -30.5l-69 -105l1 -1h101v99zM208 559v102h-183v50l169 256h96v-245h53v-61h-53v-102h-82z" />
    <glyph glyph-name="uni2075" unicode="&#x2075;" horiz-adv-x="315" 
d="M113 767q10 23 29.5 37t45.5 14q48 0 74.5 -31.5t26.5 -90.5q0 -65 -36 -103.5t-99 -38.5q-32 0 -56 10t-40.5 27.5t-24.5 41t-8 49.5h77q0 -28 13.5 -45t37.5 -17q29 0 41.5 21.5t12.5 56.5q0 42 -12.5 60t-36.5 18q-18 0 -28.5 -11t-15.5 -25h-81v224h230v-69h-150
v-128z" />
    <glyph glyph-name="uni2076" unicode="&#x2076;" horiz-adv-x="342" 
d="M172 616q27 0 44.5 23t17.5 59q0 32 -16.5 54t-47.5 22q-30 0 -47 -22t-17 -51q0 -34 17 -59.5t49 -25.5zM203 826q52 0 83 -34.5t31 -92.5q0 -30 -10.5 -56.5t-29 -46t-44.5 -31t-56 -11.5q-37 0 -65.5 13.5t-47.5 36.5t-28.5 55t-9.5 68q0 58 17.5 103t50 76t78.5 47
t103 16l1 -65q-8 1 -18 1t-21 -2q-28 -4 -53 -15.5t-43.5 -31.5t-29 -49.5t-10.5 -68.5q9 38 37.5 63t64.5 25z" />
    <glyph glyph-name="uni2077" unicode="&#x2077;" horiz-adv-x="320" 
d="M293 964v-52l-163 -353h-87l163 335v1h-181v69h268z" />
    <glyph glyph-name="uni2078" unicode="&#x2078;" horiz-adv-x="338" 
d="M116 862q0 -23 16.5 -38t43.5 -24q19 7 32 22.5t13 36.5t-12.5 38t-39.5 17q-26 0 -39.5 -15.5t-13.5 -36.5zM229 669q0 31 -19.5 48t-47.5 25q-26 -9 -40.5 -27t-14.5 -42q0 -25 16.5 -43.5t45.5 -18.5q27 0 43.5 16t16.5 42zM298 868q0 -26 -14.5 -50t-46.5 -40v-2
q31 -13 53 -38.5t22 -63.5q0 -54 -40 -87t-105 -33q-36 0 -62.5 9.5t-44 25t-26.5 35t-9 40.5q0 38 20.5 63.5t53.5 40.5v2q-30 15 -45 39t-15 50q0 25 10 45.5t28 34.5t42.5 22t52.5 8q31 0 54.5 -8.5t39.5 -22.5t24 -32t8 -38z" />
    <glyph glyph-name="uni2079" unicode="&#x2079;" horiz-adv-x="342" 
d="M171 908q-27 0 -44.5 -23.5t-17.5 -58.5q0 -33 16.5 -54.5t47.5 -21.5q30 0 47 22t17 51q0 33 -17 59t-49 26zM141 697q-52 0 -83.5 34.5t-31.5 93.5q0 30 10.5 56.5t29 46t44.5 30.5t56 11q37 0 65.5 -13t47.5 -36.5t28.5 -55t9.5 -68.5q0 -49 -14 -91t-40.5 -73.5
t-65.5 -50.5t-89 -24q-28 -3 -40 -2v64q79 0 126.5 40.5t47.5 125.5q-9 -38 -37.5 -63t-63.5 -25z" />
    <glyph glyph-name="uni2080" unicode="&#x2080;" horiz-adv-x="348" 
d="M173 59q30 0 46.5 36t16.5 108t-16.5 108t-46.5 36q-29 0 -45.5 -36t-16.5 -108t16.5 -108t45.5 -36zM173 411q38 0 66 -15.5t46 -43t27 -66t9 -83.5t-9 -83.5t-27 -66t-46 -43t-66 -15.5t-66 15.5t-46 43t-27 66t-9 83.5t9 83.5t27 66t46 43t66 15.5z" />
    <glyph glyph-name="uni2081" unicode="&#x2081;" horiz-adv-x="287" 
d="M201 69h60v-69h-220v69h73v222h-89v69h30q37 0 48.5 8.5t11.5 36.5h86v-336z" />
    <glyph glyph-name="uni2082" unicode="&#x2082;" horiz-adv-x="328" 
d="M25 45l58 58q55 54 90.5 97t35.5 85q0 24 -12 39.5t-38 15.5q-28 0 -39.5 -23t-11.5 -55h-79q0 38 10.5 66t29 46t42.5 27t51 9q36 0 61 -9.5t41 -26t23.5 -37t7.5 -43.5q0 -28 -10 -54t-27 -50t-39 -46.5t-46 -44.5l-28 -28v-2h158v-69h-278v45z" />
    <glyph glyph-name="uni2083" unicode="&#x2083;" horiz-adv-x="347" 
d="M43 292q0 31 11 53.5t29 36.5t42 21t50 7q68 0 100 -29.5t32 -68.5q0 -32 -20.5 -56.5t-55.5 -36.5v-2q39 -7 64.5 -33.5t25.5 -65.5q0 -52 -37 -87.5t-112 -35.5q-39 0 -67 11.5t-45.5 30.5t-26 43t-8.5 49h79q0 -31 17.5 -50.5t47.5 -19.5q32 0 47 17t15 44
q0 35 -28.5 51t-70.5 16h-21v56h20q13 0 28.5 3t28.5 9.5t22 18.5t9 30q0 19 -11.5 31t-36.5 12q-27 0 -38.5 -17.5t-11.5 -37.5h-78z" />
    <glyph glyph-name="uni2084" unicode="&#x2084;" horiz-adv-x="366" 
d="M206 262q0 20 1 37.5t2 33.5h-2q-10 -18 -17.5 -33.5t-17.5 -30.5l-68 -105l1 -1h101v99zM206 0v102h-183v50l169 256h95v-245h53v-61h-53v-102h-81z" />
    <glyph glyph-name="uni2085" unicode="&#x2085;" horiz-adv-x="315" 
d="M113 208q10 23 29.5 37t45.5 14q48 0 74.5 -31.5t26.5 -90.5q0 -65 -36 -103.5t-99 -38.5q-32 0 -56 10t-40.5 27.5t-24.5 41t-8 49.5h77q0 -28 13.5 -45t37.5 -17q29 0 41.5 21.5t12.5 56.5q0 42 -12.5 60t-36.5 18q-18 0 -28.5 -11t-15.5 -25h-81v224h230v-69h-150
v-128z" />
    <glyph glyph-name="uni2086" unicode="&#x2086;" horiz-adv-x="342" 
d="M171 57q27 0 44.5 23t17.5 59q0 32 -16.5 54t-47.5 22q-30 0 -47 -22t-17 -51q0 -34 17 -59.5t49 -25.5zM202 267q52 0 83 -34.5t31 -92.5q0 -30 -10.5 -56.5t-29 -46t-44.5 -31t-56 -11.5q-37 0 -65.5 13.5t-47.5 36.5t-28.5 55t-9.5 68q0 58 17.5 103t50 76t78.5 47
t103 16l1 -65q-8 1 -18 1t-21 -2q-28 -4 -53 -15.5t-43.5 -31.5t-29 -49.5t-10.5 -68.5q9 38 37.5 63t64.5 25z" />
    <glyph glyph-name="uni2087" unicode="&#x2087;" horiz-adv-x="319" 
d="M293 405v-52l-163 -353h-87l163 335v1h-181v69h268z" />
    <glyph glyph-name="uni2088" unicode="&#x2088;" horiz-adv-x="338" 
d="M116 303q0 -23 16.5 -38t43.5 -24q19 7 32 22.5t13 36.5t-12.5 38t-39.5 17q-26 0 -39.5 -15.5t-13.5 -36.5zM229 110q0 31 -19.5 48t-47.5 25q-26 -9 -40.5 -27t-14.5 -42q0 -25 16.5 -43.5t45.5 -18.5q27 0 43.5 16t16.5 42zM298 309q0 -26 -14.5 -50t-46.5 -40v-2
q31 -13 53 -38.5t22 -63.5q0 -54 -40 -87t-105 -33q-36 0 -62.5 9.5t-44 25t-26.5 35t-9 40.5q0 38 20.5 63.5t53.5 40.5v2q-30 15 -45 39t-15 50q0 25 10 45.5t28 34.5t42.5 22t52.5 8q31 0 54.5 -8.5t39.5 -22.5t24 -32t8 -38z" />
    <glyph glyph-name="uni2089" unicode="&#x2089;" horiz-adv-x="342" 
d="M170 349q-27 0 -44.5 -23.5t-17.5 -58.5q0 -33 16.5 -54.5t47.5 -21.5q30 0 47 22t17 51q0 33 -17 59t-49 26zM140 138q-52 0 -83.5 34.5t-31.5 93.5q0 30 10.5 56.5t29 46t44.5 30.5t56 11q37 0 65.5 -13t47.5 -36.5t28.5 -55t9.5 -68.5q0 -49 -14 -91t-40.5 -73.5
t-65.5 -50.5t-89 -24q-28 -3 -40 -2v64q79 0 126.5 40.5t47.5 125.5q-9 -38 -37.5 -63t-63.5 -25z" />
    <glyph glyph-name="franc" unicode="&#x20a3;" horiz-adv-x="435" 
d="M404 700v-95h-245v-208h228v-93h-228v-119h126v-71h-126v-114h-114v114h-59v71h59v515h359z" />
    <glyph glyph-name="lira" unicode="&#x20a4;" horiz-adv-x="548" 
d="M510 259q2 -18 3.5 -32t1.5 -25q0 -39 -11.5 -75.5t-36.5 -64.5t-65 -44.5t-98 -16.5h-279v65q27 12 48 32t35.5 45.5t21 55t5.5 60.5h-62v58h57l-4 32l-4 32h-49v57h41q-3 21 -5 39.5t-2 33.5q0 94 53 146t144 52q54 0 90.5 -19.5t59 -51t32 -70.5t9.5 -77l-108 -1
q0 25 -5 48t-15.5 40.5t-26.5 28t-39 10.5q-45 0 -65.5 -31.5t-20.5 -79.5q0 -12 2 -30t5 -38h161v-57h-152q2 -17 4.5 -32.5t4.5 -31.5h143v-58h-143q-4 -54 -30 -97t-80 -67h162q61 0 93.5 31.5t32.5 88.5q0 8 -0.5 22t-2.5 22h95z" />
    <glyph glyph-name="peseta" unicode="&#x20a7;" horiz-adv-x="1272" 
d="M157 360q11 -3 25 -4t31 -1q69 0 107.5 36t38.5 101q0 57 -34.5 90t-100.5 33h-67v-255zM45 700h172q64 0 112 -12t80 -41q29 -26 46 -64.5t17 -86.5q0 -57 -20 -100.5t-54.5 -72t-81.5 -43t-102 -14.5q-15 0 -30.5 0.5t-26.5 3.5v-270h-112v700zM766 81q13 0 25.5 2
t21.5 5v-88q-14 -5 -35.5 -8.5t-47.5 -3.5q-42 0 -69 13.5t-42.5 37.5t-21.5 56t-6 69v263h-70v84h70v119h112v-119h113v-84h-113v-256q0 -47 15.5 -68.5t47.5 -21.5zM1059 524q38 0 70.5 -10.5t56.5 -30.5t37.5 -50.5t14.5 -70.5h-100q-2 36 -22.5 56t-54.5 20
q-35 0 -50.5 -16.5t-15.5 -39.5q0 -28 26 -45t71 -34q35 -12 64 -26.5t49 -33.5t31 -44t11 -57q0 -38 -14 -66.5t-38.5 -48t-57.5 -29.5t-71 -10q-41 0 -75.5 11t-59.5 32t-39.5 52.5t-15.5 71.5h101q3 -39 26 -61t63 -22q33 0 53 17.5t20 46.5q0 34 -31 53.5t-79 38.5
q-67 24 -104 59.5t-37 94.5q0 66 47 104t124 38z" />
    <glyph glyph-name="Euro" unicode="&#x20ac;" horiz-adv-x="544" 
d="M511 32q-31 -20 -67 -30t-88 -10q-56 0 -102.5 19t-82 55t-59 86.5t-32.5 113.5h-59v57h54q-1 6 -1 12v11q0 10 0.5 18.5t0.5 17.5h-53v58h61q11 63 35 112.5t60 84.5t82 53.5t101 18.5q48 0 80 -8.5t63 -25.5l-28 -87q-50 28 -108 28q-34 0 -61.5 -13.5t-48 -37.5
t-34.5 -56t-22 -69h215v-58h-225v-59h224v-57h-215q7 -39 21.5 -72t35.5 -57t48.5 -38t60.5 -14q30 0 60.5 8t56.5 26z" />
    <glyph glyph-name="uni2113" unicode="&#x2113;" horiz-adv-x="402" 
d="M171 274q49 45 82 105t33 128q0 22 -3 42t-9.5 35t-17.5 23.5t-27 8.5q-18 0 -29.5 -10.5t-18 -28.5t-8.5 -41.5t-2 -50.5v-211zM376 508q0 -52 -17 -100t-45.5 -90t-65.5 -77.5t-76 -62.5q0 -20 4 -39t12 -33.5t20 -23t30 -8.5q14 0 25 2t19 5v-85q-11 -3 -25.5 -5
t-31.5 -2q-35 0 -61 10.5t-45 29t-30.5 43t-16.5 52.5q-11 -5 -17.5 -7t-8.5 -4l-26 61q5 2 16.5 8t28.5 15v283q0 108 39.5 167t123.5 59q36 0 64 -15t46.5 -41.5t28 -62.5t9.5 -79z" />
    <glyph glyph-name="uni2116" unicode="&#x2116;" horiz-adv-x="919" 
d="M740 361q30 0 46.5 36t16.5 108t-16.5 108t-46.5 36q-29 0 -45.5 -36t-16.5 -108t16.5 -108t45.5 -36zM149 0h-104v700h121l168 -312q30 -56 58 -115.5t51 -115.5l2 1q-6 71 -8.5 143t-2.5 157v242h103v-700h-113l-169 316q-29 55 -58.5 115.5t-52.5 119.5h-3
q5 -67 6.5 -139.5t1.5 -166.5v-245zM867 245v-73h-253v73h253zM740 713q38 0 66 -15.5t46.5 -43t27.5 -66t9 -83.5t-9 -83.5t-27.5 -66t-46.5 -43t-66 -15.5t-66 15.5t-46 43t-27 66t-9 83.5t9 83.5t27 66t46 43t66 15.5z" />
    <glyph glyph-name="trademark" unicode="&#x2122;" horiz-adv-x="895" 
d="M864 700v-408h-74v315l-123 -315h-70l-122 315v-315h-74v408h111l121 -300l121 300h110zM353 700v-65h-124v-343h-80v343h-124v65h328z" />
    <glyph glyph-name="estimated" unicode="&#x212e;" horiz-adv-x="859" 
d="M681 361v197q0 14 -9 24q-105 102 -242 102q-142 0 -244 -105q-10 -11 -10 -24v-194q0 -5 6 -5h495q4 0 4 5zM828 336h-646q-6 0 -6 -4v-196q0 -10 9 -22q103 -106 245 -106q153 0 257 119h57q-58 -68 -142 -103.5t-173 -35.5q-165 0 -282 105t-117 253q0 149 117 254
t282 105t282 -105t117 -254v-10z" />
    <glyph glyph-name="partialdiff" unicode="&#x2202;" horiz-adv-x="508" 
d="M145 228q0 -72 28.5 -112.5t76.5 -40.5q28 0 49 12.5t35.5 35t22 53.5t7.5 68q0 23 -8 45.5t-23 40.5t-36 29.5t-46 11.5q-48 0 -77 -38.5t-29 -104.5zM478 276q0 -63 -15.5 -115.5t-44.5 -90.5t-72 -59.5t-99 -21.5q-51 0 -91 19.5t-68 53t-42.5 77t-14.5 91.5
q0 52 14 92t38 67.5t55.5 41.5t66.5 14q63 0 105.5 -36.5t57.5 -96.5q-2 63 -21.5 115.5t-54.5 90t-85 58.5t-114 21v91q92 0 163.5 -31t120.5 -85.5t75 -130t26 -165.5z" />
    <glyph glyph-name="product" unicode="&#x220f;" horiz-adv-x="609" 
d="M586 718v-85h-69v-633h-98v633h-230v-633h-98v633h-68v85h563z" />
    <glyph glyph-name="summation" unicode="&#x2211;" horiz-adv-x="472" 
d="M442 718v-81h-285v-4l175 -274l-178 -275v-3h293v-81h-411v63l193 296l-190 296v63h403z" />
    <glyph glyph-name="minus" unicode="&#x2212;" horiz-adv-x="370" 
d="M60 328h249v-76h-249v76z" />
    <glyph glyph-name="uni2215" unicode="&#x2215;" horiz-adv-x="444" 
d="M450 700l-381 -700h-66l381 700h66z" />
    <glyph glyph-name="radical" unicode="&#x221a;" horiz-adv-x="593" 
d="M567 821l-249 -843h-99l-109 346l-86 -24l-15 55l161 45l65 -207l28 -120h4l30 129l182 619h88z" />
    <glyph glyph-name="infinity" unicode="&#x221e;" horiz-adv-x="714" 
d="M201 203q35 0 61.5 25t49.5 57q-11 15 -23.5 30t-26.5 27t-30.5 20t-34.5 8q-19 0 -33 -7.5t-24 -19.5t-15 -27t-5 -31q0 -39 24.5 -60.5t56.5 -21.5zM517 206q36 0 56.5 25.5t20.5 56.5q0 40 -22.5 62.5t-56.5 22.5q-16 0 -31.5 -7t-29.5 -19t-27 -27t-24 -31
q11 -13 23.5 -28t27 -27t30.5 -20t33 -8zM534 453q32 0 59.5 -11t47.5 -32.5t31 -52t11 -69.5q0 -37 -13 -67t-35 -51.5t-51.5 -33t-61.5 -11.5q-29 0 -54 10.5t-46 27t-39 37t-33 40.5h-2q-15 -22 -32.5 -43.5t-38 -38t-44 -26.5t-52.5 -10q-30 0 -57 11.5t-48 32.5
t-33.5 51.5t-12.5 69.5q0 38 13 68.5t35.5 51.5t52 32t62.5 11q30 0 55.5 -9.5t47 -25t39.5 -35.5t33 -41h3q18 23 35 44t36.5 36.5t42 24.5t49.5 9z" />
    <glyph glyph-name="integral" unicode="&#x222b;" horiz-adv-x="381" 
d="M301 873q18 0 32.5 -2t27.5 -5v-91q-9 3 -20 5.5t-26 2.5q-20 0 -33 -9t-21 -24t-11.5 -35t-3.5 -41l1 -612q0 -39 -10 -76t-30 -65t-51.5 -45t-75.5 -17q-18 0 -32.5 2t-26.5 5v90q17 -6 45 -6q19 0 32.5 9t21.5 24t12 34.5t4 40.5l-1 613q0 39 9.5 75.5t30 64.5t52 45
t74.5 17z" />
    <glyph glyph-name="approxequal" unicode="&#x2248;" horiz-adv-x="590" 
d="M165 585q38 0 70.5 -20.5t62 -45.5t58 -45.5t59.5 -20.5q20 0 31.5 14t17.5 33t7.5 40t1.5 34h76q0 -35 -4 -72.5t-17.5 -68.5t-38.5 -51t-68 -20q-39 0 -73 20.5t-64 45t-57.5 45t-55.5 20.5q-19 0 -30 -13.5t-17 -32.5t-7.5 -40t-1.5 -35h-75q0 33 3 70t16 69t38 53
t68 21zM165 348q38 0 70.5 -20.5t62 -45.5t58 -45.5t59.5 -20.5q20 0 31.5 14t17.5 33t7.5 40t1.5 34h76q0 -35 -4 -72.5t-17.5 -68.5t-38.5 -51t-68 -20q-39 0 -73 20.5t-64 45.5t-57.5 45.5t-55.5 20.5q-19 0 -30 -13.5t-17 -33t-7.5 -40t-1.5 -35.5h-75q0 33 3 70.5
t16 69t38 52.5t68 21z" />
    <glyph glyph-name="notequal" unicode="&#x2260;" horiz-adv-x="647" 
d="M483 591l-55 -106h163v-73h-202l-67 -131h269v-73h-308l-55 -106h-65l55 106h-163v73h202l67 131h-269v73h308l55 106h65z" />
    <glyph glyph-name="lessequal" unicode="&#x2264;" horiz-adv-x="590" 
d="M539 567l-393 -190v-2l393 -189v-86l-489 244v66l489 243v-86zM50 74h489v-74h-489v74z" />
    <glyph glyph-name="greaterequal" unicode="&#x2265;" horiz-adv-x="590" 
d="M539 410v-66l-489 -244v86l393 189v2l-393 190v86zM50 74h489v-74h-489v74z" />
    <glyph glyph-name="lozenge" unicode="&#x25ca;" horiz-adv-x="522" 
d="M259 109h4l49 144q6 16 15 40.5t18.5 50t17.5 47t12 31.5q-4 9 -12 31t-17.5 47t-18.5 50t-15 40l-49 145h-5l-49 -144q-6 -16 -15 -40.5t-18 -50t-17 -47t-12 -31.5q4 -9 12 -31t17 -47.5t18 -50t15 -40.5zM299 844q43 -110 79 -200q15 -38 30 -75t27 -68t20.5 -52
t10.5 -27q-2 -6 -10.5 -27t-20.5 -51.5t-27 -68t-30 -75.5q-36 -90 -79 -200h-76q-44 110 -79 200q-15 38 -30 75.5t-27 68t-20.5 51.5t-11.5 27q3 6 11.5 27t20.5 52t27 68t30 75q35 90 79 200h76z" />
    <glyph glyph-name="zero.numr" horiz-adv-x="348" 
d="M173 358q30 0 46.5 36t16.5 108t-16.5 108t-46.5 36q-29 0 -45.5 -36t-16.5 -108t16.5 -108t45.5 -36zM173 710q38 0 66 -15.5t46 -43t27 -66t9 -83.5t-9 -83.5t-27 -66t-46 -43t-66 -15.5t-66 15.5t-46 43t-27 66t-9 83.5t9 83.5t27 66t46 43t66 15.5z" />
    <glyph glyph-name="five.numr" horiz-adv-x="315" 
d="M189 558q48 0 74.5 -31.5t26.5 -90.5q0 -65 -36 -103.5t-99 -38.5q-32 0 -56 10t-40.5 27.5t-24.5 41t-8 49.5h77q0 -28 13.5 -45t37.5 -17q29 0 41.5 21.5t12.5 56.5q0 42 -12.5 60t-36.5 18q-18 0 -28.5 -11t-15.5 -25h-81v224h230v-69h-150v-128q10 23 29.5 37
t45.5 14z" />
    <glyph glyph-name="six.numr" horiz-adv-x="342" 
d="M171 356q27 0 44.5 23t17.5 59q0 32 -16.5 54t-47.5 22q-30 0 -47 -22t-17 -51q0 -34 17 -59.5t49 -25.5zM200 566q52 0 84 -34.5t32 -92.5q0 -30 -10.5 -56.5t-29 -46t-44.5 -31t-56 -11.5q-37 0 -65.5 13.5t-47.5 36.5t-28.5 55t-9.5 68q0 58 17.5 103t50 76t78.5 47
t103 16l1 -65q-8 1 -18 1t-21 -2q-28 -4 -53 -15.5t-43.5 -31.5t-29 -49.5t-10.5 -68.5q9 38 37 63t63 25z" />
    <glyph glyph-name="seven.numr" horiz-adv-x="320" 
d="M294 704v-52l-163 -353h-87l163 335v1h-181v69h268z" />
    <glyph glyph-name="eight.numr" horiz-adv-x="338" 
d="M116 602q0 -23 16.5 -38t43.5 -24q19 7 32 22.5t13 36.5t-12.5 38t-39.5 17q-26 0 -39.5 -15.5t-13.5 -36.5zM229 409q0 31 -19.5 48t-47.5 25q-26 -9 -40.5 -27t-14.5 -42q0 -25 16.5 -43.5t45.5 -18.5q27 0 43.5 16t16.5 42zM298 608q0 -26 -14.5 -50t-46.5 -40v-2
q31 -13 53 -38.5t22 -63.5q0 -54 -40 -87t-105 -33q-36 0 -62.5 9.5t-44 25t-26.5 35t-9 40.5q0 38 20.5 63.5t53.5 40.5v2q-30 15 -45 39t-15 50q0 25 10 45.5t28 34.5t42.5 22t52.5 8q31 0 54.5 -8.5t39.5 -22.5t24 -32t8 -38z" />
    <glyph glyph-name="nine.numr" horiz-adv-x="342" 
d="M171 648q-27 0 -44.5 -23.5t-17.5 -58.5q0 -33 16.5 -54.5t47.5 -21.5q30 0 47 22t17 51q0 33 -17 59t-49 26zM142 437q-52 0 -84 34.5t-32 93.5q0 30 10.5 56.5t29 46t44.5 30.5t56 11q37 0 65.5 -13t47.5 -36.5t28.5 -55t9.5 -68.5q0 -49 -14 -91t-40.5 -73.5
t-65.5 -50.5t-89 -24q-28 -3 -40 -2v64q79 0 126.5 40.5t47.5 125.5q-9 -38 -37 -63t-63 -25z" />
    <glyph glyph-name="one.numr" horiz-adv-x="290" 
d="M204 368h60v-69h-220v69h73v222h-89v69h30q37 0 48.5 8.5t11.5 36.5h86v-336z" />
    <glyph glyph-name="two.numr" horiz-adv-x="331" 
d="M28 344l58 58q55 54 90.5 97t35.5 85q0 24 -12 39.5t-38 15.5q-28 0 -39.5 -23t-11.5 -55h-79q0 38 10.5 66t29 46t42.5 27t51 9q36 0 61 -9.5t41 -26t23.5 -37t7.5 -43.5q0 -28 -10 -54t-27 -50t-39 -46.5t-46 -44.5l-28 -28v-2h158v-69h-278v45z" />
    <glyph glyph-name="three.numr" horiz-adv-x="347" 
d="M43 591q0 31 11 53.5t29 36.5t42 21t50 7q68 0 100 -29.5t32 -68.5q0 -32 -20.5 -56.5t-55.5 -36.5v-2q39 -7 64.5 -33.5t25.5 -65.5q0 -52 -37 -87.5t-112 -35.5q-39 0 -67 11.5t-45.5 30.5t-26 43t-8.5 49h79q0 -31 17.5 -50.5t47.5 -19.5q32 0 47 17t15 44
q0 35 -28.5 51t-70.5 16h-21v56h20q13 0 28.5 3t28.5 9.5t22 18.5t9 30q0 19 -11.5 31t-36.5 12q-27 0 -38.5 -17.5t-11.5 -37.5h-78z" />
    <glyph glyph-name="four.numr" horiz-adv-x="369" 
d="M208 561q0 20 1 37.5t3 33.5h-3q-9 -18 -17 -33.5t-17 -30.5l-69 -105l1 -1h101v99zM208 299v102h-183v50l169 256h96v-245h53v-61h-53v-102h-82z" />
    <glyph glyph-name="one.dnom" horiz-adv-x="428" 
d="M403 89v-89h-342v89h129v252h-155v90h60q30 0 49.5 3.5t30.5 11.5t15 23t4 37h105v-417h104z" />
    <glyph glyph-name="two.dnom" horiz-adv-x="441" 
d="M31 0v63l52 40q92 66 144 127.5t52 119.5q0 38 -19.5 56.5t-50.5 18.5q-35 0 -56 -25.5t-21 -73.5h-100q0 91 49 138.5t134 47.5q81 0 127.5 -40t46.5 -114q0 -68 -42.5 -124.5t-109.5 -109.5l-45 -36v-3q20 2 45.5 3.5t44.5 1.5h128v-90h-379z" />
    <glyph glyph-name="three.dnom" horiz-adv-x="418" 
d="M37 -11q16 -5 41.5 -9t52.5 -4q65 0 106 29.5t41 78.5q0 43 -35.5 68t-95.5 25h-27t-23 -2l-1 80l21 1q29 2 54.5 9.5t44.5 19.5t30 28.5t11 37.5q0 35 -24 53t-66 18q-32 0 -62 -9.5t-48 -18.5l-19 73q23 16 64.5 28t87.5 12q77 0 124.5 -37t47.5 -100
q0 -52 -32.5 -88.5t-80.5 -49.5v-3q29 -4 54 -16t43.5 -30t29.5 -43t11 -56q0 -44 -20 -79.5t-54 -60.5t-78.5 -38.5t-92.5 -13.5q-37 0 -68.5 5t-48.5 12z" />
    <glyph glyph-name="four.dnom" horiz-adv-x="498" 
d="M359 501l-232 -372l1 -3h161v172h101v-168h82v-84h-82v-150h-101v150h-270v72l243 383h97z" />
    <glyph glyph-name="five.dnom" horiz-adv-x="416" 
d="M37 -11q15 -5 39 -8t51 -3q28 0 54 7.5t46.5 22.5t32.5 37t12 50q0 43 -29 71q-25 24 -75.5 34t-124.5 6l49 295h284l-13 -92h-197l-23 -124q44 -1 87.5 -10t78 -30t55.5 -55t21 -86q0 -47 -18 -86t-51.5 -67t-80 -43.5t-103.5 -15.5q-31 0 -60.5 4.5t-46.5 11.5z" />
    <glyph glyph-name="six.dnom" horiz-adv-x="471" 
d="M237 321q-27 0 -46 -12t-31 -30.5t-17.5 -40t-5.5 -40.5q0 -60 27.5 -95t71.5 -35q18 0 35.5 7.5t31 23.5t21.5 39.5t8 56.5q0 57 -23.5 91.5t-71.5 34.5zM278 386q36 0 66.5 -12t52 -35.5t34 -58.5t12.5 -80q0 -52 -18 -92t-46.5 -67t-65 -41t-73.5 -14q-51 0 -91 18
t-67 51t-41.5 79t-14.5 101q0 77 26 141.5t73.5 113t114.5 78.5t149 36l14 -82q-59 -6 -109 -28.5t-86.5 -58t-57 -81.5t-20.5 -98q5 24 18 47.5t32 42t44 29.5t54 11z" />
    <glyph glyph-name="seven.dnom" horiz-adv-x="438" 
d="M417 500v-68l-253 -532h-114l252 503v3h-269v94h384z" />
    <glyph glyph-name="eight.dnom" horiz-adv-x="466" 
d="M148 443q0 -35 25.5 -58.5t70.5 -40.5q30 14 51.5 37t21.5 61t-23 60.5t-61 22.5q-36 0 -60.5 -22.5t-24.5 -59.5zM331 152q0 45 -31 72t-79 44q-40 -17 -63.5 -44.5t-23.5 -65.5q0 -40 26.5 -68t72.5 -28q41 0 69.5 24t28.5 66zM419 448q0 -44 -24.5 -77.5t-70.5 -56.5
v-3q23 -9 44 -23t37.5 -33t26 -42.5t9.5 -51.5q0 -40 -16 -72.5t-44 -55.5t-67 -35.5t-84 -12.5q-51 0 -89.5 14t-64 37t-38.5 52.5t-13 60.5q0 55 33 92t82 62v2q-42 21 -68 54.5t-26 77.5q0 38 15 68t41.5 51t61.5 32.5t74 11.5q41 0 74.5 -11.5t57 -32t36.5 -48t13 -60.5
z" />
    <glyph glyph-name="nine.dnom" horiz-adv-x="468" 
d="M232 172q27 0 46 12t31 30.5t17.5 40t5.5 40.5q0 60 -28 95t-72 35q-18 0 -35 -7.5t-30.5 -23.5t-22 -39.5t-8.5 -56.5q0 -57 24 -91.5t72 -34.5zM190 107q-36 0 -66.5 12t-52 35.5t-34 58.5t-12.5 80q0 53 18 93t46.5 67t65 40.5t73.5 13.5q51 0 91 -18t67 -51t41.5 -79
t14.5 -101q0 -76 -26 -141t-73.5 -113.5t-114.5 -78.5t-148 -36l-15 82q59 6 109.5 28.5t87 58t57 81.5t20.5 98q-6 -24 -18.5 -47.5t-32 -42t-44 -29.5t-54.5 -11z" />
    <glyph glyph-name="zero.dnom" horiz-adv-x="505" 
d="M252 70q54 0 84 49t30 127t-30 126.5t-84 48.5t-84 -48.5t-30 -126.5t30 -127t84 -49zM252 506q47 0 87.5 -17t70.5 -50t47 -81.5t17 -111.5t-17 -111.5t-47 -82t-70.5 -50.5t-87.5 -17t-87.5 17t-70.5 50.5t-47 82t-17 111.5t17 111.5t47 81.5t70.5 50t87.5 17z" />
    <glyph glyph-name="ampersand.alt1" horiz-adv-x="641" 
d="M204 541q0 -35 18.5 -67t51.5 -37q36 23 53.5 49t17.5 67q0 14 -3.5 28t-11.5 25.5t-21 19t-33 7.5q-35 0 -53.5 -25.5t-18.5 -66.5zM622 442q-31 -88 -65.5 -171.5t-80.5 -146.5l108 -124h-127l-49 54q-35 -31 -74.5 -46.5t-87.5 -15.5q-53 0 -92.5 14.5t-66 39.5
t-39.5 58.5t-13 70.5q0 49 18.5 86t48.5 66t67.5 51.5t75.5 41.5q-29 1 -54 11.5t-43 28.5t-28.5 42t-10.5 51q0 69 43.5 112.5t128.5 43.5q40 0 70.5 -11.5t51.5 -31.5t31.5 -47.5t10.5 -59.5q1 -67 -35.5 -112.5t-111.5 -86.5q-30 -17 -58.5 -35.5t-50 -40.5t-35 -47.5
t-13.5 -56.5q0 -46 30.5 -74t81.5 -28q48 0 87.5 28.5t72 78t60 116t52.5 141.5h97z" />
    <glyph glyph-name="ampersand.alt2" horiz-adv-x="631" 
d="M259 74q32 0 59.5 20t37.5 58q-15 18 -33.5 40t-36.5 45t-35.5 45t-31.5 41q-14 -9 -28 -22t-25 -28.5t-18 -34t-7 -39.5q0 -27 8.5 -50t24 -39.5t37.5 -26t48 -9.5zM280 402q12 -14 38 -45.5t58.5 -71t69 -84t69.5 -84.5t58.5 -71.5t36.5 -45.5h-127q-9 10 -23 26.5
t-30 36t-32 39.5t-30 36q-2 -28 -11.5 -54.5t-27.5 -47t-45 -32.5t-65 -12q-44 0 -78 15.5t-57.5 41t-36 59.5t-12.5 70t11 67t29 57t42 46.5t51 35.5l-5 10q-28 34 -44 73.5t-16 76.5q0 35 11.5 65.5t34 52.5t56 34.5t76.5 12.5q85 0 133 -55t48 -152h-98q0 24 -4.5 46.5
t-15 39.5t-27 27.5t-40.5 10.5q-34 0 -54 -21t-20 -56q0 -19 8 -39.5t20 -40t25.5 -37t23.5 -30.5z" />
    <glyph glyph-name="a.alt1" horiz-adv-x="516" 
d="M227 70q24 0 43 11.5t32.5 31.5t21 46.5t7.5 56.5l-12 43q-39 0 -71 -5t-55.5 -17t-36 -32t-12.5 -50q0 -43 24.5 -64t58.5 -21zM473 119q21 -69 43 -119h-119l-55 175q-3 -39 -13 -73t-28 -59.5t-45.5 -40t-66.5 -14.5t-68 13t-48.5 35t-29 51t-9.5 62q0 48 19.5 82.5
t54.5 57t83.5 33.5t106.5 12l-4 15q-6 19 -12.5 35.5t-17 29t-25 20t-35.5 7.5q-70 0 -70 -94h-97q0 82 42 129.5t130 47.5q56 0 90 -15.5t55.5 -42.5t34 -63t24.5 -77z" />
    <glyph glyph-name="a.alt2" horiz-adv-x="477" 
d="M326 255q-31 0 -63.5 -3.5t-58.5 -14.5t-42.5 -31.5t-16.5 -53.5q0 -42 22 -62t53 -20q24 0 43.5 10.5t33.5 27.5t21.5 38t7.5 41v68zM161 377q0 -20 7.5 -35.5t20.5 -26.5q57 17 135 15v19q0 15 -3.5 31t-13 29.5t-26.5 22t-44 8.5q-35 0 -55 -16.5t-21 -46.5zM437 119
q0 -32 1.5 -63t5.5 -56h-118v126q-5 -27 -16.5 -52t-29.5 -44t-43 -30.5t-57 -11.5q-37 0 -64.5 12.5t-46 33.5t-27.5 48.5t-9 57.5q0 56 26 94.5t74 61.5q-26 16 -40.5 43t-14.5 57q0 54 40 91t125 37q59 0 97 -17.5t59.5 -45.5t29.5 -64t8 -74v-204z" />
    <glyph glyph-name="c.alt1" 
d="M249 436q-28 0 -48.5 -15.5t-33.5 -40.5t-19.5 -57.5t-6.5 -66.5q0 -37 7.5 -69.5t24 -56.5t42.5 -38t62 -14q46 0 92 16t89 42v-98q-37 -20 -85 -35t-112 -15q-111 0 -173.5 69.5t-62.5 197.5q0 61 15 110.5t44 85t71 54.5t95 19q91 0 144.5 -54.5t63.5 -154.5h-109
q-7 53 -31 87t-69 34z" />
    <glyph glyph-name="e.alt1" 
d="M249 436q-45 0 -70.5 -36t-33.5 -87h204q-1 24 -8 46t-20 39.5t-31 27.5t-41 10zM141 248q0 -33 7 -63.5t23.5 -54.5t43 -38t64.5 -14q46 0 88 14.5t91 43.5v-98q-36 -21 -83 -35.5t-114 -14.5q-113 0 -174.5 70t-61.5 197q0 61 15 110.5t44 85t71 54.5t95 19
q47 0 84.5 -16t64 -44.5t41.5 -68t18 -87.5q1 -16 0 -32t-3 -28h-314z" />
    <glyph glyph-name="f.alt1" horiz-adv-x="360" 
d="M247 662q-17 0 -27.5 -10.5t-16 -26.5t-7 -33t-1.5 -31v-45q33 17 60.5 44t27.5 63q0 15 -8 27t-28 12zM354 646q0 -24 -8.5 -44t-22.5 -37t-32.5 -30.5t-38.5 -23.5h76v-84h-132v-427h-113v427h-68v84h68v50q0 36 8.5 71t26 62.5t45.5 45t68 17.5q57 0 90 -29.5
t33 -81.5z" />
    <glyph glyph-name="f.alt2" horiz-adv-x="389" 
d="M239 -38q16 0 25.5 11t14.5 27.5t6.5 36t1.5 35.5q0 37 -7 77.5t-19.5 81t-29 79t-35.5 70.5v-327q0 -17 1.5 -33.5t6.5 -29t13.5 -20.5t21.5 -8zM328 427h-113q32 -36 61 -79.5t51 -92t34.5 -100.5t12.5 -105q0 -37 -8.5 -72t-26 -62t-45.5 -43.5t-67 -16.5
q-66 0 -105 49t-39 130v392h-68v84h68v35q0 43 10.5 81.5t32.5 67t56 45.5t80 17q20 0 36 -2.5t30 -6.5v-91q-10 3 -22.5 5.5t-29.5 2.5q-23 0 -38.5 -9t-25 -25t-13.5 -36.5t-4 -44.5v-39h133v-84z" />
    <glyph glyph-name="g.alt1" horiz-adv-x="530" 
d="M246 435q-29 0 -49.5 -12.5t-33.5 -33t-19 -47t-6 -54.5q0 -30 7 -56.5t20.5 -46.5t34 -31.5t46.5 -11.5t46.5 12t34.5 32t21 46.5t7 56.5q0 26 -5.5 52t-18.5 47t-34 34t-51 13zM411 458q12 82 77 82h31v-92h-26q-26 0 -40 -5t-19 -19q34 -56 34 -133q0 -89 -38 -145
t-101 -78q75 -8 107.5 -43.5t32.5 -88.5q0 -42 -16 -71.5t-44 -47.5t-67 -26.5t-86 -8.5q-65 0 -115 15t-89 35v98q46 -28 93 -43t93 -15q55 0 87.5 19.5t32.5 67.5q0 45 -31.5 70t-82.5 25q-48 0 -88 16t-69.5 46t-45.5 73t-16 98t15.5 99t45 74.5t70.5 46.5t92 16
q103 0 163 -65z" />
    <glyph glyph-name="s.alt1" horiz-adv-x="409" 
d="M228 304q36 -13 64.5 -27.5t49 -33.5t31 -44t10.5 -58q0 -78 -48.5 -115.5t-126.5 -37.5q-48 0 -92 13.5t-77 32.5v99q38 -25 83 -43t85 -18q35 0 52.5 17.5t17.5 46.5q0 17 -8.5 30t-23 24t-35 20t-44.5 19q-67 25 -104 59.5t-37 93.5q0 66 46.5 104t122.5 38
q56 0 97.5 -16t67.5 -31v-98q-43 25 -83.5 42t-78.5 17q-34 0 -50 -16.5t-16 -39.5q0 -28 27 -44t70 -34z" />
    <glyph glyph-name="t.alt1" horiz-adv-x="343" 
d="M195 629v-118h113v-84h-113v-427h-112v427h-70v84h70v118h112z" />
    <glyph glyph-name="T_h.dlig" horiz-adv-x="1013" 
d="M498 700v-98h-179v-602h-113v602h-178v98h470zM825 523q31 0 59 -11.5t49.5 -37t34 -65t12.5 -96.5v-313h-114v302q0 26 -4.5 49t-14.5 40t-26.5 27t-41.5 10q-24 0 -42.5 -11.5t-31.5 -31t-19.5 -44t-6.5 -51.5v-290h-113v744h113v-387q6 39 19.5 70t33 52t43.5 32.5
t50 11.5z" />
    <glyph glyph-name="c_t.dlig" horiz-adv-x="825" 
d="M458 197q-10 -94 -63 -151.5t-146 -57.5q-50 0 -91 18.5t-70.5 53t-46 84t-16.5 111.5q0 61 15 110.5t44 85t71 54.5t95 19q91 0 144.5 -54.5t63.5 -154.5h-109q-7 53 -31 87t-69 34q-28 0 -48.5 -15.5t-33.5 -40.5t-19.5 -57.5t-6.5 -66.5q0 -36 7 -69t20.5 -57.5
t34 -39t47.5 -14.5q45 0 69 33.5t30 87.5h109zM740 81q13 0 25.5 2t21.5 5v-88q-14 -5 -35.5 -8.5t-47.5 -3.5q-42 0 -69 13.5t-42.5 37.5t-21.5 56t-6 69v263h-70v84h70v119h112v-119h113v-84h-113v-256q0 -47 15.5 -68.5t47.5 -21.5z" />
    <glyph glyph-name="f_t.dlig" horiz-adv-x="682" 
d="M195 511h133v-84h-132v-427h-113v427h-68v84h68v35q0 43 10.5 81t32.5 66.5t56 45.5t80 17q37 0 66 -8v-92q-10 4 -22.5 6.5t-29.5 2.5q-23 0 -38.5 -9t-25 -25t-13.5 -37t-4 -44v-39zM597 81q13 0 25.5 2t21.5 5v-88q-14 -5 -35.5 -8.5t-47.5 -3.5q-42 0 -69 13.5
t-42.5 37.5t-21.5 56t-6 69v263h-70v84h70v119h112v-119h113v-84h-113v-256q0 -47 15.5 -68.5t47.5 -21.5z" />
    <glyph glyph-name="f_b.dlig" horiz-adv-x="879" 
d="M195 511h133v-84h-132v-427h-113v427h-68v84h68v35q0 43 10.5 81t32.5 66.5t56 45.5t80 17q37 0 66 -8v-92q-10 4 -22.5 6.5t-29.5 2.5q-23 0 -38.5 -9t-25 -25t-13.5 -37t-4 -44v-39zM627 431q-23 0 -43 -13.5t-35 -35t-23.5 -49.5t-8.5 -57v-37q0 -30 8.5 -58.5
t23.5 -51t34.5 -36.5t40.5 -14q55 0 85 49.5t30 129.5q0 35 -7 66.5t-21 55t-35 37.5t-49 14zM673 523q42 0 75.5 -19t56.5 -53.5t35.5 -82t12.5 -105.5q0 -69 -15 -120.5t-40 -86t-58 -52t-70 -17.5q-30 0 -54.5 13t-44 36t-33 55t-20.5 70v-161h-118q2 26 3 63.5t1 74.5
v605h113l1 -393q16 86 57 129.5t98 43.5z" />
    <glyph glyph-name="f_f_b.dlig" horiz-adv-x="1187" 
d="M195 511h133v-84h-132v-427h-113v427h-68v84h68v35q0 43 10.5 81t32.5 66.5t56 45.5t80 17q37 0 66 -8v-92q-10 4 -22.5 6.5t-29.5 2.5q-23 0 -38.5 -9t-25 -25t-13.5 -37t-4 -44v-39zM503 511h133v-84h-132v-427h-113v427h-68v84h68v35q0 43 10.5 81t32.5 66.5t56 45.5
t80 17q37 0 66 -8v-92q-10 4 -22.5 6.5t-29.5 2.5q-23 0 -38.5 -9t-25 -25t-13.5 -37t-4 -44v-39zM935 431q-23 0 -43 -13.5t-35 -35t-23.5 -49.5t-8.5 -57v-37q0 -30 8.5 -58.5t23.5 -51t34.5 -36.5t40.5 -14q55 0 85 49.5t30 129.5q0 35 -7 66.5t-21 55t-35 37.5t-49 14z
M981 523q42 0 75.5 -19t56.5 -53.5t35.5 -82t12.5 -105.5q0 -69 -15 -120.5t-40 -86t-58 -52t-70 -17.5q-30 0 -54.5 13t-44 36t-33 55t-20.5 70v-161h-118q2 26 3 63.5t1 74.5v605h113l1 -393q16 86 57 129.5t98 43.5z" />
    <glyph glyph-name="f_f_h.dlig" horiz-adv-x="1155" 
d="M195 511h133v-84h-132v-427h-113v427h-68v84h68v35q0 43 10.5 81t32.5 66.5t56 45.5t80 17q37 0 66 -8v-92q-10 4 -22.5 6.5t-29.5 2.5q-23 0 -38.5 -9t-25 -25t-13.5 -37t-4 -44v-39zM503 511h133v-84h-132v-427h-113v427h-68v84h68v35q0 43 10.5 81t32.5 66.5t56 45.5
t80 17q37 0 66 -8v-92q-10 4 -22.5 6.5t-29.5 2.5q-23 0 -38.5 -9t-25 -25t-13.5 -37t-4 -44v-39zM967 523q31 0 59 -11.5t49.5 -37t34 -65t12.5 -96.5v-313h-114v302q0 26 -4.5 49t-14.5 40t-26.5 27t-41.5 10q-24 0 -42.5 -11.5t-31.5 -31t-19.5 -44t-6.5 -51.5v-290h-113
v744h113v-387q6 39 19.5 70t33 52t43.5 32.5t50 11.5z" />
    <glyph glyph-name="f_f_k.dlig" horiz-adv-x="1142" 
d="M195 511h133v-84h-132v-427h-113v427h-68v84h68v35q0 43 10.5 81t32.5 66.5t56 45.5t80 17q37 0 66 -8v-92q-10 4 -22.5 6.5t-29.5 2.5q-23 0 -38.5 -9t-25 -25t-13.5 -37t-4 -44v-39zM503 511h133v-84h-132v-427h-113v427h-68v84h68v35q0 43 10.5 81t32.5 66.5t56 45.5
t80 17q37 0 66 -8v-92q-10 4 -22.5 6.5t-29.5 2.5q-23 0 -38.5 -9t-25 -25t-13.5 -37t-4 -44v-39zM821 744v-452l169 219h126l-200 -256l211 -255h-135l-171 207v-207h-113v744h113z" />
    <glyph glyph-name="f_h.dlig" horiz-adv-x="847" 
d="M195 511h133v-84h-132v-427h-113v427h-68v84h68v35q0 43 10.5 81t32.5 66.5t56 45.5t80 17q37 0 66 -8v-92q-10 4 -22.5 6.5t-29.5 2.5q-23 0 -38.5 -9t-25 -25t-13.5 -37t-4 -44v-39zM659 523q31 0 59 -11.5t49.5 -37t34 -65t12.5 -96.5v-313h-114v302q0 26 -4.5 49
t-14.5 40t-26.5 27t-41.5 10q-24 0 -42.5 -11.5t-31.5 -31t-19.5 -44t-6.5 -51.5v-290h-113v744h113v-387q6 39 19.5 70t33 52t43.5 32.5t50 11.5z" />
    <glyph glyph-name="f_k.dlig" horiz-adv-x="834" 
d="M195 511h133v-84h-132v-427h-113v427h-68v84h68v35q0 43 10.5 81t32.5 66.5t56 45.5t80 17q37 0 66 -8v-92q-10 4 -22.5 6.5t-29.5 2.5q-23 0 -38.5 -9t-25 -25t-13.5 -37t-4 -44v-39zM513 744v-452l169 219h126l-200 -256l211 -255h-135l-171 207v-207h-113v744h113z
" />
    <glyph glyph-name="longs_i.dlig" horiz-adv-x="536" 
d="M226 665q-23 0 -38.5 -9t-25 -25t-13.5 -37t-4 -44l1 -550h-113v546q0 44 10.5 82t32 66.5t55.5 45t81 16.5q37 0 66 -8v-92q-10 4 -22.5 6.5t-29.5 2.5zM367 511h113v-511h-113v511zM362 696h123v-103h-123v103z" />
    <glyph glyph-name="longs_l.dlig" horiz-adv-x="526" 
d="M226 665q-23 0 -38.5 -9t-25 -25t-13.5 -37t-4 -44l1 -550h-113v546q0 44 10.5 82t32 66.5t55.5 45t81 16.5q37 0 66 -8v-92q-10 4 -22.5 6.5t-29.5 2.5zM362 744h113v-744h-113v744z" />
    <glyph glyph-name="longs_longs.dlig" horiz-adv-x="624" 
d="M226 665q-23 0 -38.5 -9t-25 -25t-13.5 -37t-4 -44l1 -550h-113v546q0 44 10.5 82t32 66.5t55.5 45t81 16.5q37 0 66 -8v-92q-10 4 -22.5 6.5t-29.5 2.5zM538 665q-23 0 -38.5 -9t-25 -25t-13.5 -37t-4 -44l1 -550h-113v546q0 44 10.5 82t32 66.5t55.5 45t81 16.5
q37 0 66 -8v-92q-10 4 -22.5 6.5t-29.5 2.5z" />
    <glyph glyph-name="longs_longs_i.dlig" horiz-adv-x="847" 
d="M226 665q-23 0 -38.5 -9t-25 -25t-13.5 -37t-4 -44l1 -550h-113v546q0 44 10.5 82t32 66.5t55.5 45t81 16.5q37 0 66 -8v-92q-10 4 -22.5 6.5t-29.5 2.5zM538 665q-23 0 -38.5 -9t-25 -25t-13.5 -37t-4 -44l1 -550h-113v546q0 44 10.5 82t32 66.5t55.5 45t81 16.5
q37 0 66 -8v-92q-10 4 -22.5 6.5t-29.5 2.5zM679 511h113v-511h-113v511zM674 696h123v-103h-123v103z" />
    <glyph glyph-name="longs_longs_l.dlig" horiz-adv-x="838" 
d="M226 665q-23 0 -38.5 -9t-25 -25t-13.5 -37t-4 -44l1 -550h-113v546q0 44 10.5 82t32 66.5t55.5 45t81 16.5q37 0 66 -8v-92q-10 4 -22.5 6.5t-29.5 2.5zM538 665q-23 0 -38.5 -9t-25 -25t-13.5 -37t-4 -44l1 -550h-113v546q0 44 10.5 82t32 66.5t55.5 45t81 16.5
q37 0 66 -8v-92q-10 4 -22.5 6.5t-29.5 2.5zM674 744h113v-744h-113v744z" />
    <glyph glyph-name="f_f_j.dlig" horiz-adv-x="889" 
d="M195 511h133v-84h-132v-427h-113v427h-68v84h68v35q0 43 10.5 81t32.5 66.5t56 45.5t80 17q37 0 66 -8v-92q-10 4 -22.5 6.5t-29.5 2.5q-23 0 -38.5 -9t-25 -25t-13.5 -37t-4 -44v-39zM503 511h133v-84h-132v-427h-113v427h-68v84h68v35q0 43 10.5 81t32.5 66.5t56 45.5
t80 17q37 0 66 -8v-92q-10 4 -22.5 6.5t-29.5 2.5q-23 0 -38.5 -9t-25 -25t-13.5 -37t-4 -44v-39zM719 593v103h122v-103h-122zM622 -126q25 0 44 4.5t31.5 19t19 40.5t6.5 68v505h114v-511q0 -61 -14 -103t-41.5 -68t-67.5 -37.5t-92 -11.5v94z" />
    <glyph glyph-name="f_j.dlig" horiz-adv-x="581" 
d="M195 511h133v-84h-132v-427h-113v427h-68v84h68v35q0 43 10.5 81t32.5 66.5t56 45.5t80 17q37 0 66 -8v-92q-10 4 -22.5 6.5t-29.5 2.5q-23 0 -38.5 -9t-25 -25t-13.5 -37t-4 -44v-39zM410 593v103h122v-103h-122zM313 -126q25 0 44 4.5t31.5 19t19 40.5t6.5 68v505h114
v-511q0 -61 -14 -103t-41.5 -68t-67.5 -37.5t-92 -11.5v94z" />
    </font>
</defs>
</svg>
