<?xml version="1.0" encoding="UTF-8"?>
<svg xmlns="http://www.w3.org/2000/svg" version="1.1" viewBox="0 0 97.8 97.8">
  <defs>
    <style>
      .cls-1 {
        fill: #171717;
      }
    </style>
  </defs>
  <!-- Generator: Adobe Illustrator 28.7.2, SVG Export Plug-In . SVG Version: 1.2.0 Build 154)  -->
  <g>
    <g id="Layer_1">
      <path class="cls-1" d="M49,39.3c-5.4,0-9.5,4-9.6,9.4,0,5,3.6,9.6,9.5,9.7,5.5,0,9.5-4.2,9.6-9.5,0-5.2-4.2-9.6-9.5-9.6ZM49,39.3c-5.4,0-9.5,4-9.6,9.4,0,5,3.6,9.6,9.5,9.7,5.5,0,9.5-4.2,9.6-9.5,0-5.2-4.2-9.6-9.5-9.6ZM49,0C21.9,0,0,21.9,0,48.9s21.9,48.9,48.9,48.9,48.9-21.9,48.9-48.9S76,0,49,0ZM77.3,60.2c0,4.4-1.2,8.5-4.3,11.8-2.5,2.7-5.6,4.5-9.4,4.9-9,.8-18,.6-27,.3-1.5,0-2.9-.2-4.3-.6-6.5-1.5-11.6-7.9-11.7-14.6,0-7-.2-14-.2-21,0-2.6.2-5.3.6-7.9.8-4.3,3.2-7.6,6.9-10,2.8-1.7,5.8-2.5,9-2.5h11.9c4.3,0,8.7-.1,13,0,6.9.4,13.2,4.9,14.7,12.2.5,2.4.6,4.9.7,7.4,0,6.7,0,13.3,0,20ZM64.9,26.3c-2.9-.6-5.8-.9-8.8-.9-6.7,0-13.4.1-20.2.3-2.2,0-4.3.6-6.1,2-2.9,2.2-4,5.3-4.1,8.7-.2,4.1-.3,8.2-.4,13.5.2,3.5.3,8.2.7,13,.3,4.3,3.7,7.9,8,8.6,2.1.4,4.2.6,6.4.6,5.8,0,11.6,0,17.4,0,2.1,0,4.2-.2,6.3-.6,3.8-.8,6.5-3.2,7.4-7,.6-2.7.8-5.4.8-8.2.2-7.4.4-14.7-.5-22.1-.4-3.7-3.4-7.3-7-8ZM48.7,63.4c-8.7-.2-14.5-7.2-14.3-14.8.2-8.8,7.2-14.5,14.7-14.3,8.9.2,14.4,7.2,14.4,14.8-.3,8.8-7.3,14.6-14.8,14.3ZM64.2,37c-1.8,0-3.3-1.6-3.3-3.4,0-1.9,1.4-3.3,3.4-3.3,1.8,0,3.3,1.5,3.3,3.3,0,1.8-1.7,3.4-3.4,3.4ZM49,39.3c-5.4,0-9.5,4-9.6,9.4,0,5,3.6,9.6,9.5,9.7,5.5,0,9.5-4.2,9.6-9.5,0-5.2-4.2-9.6-9.5-9.6Z"/>
    </g>
  </g>
</svg>