<?xml version="1.0" encoding="UTF-8"?>
<svg xmlns="http://www.w3.org/2000/svg" version="1.1" viewBox="0 0 97.8 97.8">
  <defs>
    <style>
      .cls-1 {
        fill: #171717;
      }
    </style>
  </defs>
  <!-- Generator: Adobe Illustrator 28.7.2, SVG Export Plug-In . SVG Version: 1.2.0 Build 154)  -->
  <g>
    <g id="Layer_1">
      <path class="cls-1" d="M70.4,44.5c0,.5,0,.7,0,1,0,5.4,0,10.8,0,16.2,0,1.7-.6,2.2-2.2,2.2H29.5c-1.6,0-2.2-.6-2.2-2.2,0-5.4,0-10.8,0-16.2,0-.3,0-.5.1-1,.4.3.7.5,1,.7,4.4,3.6,8.7,7.2,13.1,10.8,2.1,1.8,4.6,2.9,7.3,2.9,2.6,0,5-.8,7-2.4,4.6-3.7,9.1-7.5,13.7-11.2.3-.2.6-.4,1-.7h0Z"/>
      <path class="cls-1" d="M70.5,36.5c0,1-.3,1.7-1.1,2.4-5.6,4.6-11.2,9.2-16.7,13.8-2.2,1.8-5.5,1.7-7.7,0-5.7-4.7-11.4-9.4-17.1-14.1-.6-.5-.9-2.2-.5-3.3.3-.8.9-1.1,2-1.1,6.5,0,13,0,19.5,0h19.1c1.9,0,2.4.6,2.5,2.5Z"/>
      <path class="cls-1" d="M48.9,0C21.9,0,0,21.9,0,48.9s21.9,48.9,48.9,48.9,48.9-21.9,48.9-48.9S75.9,0,48.9,0ZM75.4,61.8c0,4.1-2.9,7-7.1,7H29.6c-4.3,0-7.1-2.8-7.1-7.1,0-8.5,0-17,0-25.5,0-3.5,1.6-5.7,4.8-6.8.8-.3,1.7-.3,2.5-.3,12.7,0,25.5,0,38.2,0,3.4,0,5.9,1.6,6.9,4.3.3.9.5,2,.5,3,0,8.5,0,17,0,25.4h0Z"/>
    </g>
  </g>
</svg>