<?xml version="1.0" encoding="UTF-8"?><svg id="Layer_1" xmlns="http://www.w3.org/2000/svg" viewBox="0 0 97.84 97.84"><defs><style>.cls-1{fill:#c1c1c1;}</style></defs><path class="cls-1" d="M71.29,50.71h-11.78c.13-3.43,2.77-5.81,6.24-5.65,3.49.17,5.47,2.29,5.54,5.65Z"/><path class="cls-1" d="M36.77,36.68c-3.15-.4-6.37-.24-9.63-.33v8.75c2.76,0,5.46,0,8.16-.01.49,0,.99-.04,1.47-.16,1.06-.25,2.08-.61,2.72-1.58,1.81-2.76.53-6.26-2.72-6.67ZM41.02,52.86c-.9-1.76-2.52-2.3-4.35-2.33-2.65-.03-5.3-.01-7.95-.01h-1.57v10.11c3.38,0,6.69.08,9.99-.04,1.52-.06,3.03-.57,3.87-2.04,1.07-1.88.97-3.81.01-5.69ZM41.02,52.86c-.9-1.76-2.52-2.3-4.35-2.33-2.65-.03-5.3-.01-7.95-.01h-1.57v10.11c3.38,0,6.69.08,9.99-.04,1.52-.06,3.03-.57,3.87-2.04,1.07-1.88.97-3.81.01-5.69ZM36.77,44.93c1.06-.25,2.08-.61,2.72-1.58,1.81-2.76.53-6.26-2.72-6.67-3.15-.4-6.37-.24-9.63-.33v8.75c2.76,0,5.46,0,8.16-.01.49,0,.99-.04,1.47-.16ZM48.94,0C21.92,0,.02,21.9.02,48.92s21.9,48.92,48.92,48.92,48.92-21.9,48.92-48.92S75.96,0,48.94,0ZM58.1,32.23h14.71v3.45h-14.71v-3.45ZM49.7,57.21c-.44,4.82-3.17,7.45-7.71,8.86-1.68.52-3.52.75-5.29.78-5.63.1-11.27.04-16.9.04-.19,0-.38-.02-.64-.04V30.23c.22-.02.41-.04.59-.04,6.08,0,12.15-.03,18.23.03,2.35.03,4.58.68,6.63,1.84,1.37.78,2.37,1.93,2.79,3.46.81,2.93,1.11,5.86-.79,8.5-.67.93-1.7,1.6-2.59,2.37-.24.21-.56.32-.84.48,1.1.61,2.21,1.06,3.14,1.75,2.88,2.14,3.69,5.19,3.38,8.59ZM67.2,62.03c1.87-.26,3.54-1.09,4.41-2.97.08-.18.36-.37.55-.38,1.96-.02,3.91-.01,5.96-.01-1.2,3.57-3.12,6.48-6.67,7.84-4.76,1.82-9.44,1.53-13.77-1.32-2.83-1.86-4.45-4.6-5.08-7.93-.6-3.13-.44-6.2.68-9.2,2.25-6.04,7.77-8.85,13.59-8.38,2.29.19,4.47.8,6.34,2.19,3.02,2.23,4.64,5.33,5.19,8.99.21,1.41.21,2.85.32,4.44h-19.22c-.17,4.91,3.18,7.36,7.7,6.73ZM36.67,50.53c-2.65-.03-5.3-.01-7.95-.01h-1.57v10.11c3.38,0,6.69.08,9.99-.04,1.52-.06,3.03-.57,3.87-2.04,1.07-1.88.97-3.81.01-5.69-.9-1.76-2.52-2.3-4.35-2.33ZM36.77,44.93c1.06-.25,2.08-.61,2.72-1.58,1.81-2.76.53-6.26-2.72-6.67-3.15-.4-6.37-.24-9.63-.33v8.75c2.76,0,5.46,0,8.16-.01.49,0,.99-.04,1.47-.16Z"/></svg>