<?xml version="1.0" encoding="UTF-8"?>
<svg xmlns="http://www.w3.org/2000/svg" version="1.1" viewBox="0 0 97.8 97.8">
  <defs>
    <style>
      .cls-1 {
        fill: #171717;
      }
    </style>
  </defs>
  <!-- Generator: Adobe Illustrator 28.7.2, SVG Export Plug-In . SVG Version: 1.2.0 Build 154)  -->
  <g>
    <g id="Layer_1">
      <path class="cls-1" d="M71.3,50.7h-11.8c.1-3.4,2.8-5.8,6.2-5.7,3.5.2,5.5,2.3,5.5,5.7Z"/>
      <path class="cls-1" d="M36.8,36.7c-3.2-.4-6.4-.2-9.6-.3v8.8c2.8,0,5.5,0,8.2,0,.5,0,1,0,1.5-.2,1.1-.2,2.1-.6,2.7-1.6,1.8-2.8.5-6.3-2.7-6.7ZM41,52.9c-.9-1.8-2.5-2.3-4.3-2.3-2.7,0-5.3,0-8,0h-1.6v10.1c3.4,0,6.7,0,10,0,1.5,0,3-.6,3.9-2,1.1-1.9,1-3.8,0-5.7ZM41,52.9c-.9-1.8-2.5-2.3-4.3-2.3-2.7,0-5.3,0-8,0h-1.6v10.1c3.4,0,6.7,0,10,0,1.5,0,3-.6,3.9-2,1.1-1.9,1-3.8,0-5.7ZM36.8,44.9c1.1-.2,2.1-.6,2.7-1.6,1.8-2.8.5-6.3-2.7-6.7-3.2-.4-6.4-.2-9.6-.3v8.8c2.8,0,5.5,0,8.2,0,.5,0,1,0,1.5-.2ZM48.9,0C21.9,0,0,21.9,0,48.9s21.9,48.9,48.9,48.9,48.9-21.9,48.9-48.9S76,0,48.9,0ZM58.1,32.2h14.7v3.5h-14.7v-3.5ZM49.7,57.2c-.4,4.8-3.2,7.4-7.7,8.9-1.7.5-3.5.8-5.3.8-5.6,0-11.3,0-16.9,0s-.4,0-.6,0V30.2c.2,0,.4,0,.6,0,6.1,0,12.1,0,18.2,0,2.3,0,4.6.7,6.6,1.8,1.4.8,2.4,1.9,2.8,3.5.8,2.9,1.1,5.9-.8,8.5-.7.9-1.7,1.6-2.6,2.4-.2.2-.6.3-.8.5,1.1.6,2.2,1.1,3.1,1.8,2.9,2.1,3.7,5.2,3.4,8.6ZM67.2,62c1.9-.3,3.5-1.1,4.4-3,0-.2.4-.4.6-.4,2,0,3.9,0,6,0-1.2,3.6-3.1,6.5-6.7,7.8-4.8,1.8-9.4,1.5-13.8-1.3-2.8-1.9-4.5-4.6-5.1-7.9-.6-3.1-.4-6.2.7-9.2,2.2-6,7.8-8.9,13.6-8.4,2.3.2,4.5.8,6.3,2.2,3,2.2,4.6,5.3,5.2,9,.2,1.4.2,2.8.3,4.4h-19.2c-.2,4.9,3.2,7.4,7.7,6.7ZM36.7,50.5c-2.7,0-5.3,0-8,0h-1.6v10.1c3.4,0,6.7,0,10,0,1.5,0,3-.6,3.9-2,1.1-1.9,1-3.8,0-5.7-.9-1.8-2.5-2.3-4.3-2.3ZM36.8,44.9c1.1-.2,2.1-.6,2.7-1.6,1.8-2.8.5-6.3-2.7-6.7-3.2-.4-6.4-.2-9.6-.3v8.8c2.8,0,5.5,0,8.2,0,.5,0,1,0,1.5-.2Z"/>
    </g>
  </g>
</svg>