<?xml version="1.0" encoding="UTF-8"?><svg id="Layer_1" xmlns="http://www.w3.org/2000/svg" viewBox="0 0 97.84 97.84"><defs><style>.cls-1{fill:#5197ff;}</style></defs><path class="cls-1" d="M48.99,39.33c-5.36.02-9.54,4.04-9.59,9.43-.05,4.99,3.62,9.6,9.48,9.65,5.52.06,9.51-4.19,9.6-9.53.03-5.22-4.18-9.57-9.49-9.55ZM48.99,39.33c-5.36.02-9.54,4.04-9.59,9.43-.05,4.99,3.62,9.6,9.48,9.65,5.52.06,9.51-4.19,9.6-9.53.03-5.22-4.18-9.57-9.49-9.55ZM48.96,0C21.94,0,.04,21.9.04,48.92s21.9,48.92,48.92,48.92,48.92-21.9,48.92-48.92S75.97,0,48.96,0ZM77.35,60.15c-.02,4.43-1.21,8.5-4.28,11.78-2.52,2.68-5.61,4.53-9.36,4.88-8.99.83-17.99.59-26.99.27-1.45-.05-2.92-.24-4.33-.57-6.53-1.54-11.58-7.91-11.66-14.62-.09-7-.24-14-.23-20.99.01-2.64.18-5.31.63-7.91.76-4.33,3.19-7.65,6.95-9.95,2.76-1.69,5.76-2.53,9-2.53,3.97,0,7.94,0,11.92,0v.02c4.35,0,8.71-.17,13.04.04,6.95.35,13.17,4.95,14.69,12.22.5,2.4.62,4.92.65,7.38.07,6.66.01,13.32-.03,19.98ZM64.89,26.34c-2.87-.57-5.85-.86-8.79-.87-6.72-.04-13.44.12-20.16.32-2.17.07-4.28.62-6.09,2.02-2.86,2.23-3.97,5.26-4.12,8.72-.18,4.07-.26,8.15-.41,13.5.17,3.48.3,8.24.68,12.97.34,4.35,3.66,7.88,7.97,8.63,2.1.37,4.25.59,6.38.62,5.81.09,11.62.09,17.43,0,2.09-.03,4.22-.21,6.27-.64,3.83-.81,6.53-3.16,7.44-6.98.62-2.65.77-5.44.85-8.18.2-7.36.4-14.74-.46-22.08-.43-3.68-3.37-7.32-6.99-8.03ZM48.7,63.4c-8.67-.25-14.52-7.16-14.31-14.82.25-8.77,7.2-14.45,14.73-14.27,8.86.21,14.41,7.16,14.38,14.75-.27,8.77-7.34,14.56-14.8,14.34ZM64.15,36.97c-1.78-.05-3.27-1.6-3.26-3.38.01-1.92,1.43-3.29,3.39-3.27,1.84.02,3.29,1.47,3.29,3.29-.01,1.78-1.67,3.41-3.42,3.36ZM48.99,39.33c-5.36.02-9.54,4.04-9.59,9.43-.05,4.99,3.62,9.6,9.48,9.65,5.52.06,9.51-4.19,9.6-9.53.03-5.22-4.18-9.57-9.49-9.55Z"/></svg>