<?xml version="1.0" encoding="UTF-8"?><svg id="Layer_2" xmlns="http://www.w3.org/2000/svg" viewBox="0 0 97.84 97.84"><defs><style>.cls-1{fill:#c1c1c1;}.cls-2{fill:#c1c1c1;}</style></defs><path class="cls-2" d="M76.86,97.84H20.97C9.41,97.84,0,88.43,0,76.86V20.98C0,9.41,9.41,0,20.97,0h55.89C88.43,0,97.84,9.41,97.84,20.98v55.89c0,11.57-9.41,20.98-20.98,20.98ZM20.97,1.93C10.47,1.93,1.93,10.47,1.93,20.98v55.89c0,10.5,8.54,19.04,19.04,19.04h55.89c10.5,0,19.04-8.54,19.04-19.04V20.98c0-10.5-8.54-19.04-19.04-19.04H20.97Z"/><path class="cls-1" d="M40.91,59.19c-4.66,0-9.3,0-13.95,0-.29,0-.39.11-.47.36-.9,2.81-1.8,5.62-2.71,8.42-.22.69-.33.77-1.06.77-2.19,0-4.38,0-6.57,0-.81,0-.93-.16-.66-.93,2.19-6.29,4.39-12.58,6.59-18.87,1.86-5.32,3.7-10.64,5.57-15.95.43-1.22.68-2.45.67-3.73,0-.41.11-.52.52-.52,3.18,0,6.37,0,9.55,0,.36,0,.55.14.67.48,4.58,12.84,9.18,25.67,13.77,38.5.02.06.05.12.07.18.18.54.07.7-.5.7-2.53,0-5.07,0-7.6,0-.59,0-.7-.07-.88-.63-.95-2.77-1.89-5.54-2.83-8.3-.05-.16-.11-.31-.17-.47ZM38.53,51.6c-1.65-5.32-3.29-10.61-4.93-15.9-1.33,5.37-3.15,10.59-4.71,15.9h9.63Z"/><path class="cls-1" d="M81.56,45.99c-1.42-3.86-4.02-6.47-8.06-7.56-1.93-.52-3.87-.55-5.84-.42-1.26.09-2.5.28-3.68.76-3.5,1.42-5.98,3.92-7.54,7.31-1.88,4.08-2.16,8.34-1.14,12.68,1.37,5.86,5.83,9.85,11.8,10.6,2.21.28,4.42.31,6.63.06,1.89-.21,3.75-.58,5.52-1.31.44-.18.64-.46.64-.92,0-1.9,0-3.8,0-5.7,0-.14-.05-.28-.08-.44-.24.09-.42.16-.62.23-1.67.61-3.43.85-5.19,1.04-1.78.19-3.54.13-5.3-.36-2.96-.8-4.71-2.67-5.27-5.68-.03-.16-.04-.34-.06-.53h17.77c.16,0,.32-.03.48-.04.46-.04.61-.19.65-.68.06-.8.13-1.6.17-2.41.15-2.27-.08-4.5-.87-6.65ZM74.2,49.99c-.3.11-.62.19-.93.19-3.25,0-6.5,0-9.75.02-.05,0-.1-.02-.16-.03.31-3.15,2.25-5.25,4.87-5.61,3.36-.44,5.49,1.45,6.09,3.8.1.41.13.83.14,1.25,0,.14-.14.34-.26.39Z"/></svg>