<?xml version="1.0" encoding="UTF-8"?><svg id="Layer_2" xmlns="http://www.w3.org/2000/svg" viewBox="0 0 97.84 97.84"><defs><style>.cls-1{fill:#c1c1c1;}.cls-2{fill:#c1c1c1;}</style></defs><path class="cls-2" d="M76.86,97.84H20.97c-11.57,0-20.97-9.41-20.97-20.98V20.97C0,9.41,9.41,0,20.97,0h55.89C88.43,0,97.84,9.41,97.84,20.97v55.89c0,11.57-9.41,20.98-20.97,20.98ZM20.97,1.93C10.47,1.93,1.93,10.47,1.93,20.97v55.89c0,10.5,8.54,19.04,19.04,19.04h55.89c10.5,0,19.04-8.54,19.04-19.04V20.97c0-10.5-8.54-19.04-19.04-19.04H20.97Z"/><path class="cls-1" d="M21.9,47.16c0-6.83,0-13.66,0-20.49,0-.16.01-.31,0-.47-.03-.44.16-.61.6-.61,1.32-.01,2.65-.06,3.97-.08,3.2-.05,6.39-.13,9.59-.11,3.23.02,6.37.56,9.27,2.05,4.36,2.23,6.79,5.84,7.36,10.68.36,3.02.07,5.99-1.28,8.76-1.76,3.63-4.71,5.89-8.51,7.1-2.34.74-4.74,1.03-7.19,1.06-1.46.02-2.93,0-4.39-.05-.47-.01-.61.11-.6.59.02,4.1.01,8.2.01,12.3,0,.75-.07.83-.83.83-2.4,0-4.8,0-7.2,0-.75,0-.8-.05-.8-.8,0-6.92,0-13.85,0-20.77ZM30.82,47.38c1.31,0,2.59,0,3.86,0,1.7,0,3.36-.27,4.95-.86,2.16-.8,3.73-2.2,4.14-4.59.14-.81.2-1.65.12-2.47-.21-2.43-1.4-4.22-3.69-5.2-1.38-.59-2.83-.85-4.33-.86-1.42,0-2.84,0-4.26.01-.26,0-.52.04-.8.06v13.89Z"/><path class="cls-1" d="M57.26,63.48c0-1.14,0-2.28,0-3.42,0-.63.15-.71.68-.42,3.27,1.82,6.78,2.63,10.51,2.49.86-.03,1.74-.22,2.54-.53,1.34-.52,1.66-2.07.59-3.03-.69-.62-1.56-1.08-2.41-1.48-1.59-.74-3.26-1.32-4.85-2.07-1.74-.82-3.36-1.83-4.69-3.27-3.58-3.85-2.8-10.1,1.04-13.29,1.94-1.62,4.21-2.48,6.68-2.76,3.12-.36,6.23-.18,9.3.44.65.13,1.29.36,1.92.58.65.23.76.4.77,1.11,0,.81,0,1.62,0,2.43,0,1.26,0,2.53,0,3.79,0,.7-.37.97-.99.65-1.85-.96-3.85-1.44-5.89-1.7-1.7-.22-3.42-.38-5.1.15-.45.14-.91.45-1.2.81-.55.69-.48,1.58.14,2.22.39.41.85.79,1.36,1.05,1.1.56,2.21,1.08,3.36,1.51,1.95.73,3.82,1.6,5.59,2.69,2.35,1.45,3.91,3.46,4.31,6.24.68,4.67-1.75,8.81-6.16,10.62-2.29.94-4.69,1.26-7.13,1.27-2.82.02-5.6-.29-8.29-1.18-.47-.16-.92-.37-1.39-.54-.51-.18-.72-.52-.71-1.07.03-1.11,0-2.21,0-3.32Z"/></svg>