<?xml version="1.0" encoding="UTF-8"?><svg id="Layer_2" xmlns="http://www.w3.org/2000/svg" viewBox="0 0 97.84 97.84"><defs><style>.cls-1{fill:#c1c1c1;}.cls-2{fill:#c1c1c1;}.cls-3{fill:#fff;}</style></defs><path class="cls-2" d="M76.86,97.84H20.98C9.41,97.84,0,88.43,0,76.86V20.98C0,9.41,9.41,0,20.98,0h55.89C88.43,0,97.84,9.41,97.84,20.98v55.89c0,11.57-9.41,20.98-20.97,20.98ZM20.98,1.93C10.47,1.93,1.93,10.47,1.93,20.98v55.89c0,10.5,8.54,19.04,19.04,19.04h55.89c10.5,0,19.04-8.54,19.04-19.04V20.98c0-10.5-8.54-19.04-19.04-19.04H20.98Z"/><path class="cls-3" d="M62.4,31c.02.34.03.67.03,1v-1.72c-.03.21-.04.45-.03.71ZM70.57,48.31v9.06c0-3.02,0-6.04,0-9.06h0ZM70.57,57.37v8.62c.03-.21.04-.44.04-.7-.03-2.64-.04-5.28-.04-7.92Z"/><path class="cls-3" d="M62.43,37.73v-1.23c0,.41-.02.8,0,1.23Z"/><path class="cls-1" d="M62.43,28.73v3.27c.04,1.5,0,3,0,4.5v3.6c-6.08-.14-11.46,1.23-15.11,6.09-3.51,4.69-3.9,9.91-1.85,15.22,1.95,5.06,6.11,7.32,11.28,8,4.11.53,8.07-.21,11.99-1.43,1.12-.35,1.65-.93,1.82-1.87V28.73h-8.12ZM62.43,60.63c0,1.49-.74,1.98-2.23,2-4.79.05-7.73-2.91-7.7-7.86.03-4.59,3.45-7.98,7.92-7.89,1.35.03,2.03.6,2,2.02-.05,1.9,0,3.81,0,5.7s-.05,3.93.02,5.89v.14Z"/><path class="cls-3" d="M62.43,36.51v-4.5c.04,1.5,0,3,0,4.5Z"/><path class="cls-3" d="M70.57,65.98v.14h-.02s.02-.09.02-.14Z"/><rect class="cls-1" x="30.99" y="31.85" width="8.14" height="37.39"/></svg>