<?xml version="1.0" encoding="UTF-8"?><svg id="Layer_2" xmlns="http://www.w3.org/2000/svg" viewBox="0 0 97.84 97.84"><defs><style>.cls-1{fill:#c1c1c1;}.cls-2{fill:#c1c1c1;}</style></defs><path class="cls-2" d="M76.86,97.84H20.98C9.41,97.84,0,88.43,0,76.86V20.98C0,9.41,9.41,0,20.98,0h55.89C88.43,0,97.84,9.41,97.84,20.98v55.89c0,11.57-9.41,20.98-20.98,20.98ZM20.98,1.93C10.47,1.93,1.93,10.47,1.93,20.98v55.89c0,10.5,8.54,19.04,19.04,19.04h55.89c10.5,0,19.04-8.54,19.04-19.04V20.98c0-10.5-8.54-19.04-19.04-19.04H20.98Z"/><path class="cls-1" d="M50.99,58.78c0,3.69,0,7.16,0,10.63,0,2.28-.57,4.4-1.76,6.36-3.5,5.76-11.29,7.48-16.88,3.71-5.67-3.83-6.95-11.57-2.78-16.99.75-.98,1.64-1.86,2.53-2.86-3-2.3-4.97-5.48-4.98-9.62-.02-4.17,1.83-7.41,4.97-9.74-1.25-1.63-2.75-3.1-3.66-4.87-4.01-7.75,1.63-16.99,10.37-17.07,6.84-.07,13.68-.04,20.51,0,4.86.03,9.32,3.23,10.95,7.77,1.69,4.7.33,9.87-3.45,13.08-.32.27-.65.54-1.06.88,3.22,2.39,5.07,5.51,5.24,9.49.12,2.99-.83,5.69-2.75,7.97-3.92,4.65-11.16,5.99-17.25,1.28ZM47.07,42.04c-3.1,0-6.1-.18-9.08.04-3.77.28-6.66,3.38-7,7.09-.34,3.67,1.97,7.56,5.57,8.23,3.4.64,6.95.49,10.5.69v-16.06ZM47.05,22.18c-2.94,0-5.78-.12-8.61.03-4,.21-7.21,3.49-7.46,7.39-.25,4,2.42,7.77,6.38,8.25,3.16.38,6.4.08,9.68.08v-15.75ZM51.07,38.05c2.82,0,5.48,0,8.15,0,4.14,0,7.33-2.91,7.88-7.16.47-3.61-2.07-7.67-5.79-8.32-3.33-.57-6.79-.39-10.23-.54v16.01ZM47.01,61.79c-2.66,0-5.28,0-7.89,0-.56,0-1.11.06-1.67.1-.21.02-.42.07-.63.13-3.82,1.09-6.33,4.84-5.79,8.64.57,3.97,3.91,6.94,7.87,6.99,3.96.06,7.69-2.97,8.05-6.89.26-2.89.05-5.83.05-8.98ZM50.99,49.8c-.01,4.47,3.47,8.03,7.94,8.11,4.44.08,8.2-3.59,8.2-8,0-4.39-3.66-7.99-8.09-7.98-4.39,0-8.04,3.57-8.05,7.88Z"/></svg>