<?xml version="1.0" encoding="UTF-8"?><svg id="Layer_2" xmlns="http://www.w3.org/2000/svg" viewBox="0 0 97.84 97.84"><defs><style>.cls-1{fill:#c1c1c1;}.cls-2{fill:#c1c1c1;}</style></defs><path class="cls-2" d="M76.99,97.84H21.1C9.53,97.84.12,88.43.12,76.86V20.98C.12,9.41,9.53,0,21.1,0h55.89c11.57,0,20.98,9.41,20.98,20.98v55.89c0,11.57-9.41,20.98-20.98,20.98ZM21.1,1.93C10.6,1.93,2.05,10.47,2.05,20.98v55.89c0,10.5,8.54,19.04,19.04,19.04h55.89c10.5,0,19.04-8.54,19.04-19.04V20.98c0-10.5-8.54-19.04-19.04-19.04H21.1Z"/><path class="cls-1" d="M35.64,65.89c5.54-2.5,10.74-4.86,15.95-7.21,4.15-1.87,8.32-3.71,12.47-5.59,10.48-4.74,12.02-17.06,2.95-24.16-5.85-4.58-12.38-5.6-19.3-2.9-6.45,2.51-12.79,5.29-19.17,7.98-3.31,1.4-4.5,3.32-3.66,5.73.93,2.63,4.01,4.17,6.99,3.16,2.92-.99,5.73-2.34,8.58-3.54,3.19-1.35,6.28-3.05,9.58-3.95,2.01-.54,4.66-.45,6.44.48,1.54.81,2.82,3.07,3.2,4.91.46,2.2-1.23,3.92-3.3,4.83-6.42,2.83-12.78,5.81-19.32,8.32-7.48,2.88-16.62.4-21.76-5.47-6.33-7.22-5.35-17.83,3.06-22.36,9.66-5.21,19.76-10.07,30.68-11.89,11.93-1.99,22.4,1.92,30.43,11.14,11.18,12.85,7.27,30.89-8.11,38.22-5.34,2.54-10.72,4.98-16.38,7.61,1.05,1.57,2,2.99,2.95,4.4,2.34,3.49,2.06,6.79-.76,8.98-2.83,2.2-7.38,1.97-9.6-1.07-4.12-5.63-7.86-11.54-11.94-17.62Z"/></svg>