<?xml version="1.0" encoding="UTF-8"?><svg id="Layer_2" xmlns="http://www.w3.org/2000/svg" viewBox="0 0 97.84 97.84"><defs><style>.cls-1{fill:#c1c1c1;}.cls-2{fill:#c1c1c1;}</style></defs><path class="cls-2" d="M76.86,97.84H20.98C9.41,97.84,0,88.43,0,76.86V20.98C0,9.41,9.41,0,20.98,0h55.89C88.43,0,97.84,9.41,97.84,20.98v55.89c0,11.57-9.41,20.98-20.98,20.98ZM20.98,1.93C10.47,1.93,1.93,10.47,1.93,20.98v55.89c0,10.5,8.54,19.04,19.04,19.04h55.89c10.5,0,19.04-8.54,19.04-19.04V20.98c0-10.5-8.54-19.04-19.04-19.04H20.98Z"/><path class="cls-1" d="M39.87,59.02c-2.23,0-4.46,0-6.69,0-.37,0-.53.12-.64.47-.89,2.79-1.8,5.56-2.7,8.35-.21.64-.33.73-1,.73-2.22,0-4.43,0-6.65,0-.69,0-.81-.16-.58-.82,1.13-3.27,2.27-6.54,3.41-9.81,2.92-8.4,5.83-16.8,8.76-25.19.45-1.28.71-2.58.73-3.93,0-.37.14-.52.52-.52,3.18,0,6.36.01,9.54,0,.39,0,.52.2.64.52,2.17,6.15,4.35,12.29,6.52,18.43,2.42,6.83,4.84,13.66,7.26,20.49.26.72.18.82-.57.82-2.46,0-4.93,0-7.39,0-.6,0-.72-.09-.92-.66-.96-2.79-1.93-5.58-2.87-8.38-.13-.39-.31-.51-.71-.5-2.22.02-4.43,0-6.65,0ZM44.75,51.32c-1.67-5.4-3.32-10.71-4.96-15.98-1.6,5.31-3.21,10.63-4.83,15.98h9.78Z"/><path class="cls-1" d="M63.48,53.41c0-4.81,0-9.62,0-14.43,0-.74.06-.79.8-.79,2.29,0,4.58,0,6.87,0,.67,0,.76.09.76.75,0,9.68,0,19.36,0,29.04,0,.69-.06.75-.75.75-2.3,0-4.61,0-6.91,0-.66,0-.77-.1-.77-.75,0-4.85,0-9.71,0-14.56Z"/><path class="cls-1" d="M72.43,30.09c.12,2.33-1.64,4.79-4.62,4.79-2.83,0-4.82-2-4.77-4.91.04-2.63,2.04-4.57,4.76-4.57,2.84,0,4.64,1.83,4.63,4.7Z"/></svg>