<?xml version="1.0" encoding="UTF-8"?><svg id="Gremmy" xmlns="http://www.w3.org/2000/svg" viewBox="0 0 483.83 445.87"><defs><style>.cls-1{fill:#dfdfdf;}.cls-2{fill:#171717;}</style></defs><path class="cls-2" d="M279.46,150.38c0,.17,0,.35-.02.54.03-.25.03-.5,0-.74h0c.01.07.01.13.01.2Z"/><path class="cls-1" d="M428.34,404.18s.09-.06.14-.1c0,0-.05.03-.14.1Z"/><path class="cls-1" d="M311.96,312.73h-.26l.27.03s0-.03,0-.03Z"/><path class="cls-1" d="M469.99,256.71c-4.33-8.36-12.86-13.54-22.26-13.54-.33,0-.66.01-1.04.02-8.66.36-16.26,4.96-20.55,12.24-5.5-21.9-16.4-38.57-22.9-47.08-1.48-1.94-2.51-4.29-2.98-6.81l-36.81-184.61c-1.5-7.88-7.52-14.08-15.32-15.78-1.4-.31-2.85-.47-4.32-.47-6.49,0-12.58,3.17-16.33,8.49l-.12.19-8.44,12.79-.49-5.2-.51-1.79c-2.49-8.27-9.53-14.18-17.95-15.06-.7-.07-1.41-.1-2.1-.1-7.55,0-14.52,4.16-18.18,10.84l-17.35,30.91c-12.59-6.74-24.87-10.28-36.54-10.53-.44-.01-.9-.01-1.34-.01-17.71,0-33.22,7.25-46.07,21.55-22.59,25.13-30.27,49.87-32.73,66.2-2.85,18.97-.27,37.9,6.92,50.64,2.97,5.27,7.59,9.54,13.17,12.23-.5,2.26-.97,4.54-1.41,6.81-2.16,10.94-7.14,38.93-6.95,62.35v2.2c-.01,1.89-.03,4.1.07,6.36H36.48c-12.09,0-23.09,6.64-28.7,17.34-5.62,10.7-4.84,23.52,2.03,33.47l34.15,49.48-39.58,51.78c-4.93,6.43-5.76,14.93-2.18,22.17,3.68,7.45,11.22,12.08,19.68,12.08h206.14c11.39,0,22.01-5.81,27.72-15.17l4.33-7.09h113.57c1.59,0,3.17-.03,4.69-.09,32.07-1.19,48.34-14.27,50.34-15.99,0,0,.41-.26.55-.35h.14l.79-.61c31.49-20.59,49.33-47.86,53.01-81.05,3.57-32.25-8.02-58.86-13.17-68.81ZM428.34,404.18c.09-.07.14-.1.14-.1-.05.04-.1.07-.14.1ZM470.24,324.72c-3.29,29.68-19.69,54.1-48.75,72.61-.92.58-1.94.86-2.95.86-1.82,0-3.6-.9-4.65-2.54-1.63-2.57-.87-5.97,1.69-7.6,26.11-16.63,40.82-38.34,43.73-64.54,2.93-26.45-7.4-48.89-10.63-55.13-.08-.15-.34-.6-.99-.58-.48.02-.81.25-.99.7-10.71,25.76-23.73,33.43-32.54,35.4-.06.26-.12.53-.18.8-.19.77-.38,1.54-.59,2.32-.01.02-.01.04-.02.07-2.68,11.87-11.83,40.46-38.65,47.56l-.69.18,12.93,18.74.2.28,9.29,12.77c7.45,10.25.13,24.62-12.54,24.62h-7.88s-.02.01-.03.01h-122.05l-8.45,13.83c-3.55,5.81-10.25,9.42-17.48,9.42H21.88c-3.86,0-7.28-2.07-8.93-5.39-1.54-3.12-1.17-6.78.96-9.56l45.52-59.55-38.92-56.38c-4.11-5.96-4.58-13.64-1.22-20.04,3.37-6.41,9.95-10.39,17.19-10.39h271.01c6.38,0,12.35,3.13,15.97,8.38l10.63,15.4c.65.31,1.25.77,1.75,1.35,1.98,2.3,1.72,5.78-.59,7.76-6.11,5.25-15.53,6.59-23.29,6.65,0,0,0,.01,0,.03l-.27-.03s0,.01.01.04c0,.03.02.06.04.11.63,1.86,7.44,19.69,33.64,11.36,1.24-.39,2.24,1.07,1.38,2.05-1.95,2.24-5.09,4.97-9.5,6.22-.77.19-1.57.37-2.41.53-.42.08-.84.15-1.27.23-.87.14-1.76.27-2.67.36-.9.1-1.82.17-2.75.2-.47.02-.95.03-1.42.03-2.68,0-5.45-.29-8.17-1.04,2.77,10.63,17.76,16.95,48.11,13.18,2.18-.27,4.24-.72,6.17-1.33,1.21-.37,2.37-.8,3.48-1.3,21.61-9.45,26.41-38.7,26.57-39.73.01-.02.01-.03.01-.03.48-1.88.89-3.75,1.23-5.6,0-.03.01-.07.02-.11.07-.36.13-.73.19-1.09.1-.57.19-1.15.27-1.72.12-.8.23-1.59.32-2.38.11-.96.21-1.91.28-2.86.04-.46.07-.92.1-1.37s.06-.91.08-1.36c.01-.26.03-.53.04-.79.01-.26.02-.52.02-.77.87-29.15-13.87-52.28-21.31-62.01-3.76-4.93-6.34-10.77-7.47-16.89l-34.9-174.98-46.53,70.57-4.74-5.75c-.32-.4-33.31-39.96-65.26-40.65-11.1-.25-20.59,4.21-29.03,13.59-23.5,26.15-29.72,54.58-27.32,73.85.66,5.32,1.98,9.94,3.77,13.62.26.53.52,1.04.8,1.53.7,1.24,2.01,2.25,3.59,2.79.22.07.44.13.66.19,1.48.36,2.69.18,3.18-.15.39-.26.8-.54,1.23-.86.21-.15.43-.32.65-.49.83-.64,1.71-1.37,2.62-2.19.21-.18.41-.37.62-.56.35-.32.71-.66,1.07-1.01l.22-.22s.07-.07.11-.11c.31-.31.63-.62.95-.94.32-.33.64-.66.96-1,.59-.6,1.16-1.24,1.74-1.91.07-.08.14-.15.21-.23.03-.03.06-.07.1-.11h0s.03-.04.04-.05c3.76-4.07,9.38-10.44,14.42-17.23,1.55-2.1,3.05-4.23,4.42-6.36,1.13-1.74,2.17-3.48,3.09-5.17,0-.01.01-.01.01-.01,1.12-1.47,2.46-1.11,2.71.72l2.06,15.34h-.01c.1.45.2.91.3,1.39,2.05,9.69,5.04,23.86,10.99,33.26.61.98,1.26,1.9,1.94,2.76,2.89,3.66,7.24,5.79,11.93,5.86h.24c.59,0,1.17-.03,1.74-.1.29-.03.58-.07.86-.12s.56-.11.84-.17c.3-.07.6-.14.89-.23.3-.09.59-.18.88-.29.25-.09.51-.19.76-.29.06-.03.11-.05.17-.08.02-.01.03-.01.05-.02.24-.1.47-.21.7-.33.13-.06.25-.13.38-.19,5.36-2.8,13.47-10.47,22.65-30.92.15-.32.32-.6.53-.83.1-.12.21-.23.32-.32.02-.02.04-.04.06-.05l.03-.03c.08-.07.17-.13.26-.18h.01c.24-.15.5-.26.77-.33.27-.07.55-.11.83-.11.11,0,.22.01.34.02.11,0,.22.03.33.05.18.04.35.08.51.14,0,0,.02.01.03.01.06.03.13.05.19.08.07.03.15.07.22.11.09.05.17.1.26.15.2.13.38.28.54.45.07.07.13.14.19.22.06.08.12.16.17.24.05.08.1.17.14.26.01.01.02.03.02.04.03.06.06.13.08.19.02.02.02.03.02.05.04.1.07.2.09.3.02.09.04.18.05.28t0,.02v.02c.01.06.01.12.01.19,0,.17,0,.35-.02.54-.02.14-.05.29-.09.44,0,.03-.01.06-.02.09-.15.54-.3,1.07-.46,1.6-.15.53-.31,1.05-.47,1.57-.31,1.04-.64,2.05-.97,3.05t0,.02c-.22.67-.44,1.33-.68,1.98-.22.65-.46,1.3-.71,1.94-.47,1.27-.97,2.52-1.48,3.73-.26.61-.52,1.21-.78,1.8-.22.5-.44,1-.68,1.49-.08.17-.16.35-.25.53-.22.48-.46.96-.7,1.44-.28.56-.56,1.11-.85,1.65-.28.55-.58,1.09-.87,1.62-.32.56-.63,1.11-.96,1.66-.46.78-.93,1.53-1.41,2.27-.19.3-.39.6-.59.9-.18.28-.37.56-.57.83-.15.22-.3.44-.46.65-.2.3-.41.59-.63.88-.71.96-1.43,1.88-2.17,2.76-5.08,6.05-12.59,9.42-20.5,9.33-8.01-.12-15.44-3.77-20.4-10.04-.3-.38-.6-.78-.89-1.18-7.27-9.93-10.91-24.28-13.29-35.28-4.08,6.83-9.07,12.75-13.6,17.17-.75.73-1.48,1.41-2.19,2.05l.27,2.74c-.61,1.81-1.25,3.98-1.91,6.45-4.92,18.26-10.98,52.59-10.78,76.37.02,3.03-2.42,5.52-5.46,5.54h-.04c-3.02,0-5.48-2.43-5.5-5.45-.2-23.93,5.63-58.76,11.07-78.94-1.71.12-3.49-.04-5.28-.47-4.84-1.18-8.93-4.19-11.23-8.26-10.04-17.79-12.36-61.15,24.15-101.76,10.56-11.75,23.16-17.54,37.47-17.23.49.01.99.03,1.48.06.72.03,1.43.08,2.14.15,2.45.22,4.9.62,7.31,1.17.45.1.9.21,1.35.32.33.08.66.17.99.26.57.14,1.13.3,1.7.47.26.08.53.16.8.24.23.07.47.14.7.22,3.27,1.04,6.47,2.32,9.6,3.79.31.14.61.28.92.43,1.76.85,3.49,1.75,5.19,2.7.78.43,1.55.87,2.31,1.32,2.43,1.43,4.8,2.95,7.08,4.51l23.97-42.71c1.54-2.84,4.47-4.44,7.6-4.12,3.17.33,5.84,2.63,6.81,5.87l.14.48,3.8,40.8,28.71-43.55c1.62-2.3,4.45-3.4,7.2-2.79,2.75.6,4.85,2.78,5.37,5.55l36.8,184.56c.83,4.5,2.7,8.72,5.42,12.28,8.71,11.42,26.44,39.41,23.22,74.65,5.68-2.96,13.31-10.15,20.41-27.24,1.83-4.41,5.92-7.27,10.69-7.47,4.74-.22,9.04,2.3,11.22,6.51,4.6,8.89,14.97,32.68,11.79,61.4ZM292.54,147.27c3.01-11.04,10.48-29.16,27.11-29.32,2.83-.03,5.34.74,7.58,2.13,11.67,7.22,15.85,31.04,17.88,44.61.49,3.24-1.61,5-3.9,2.86-5.15-4.8-11.24-14.12-19.11-17.21-.38-.15-.77-.28-1.16-.4-8.21-2.5-17.88,2-23.28,3.33-3.23.8-6.06-2.53-5.12-6Z"/><path class="cls-1" d="M428.48,404.08c-.05.04-.1.07-.14.1.09-.07.14-.1.14-.1Z"/><path class="cls-2" d="M279.46,150.38c0,.17,0,.35-.02.54.03-.25.03-.5,0-.74h0c.01.07.01.13.01.2Z"/><path class="cls-2" d="M279.46,150.38c0,.17,0,.35-.02.54.03-.25.03-.5,0-.74h0c.01.07.01.13.01.2Z"/><path class="cls-2" d="M311.97,312.76l-.27-.03h.26s0,.01,0,.03Z"/><path class="cls-2" d="M414.02,303.93c-.15.82-.36,1.87-.63,3.09.21-.78.4-1.55.59-2.32.06-.27.12-.54.18-.8-.05.01-.09.02-.14.03ZM364.46,411.25h11.55s-11.55,0-11.55,0ZM311.96,312.73h-.26l.27.03s0-.03,0-.03ZM279.45,150.19s0-.01,0-.01c.03.24.03.49,0,.74.03-.19.03-.37.02-.54,0-.07,0-.13-.01-.19Z"/><path class="cls-2" d="M458.45,263.32c-2.18-4.21-6.48-6.73-11.22-6.51-4.77.2-8.86,3.06-10.69,7.47-7.1,17.09-14.73,24.28-20.41,27.24-2.88,1.5-5.26,1.91-6.81,1.98-2.58.11-4.67,1.99-5.15,4.4-.01.04-.02.08-.02.11-.34,1.85-.75,3.72-1.23,5.6,0,0,0,.01-.01.03-.16,1.03-4.96,30.28-26.57,39.73-1.11.5-2.27.93-3.48,1.3-1.93.61-3.99,1.06-6.17,1.33-30.35,3.77-45.34-2.55-48.11-13.18,2.72.75,5.49,1.04,8.17,1.04.47,0,.95,0,1.42-.03.93-.03,1.85-.1,2.75-.2.91-.09,1.8-.22,2.67-.36.43-.08.85-.15,1.27-.23.84-.16,1.64-.34,2.41-.53,4.41-1.25,7.55-3.98,9.5-6.22.86-.98-.14-2.44-1.38-2.05-26.2,8.33-33.01-9.5-33.64-11.36-.02-.05-.03-.08-.04-.11-.01-.03-.01-.04-.01-.04h.26c7.76-.06,17.18-1.4,23.29-6.65,2.31-1.98,2.57-5.46.59-7.76-.5-.58-1.1-1.04-1.75-1.35l-10.63-15.4c-3.62-5.25-9.59-8.38-15.97-8.38H36.48c-7.24,0-13.82,3.98-17.19,10.39-3.36,6.4-2.89,14.08,1.22,20.04l38.92,56.38-45.52,59.55c-2.13,2.78-2.5,6.44-.96,9.56,1.65,3.32,5.07,5.39,8.93,5.39h206.14c7.23,0,13.93-3.61,17.48-9.42l8.45-13.83h122.06s7.9-.01,7.9-.01c12.67,0,19.99-14.37,12.54-24.62l-9.29-12.77-.2-.28-12.93-18.74.69-.18c26.82-7.1,35.97-35.69,38.65-47.56.01-.03.01-.05.02-.07.27-1.22.48-2.27.63-3.09.05-.01.09-.02.14-.03,8.81-1.97,21.83-9.64,32.54-35.4.18-.45.51-.68.99-.7.65-.02.91.43.99.58,3.23,6.24,13.56,28.68,10.63,55.13-2.91,26.2-17.62,47.91-43.73,64.54-2.56,1.63-3.32,5.03-1.69,7.6,1.05,1.64,2.83,2.54,4.65,2.54,1.01,0,2.03-.28,2.95-.86,29.06-18.51,45.46-42.93,48.75-72.61,3.18-28.72-7.19-52.51-11.79-61.4ZM294.52,323.64l-53.53,87.61h.08l-4.95,8.09c-1.57,2.57-4.67,4.16-8.1,4.16H24.73l41.27-53.98,36.2-47.57c.5-.66,1.44-.79,2.1-.29.66.5.79,1.44.29,2.1l-36.8,48.35,21.23,30.76c3.62,5.25,9.59,8.38,15.97,8.38h132.49l54.48-89.18c.43-.7,1.36-.92,2.06-.5.71.44.93,1.36.5,2.07Z"/><path class="cls-1" d="M294.52,323.64l-53.53,87.61h.08l-4.95,8.09c-1.57,2.57-4.67,4.16-8.1,4.16H24.73l41.27-53.98,36.2-47.57c.5-.66,1.44-.79,2.1-.29.66.5.79,1.44.29,2.1l-36.8,48.35,21.23,30.76c3.62,5.25,9.59,8.38,15.97,8.38h132.49l54.48-89.18c.43-.7,1.36-.92,2.06-.5.71.44.93,1.36.5,2.07Z"/><path class="cls-2" d="M416.13,291.52c-2.88,1.5-5.26,1.91-6.81,1.98-2.58.11-4.67,1.99-5.15,4.4.07-.36.13-.73.19-1.09.1-.57.19-1.15.27-1.72.12-.8.23-1.59.32-2.38.11-.96.21-1.91.28-2.86.04-.46.07-.92.1-1.37s.06-.91.08-1.36c.01-.26.03-.53.04-.79.01-.26.02-.52.02-.77.87-29.15-13.87-52.28-21.31-62.01-3.76-4.93-6.34-10.77-7.47-16.89l-34.9-174.98-46.53,70.57-4.74-5.75c-.32-.4-33.31-39.96-65.26-40.65-11.1-.25-20.59,4.21-29.03,13.59-23.5,26.15-29.72,54.58-27.32,73.85.66,5.32,1.98,9.94,3.77,13.62.26.53.52,1.04.8,1.53.7,1.24,2.01,2.25,3.59,2.79.22.07.44.13.66.19,1.48.36,2.69.18,3.18-.15.39-.26.8-.54,1.23-.86.21-.15.43-.32.65-.49.83-.64,1.71-1.37,2.62-2.19.21-.18.41-.37.62-.56.35-.32.71-.66,1.07-1.01l.22-.22s.07-.07.11-.11c.31-.31.63-.62.95-.94.32-.33.64-.66.96-1,.59-.6,1.16-1.24,1.74-1.91.07-.08.14-.15.21-.23.03-.03.06-.07.1-.11h0s.03-.04.04-.05c3.76-4.07,9.38-10.44,14.42-17.23,1.55-2.1,3.05-4.23,4.42-6.36,1.13-1.74,2.17-3.48,3.09-5.17,0-.01.01-.01.01-.01,1.12-1.47,2.46-1.11,2.71.72l2.06,15.34h-.01c.1.45.2.91.3,1.39,2.05,9.69,5.04,23.86,10.99,33.26.61.98,1.26,1.9,1.94,2.76,2.89,3.66,7.24,5.79,11.93,5.86h.24c.59,0,1.17-.03,1.74-.1.29-.03.58-.07.86-.12s.56-.11.84-.17c.3-.07.6-.14.89-.23.3-.09.59-.18.88-.29.25-.09.51-.19.76-.29.06-.03.11-.05.17-.08.02-.01.03-.01.05-.02.24-.1.48-.21.7-.33.13-.06.25-.13.38-.19,5.36-2.8,13.47-10.47,22.65-30.92.15-.32.32-.6.53-.83.1-.12.21-.23.32-.32.02-.02.04-.04.06-.05l.03-.03c.08-.07.17-.13.26-.18h.01c.24-.15.5-.26.77-.33.27-.07.55-.11.83-.11.11,0,.22.01.34.02.11,0,.22.03.33.05.18.04.35.08.51.14,0,0,.02.01.03.01.06.03.13.05.19.08.07.03.15.07.22.11.09.05.17.1.26.15.2.13.38.28.54.45.07.07.13.14.19.22.06.08.12.16.17.24.05.08.1.17.14.26.01.01.02.03.02.04.03.06.06.13.08.19.02.02.02.03.02.05.04.1.07.2.09.3.02.09.04.18.05.28t0,.02h0c.03.25.03.5,0,.75-.02.14-.05.29-.09.44,0,.03-.01.06-.02.09-.15.54-.3,1.07-.46,1.6-.15.53-.31,1.05-.47,1.57-.31,1.04-.64,2.05-.97,3.05t0,.02c-.22.67-.45,1.33-.68,1.98-.23.65-.47,1.3-.71,1.94-.47,1.27-.97,2.52-1.48,3.73-.26.61-.52,1.21-.78,1.8-.22.5-.45,1-.68,1.49-.08.17-.16.35-.25.53-.23.49-.46.97-.7,1.44-.28.56-.56,1.11-.85,1.65-.28.55-.58,1.09-.87,1.62-.32.56-.63,1.11-.96,1.66-.46.78-.93,1.53-1.41,2.27-.19.3-.39.6-.59.9-.18.28-.37.56-.57.83-.15.22-.3.44-.46.65-.2.3-.41.59-.63.88-.71.96-1.43,1.88-2.17,2.76-5.08,6.05-12.59,9.42-20.5,9.33-8.01-.12-15.44-3.77-20.4-10.04-.3-.38-.6-.78-.89-1.18-7.27-9.93-10.91-24.28-13.29-35.28-4.08,6.83-9.07,12.75-13.6,17.17-.16.15-.32.31-.47.45l-2.83,8.85v.03c-.18.62-.35,1.25-.53,1.91-4.92,18.26-10.98,52.59-10.78,76.37.02,3.03-2.42,5.52-5.46,5.54h-.04c-3.02,0-5.48-2.43-5.5-5.45-.2-23.93,5.63-58.76,11.07-78.94-1.71.12-3.49-.04-5.28-.47-4.84-1.18-8.93-4.19-11.23-8.26-10.04-17.79-12.36-61.15,24.15-101.76,10.56-11.75,23.16-17.54,37.47-17.23.49.01.99.03,1.48.06.72.03,1.43.08,2.14.15,2.45.22,4.9.62,7.31,1.17.45.1.9.21,1.35.32.33.08.66.17.99.26.57.14,1.13.3,1.7.47.26.08.53.16.8.24.23.07.47.14.7.22,3.27,1.04,6.47,2.32,9.6,3.79.31.14.61.28.92.43,1.76.85,3.49,1.75,5.19,2.7.78.43,1.55.87,2.31,1.32,2.43,1.43,4.8,2.95,7.08,4.51l23.97-42.71c1.54-2.84,4.47-4.44,7.6-4.12,3.17.33,5.84,2.63,6.81,5.87l.14.48,3.8,40.8,28.71-43.55c1.62-2.3,4.45-3.4,7.2-2.79,2.75.6,4.85,2.78,5.37,5.55l36.8,184.56c.83,4.5,2.7,8.72,5.42,12.28,8.71,11.42,26.44,39.41,23.22,74.65Z"/><path class="cls-2" d="M341.21,167.55c-5.15-4.8-11.24-14.12-19.11-17.21-.38-.15-.77-.28-1.16-.4-8.21-2.5-17.88,2-23.28,3.33-3.23.8-6.06-2.53-5.12-6,3.01-11.04,10.48-29.16,27.11-29.32,2.83-.03,5.34.74,7.58,2.13,11.67,7.22,15.85,31.04,17.88,44.61.49,3.24-1.61,5-3.9,2.86Z"/></svg>