<?xml version="1.0" encoding="UTF-8"?><svg id="Pen" xmlns="http://www.w3.org/2000/svg" viewBox="0 0 483.83 445.87"><defs><style>.cls-1{fill:#dfdfdf;}.cls-2{fill:#171717;}</style></defs><path class="cls-1" d="M125.9,325.48c-.45,0-.9-.02-1.35-.06-4.76-.41-9.13-3.08-11.7-7.12-.29-.46-.56-.91-.82-1.35-2.74-2.05-4.05-4.37-4.65-5.46l-.23-.39c-.63-1.08-1.29-2.16-1.94-3.23l-.06-.1c-.94-1.54-1.91-3.13-2.86-4.81-4.41-7.74-7.29-16.63-8.81-27.16-.9-5.81-1.84-11.63-2.78-17.46-2.19-13.59-4.45-27.65-6.22-41.7l-.02-.21c-.58-5.39,1.03-10.51,4.55-14.43,3.53-3.93,8.62-6.19,13.96-6.19,7.73,0,14.5,4.72,17.27,12.03l.07.19c4.71,13.19,9.42,27.26,15.27,45.66.59,1.88,1.21,3.72,1.82,5.56,3.48,10.45,7.07,21.24,6.32,33.88-.08,1.88-.23,3.79-.36,5.48v.13c-.1,1.24-.2,2.48-.27,3.71l-.02.41v.11c-.05,1.25-.18,3.89-1.67,6.93-.03.48-.07.96-.11,1.44-.63,7.92-7.38,14.14-15.38,14.14Z"/><path class="cls-1" d="M125.9,322.48c-.36,0-.73-.02-1.09-.05-3.83-.33-7.36-2.48-9.43-5.74-.38-.6-.74-1.2-1.08-1.81-2.61-1.79-3.8-3.97-4.33-4.92l-.08-.12-.14-.25c-.65-1.12-1.33-2.24-2.01-3.35-.93-1.53-1.9-3.11-2.83-4.76-4.22-7.41-6.99-15.96-8.45-26.11-.9-5.84-1.84-11.68-2.78-17.51-2.19-13.57-4.45-27.61-6.21-41.6l-.02-.17c-.49-4.52.86-8.81,3.8-12.09,2.96-3.3,7.24-5.19,11.73-5.19,6.47,0,12.14,3.96,14.46,10.09l.06.17c4.68,13.09,9.37,27.13,15.22,45.52.6,1.89,1.21,3.75,1.83,5.6,3.38,10.17,6.88,20.69,6.17,32.76-.08,1.86-.22,3.67-.35,5.43-.1,1.3-.2,2.61-.27,3.91l-.02.33-.02.14c-.03,1.09-.11,3.56-1.62,6.33-.04.68-.08,1.34-.14,2-.5,6.36-5.95,11.39-12.39,11.39Z"/><path class="cls-2" d="M130.71,292.43c-.13,3.09-.45,6.21-.62,9.3-.13,1.05.16,2-.96,3.29-.19.22-.4.44-.62.62,0,1.52-.06,3.05-.19,4.59-.11,1.35-1.3,2.35-2.64,2.23-.79-.07-1.47-.52-1.87-1.14-.82-1.31-1.56-2.65-2.25-4.01-.28-.07-.56-.16-.84-.27-1.58-.64-1.77-1.61-2.35-2.49-1.56-2.68-3.26-5.31-4.78-8-4.03-7.07-6.12-14.72-7.26-22.67-3.03-19.62-6.48-39.15-8.96-58.88-.71-6.54,8.37-8.71,10.69-2.57,5.35,14.97,10.3,30.06,15.11,45.19,3.59,11.39,8.29,22.59,7.54,34.81Z"/></svg>