<?xml version="1.0" encoding="UTF-8"?><svg id="Gremmy" xmlns="http://www.w3.org/2000/svg" viewBox="0 0 794.25 387.47"><defs><style>.cls-1{fill:#dfdfdf;}</style></defs><path class="cls-1" d="M94.8,130.45c0,36.5-7.35,51.71-29.15,51.71-15.21,0-26.36-7.35-31.18-30.92h-2.79l4.56,28.39H0V2.19h47.4c34.22,0,47.4,14.19,47.4,48.41v79.84ZM56.78,63.28c0-20.53-2.53-24.84-9.38-24.84h-6.84v80.6c0,22.05,3.29,26.87,7.86,26.87,6.08,0,8.37-5.07,8.37-25.6v-57.03Z"/><path class="cls-1" d="M197.2,47.82v85.93c0,31.68-13.18,48.41-47.4,48.41s-47.4-16.73-47.4-48.41V47.82C102.4,16.39,115.33-.34,149.8-.34s47.4,16.73,47.4,48.16ZM157.91,58.21c0-18-2.79-22.31-8.11-22.31s-8.11,4.31-8.11,22.31v65.39c0,18,2.79,22.3,8.11,22.3s8.11-4.31,8.11-22.3V58.21Z"/><path class="cls-1" d="M299.6,47.82v85.93c0,31.68-13.18,48.41-47.4,48.41s-47.4-16.73-47.4-48.41V47.82c0-31.43,12.93-48.16,47.4-48.16s47.4,16.73,47.4,48.16ZM260.31,58.21c0-18-2.79-22.31-8.11-22.31s-8.11,4.31-8.11,22.31v65.39c0,18,2.79,22.3,8.11,22.3s8.11-4.31,8.11-22.3V58.21Z"/><path class="cls-1" d="M403.26,130.45c0,36.5-7.35,51.71-29.15,51.71-15.21,0-26.36-7.35-31.18-30.92h-2.79l4.56,28.39h-36.25V2.19h47.4c34.22,0,47.4,14.19,47.4,48.41v79.84ZM365.24,63.28c0-20.53-2.53-24.84-9.38-24.84h-6.84v80.6c0,22.05,3.3,26.87,7.86,26.87,6.08,0,8.36-5.07,8.36-25.6v-57.03Z"/><path class="cls-1" d="M485.89,179.62h-73.76V2.19h40.56v141.18h33.2v36.25Z"/><path class="cls-1" d="M564.98,38.44h-33.2v34.22h29.4v32.95h-29.4v37.77h33.2v36.25h-73.76V2.19h73.76v36.25Z"/><path class="cls-1" d="M617.69,145.91c5.58,0,8.62-4.82,8.62-17.49v-2.53c0-17.49-11.66-23.83-25.35-32.7-14.95-9.89-29.91-20.53-29.91-47.65v-2.53c0-24.59,12.93-43.34,47.4-43.34s47.4,16.73,47.4,48.41v18.5h-38.02v-8.36c0-18-3.55-22.31-10.39-22.31-4.82,0-7.1,3.55-7.1,9.38v2.53c0,11.91,12.67,20.02,26.11,29.15,15.46,10.64,29.4,21.04,29.4,50.95v5.07c0,31.68-13.18,49.17-47.4,49.17s-47.4-17.49-47.4-49.17v-11.15c0-13.18,1.77-16.48,1.77-16.48h38.02s-1.77,5.83-1.77,21.54c0,12.67,2.79,19.01,8.62,19.01Z"/><path class="cls-1" d="M746.09,351.23c5.58,0,8.62-4.82,8.62-17.49v-2.53c0-17.49-11.66-23.83-25.35-32.7-14.95-9.89-29.91-20.53-29.91-47.65v-2.53c0-24.59,12.93-43.34,47.4-43.34s47.4,16.73,47.4,48.41v18.5h-38.02v-8.36c0-18-3.55-22.31-10.39-22.31-4.82,0-7.1,3.55-7.1,9.38v2.53c0,11.91,12.67,20.02,26.11,29.15,15.46,10.64,29.4,21.04,29.4,50.95v5.07c0,31.68-13.18,49.17-47.4,49.17s-47.4-17.49-47.4-49.17v-11.15c0-13.18,1.77-16.48,1.77-16.48h38.02s-1.77,5.83-1.77,21.54c0,12.67,2.79,19.01,8.62,19.01Z"/><path class="cls-1" d="M249.04,334.5c0,36.5-7.35,51.71-29.15,51.71-15.21,0-26.36-7.35-31.18-30.92h-2.79l4.56,28.39h-36.25v-177.43h47.4c34.22,0,47.4,14.19,47.4,48.41v79.84ZM211.02,267.33c0-20.53-2.53-24.84-9.38-24.84h-6.84v80.6c0,22.05,3.29,26.87,7.86,26.87,6.08,0,8.37-5.07,8.37-25.6v-57.03Z"/><path class="cls-1" d="M331.67,242.49h-33.2v34.22h29.4v32.95h-29.4v37.77h33.2v36.25h-73.76v-177.43h73.76v36.25Z"/><path class="cls-1" d="M384.39,349.96c5.58,0,8.62-4.82,8.62-17.49v-2.53c0-17.49-11.66-23.83-25.35-32.7-14.95-9.89-29.91-20.53-29.91-47.65v-2.53c0-24.59,12.93-43.34,47.4-43.34s47.4,16.73,47.4,48.41v18.5h-38.02v-8.36c0-18-3.55-22.3-10.39-22.3-4.82,0-7.1,3.55-7.1,9.38v2.53c0,11.91,12.67,20.02,26.11,29.15,15.46,10.64,29.4,21.04,29.4,50.95v5.07c0,31.68-13.18,49.17-47.4,49.17s-47.4-17.49-47.4-49.17v-11.15c0-13.18,1.77-16.47,1.77-16.47h38.02s-1.77,5.83-1.77,21.54c0,12.67,2.79,19.01,8.62,19.01Z"/><path class="cls-1" d="M440.41,206.24h40.55v177.43h-40.55v-177.43Z"/><path class="cls-1" d="M584.63,270.63v-18.51c0-31.68-13.18-48.41-47.4-48.41s-47.4,16.73-47.4,48.41v82.38c0,33.96,8.88,51.71,30.67,51.71,15.72,0,25.86-7.35,30.67-33.46h2.54l-5.58,30.92h36.25l.25-105.19h-52.5v32.95h11.95v11.66c0,22.06-3.3,26.87-7.86,26.87-6.24,0-8.31-4.92-8.37-24.67v-63.03c0-17.99,2.54-22.3,9.38-22.3s9.38,4.31,9.38,22.3v8.37h38.02Z"/><path class="cls-1" d="M653.32,306.11h2.53l-2.53-99.87h35.49v177.43h-45.62l-13.69-101.13h-2.53l2.53,101.13h-35.48v-177.43h45.62l13.69,99.87Z"/><path class="cls-1" d="M92.26,208.78v172.36h-40.87l-13.39-98.94-.3-2.19h-7.35l.07,2.6,2.47,98.53H2.53v-172.36h40.88l13.39,97.68.3,2.19h7.35l-.07-2.6-2.47-97.27h30.35M94.8,206.24h-35.48l2.53,99.87h-2.53l-13.69-99.87H0v177.43h35.48l-2.53-101.13h2.53l13.69,101.13h45.62v-177.43h0Z"/><path class="cls-1" d="M132.12,212.58l-3.95,55.76h-8.95l-3.72-55.76h16.62M134.84,210.05h-22.05l4.06,60.83h13.69l4.31-60.83h0Z"/></svg>